<?xml version="1.0" standalone="no"?>
<!DOCTYPE svg PUBLIC "-//W3C//DTD SVG 20010904//EN"
 "http://www.w3.org/TR/2001/REC-SVG-20010904/DTD/svg10.dtd">
<svg version="1.0" xmlns="http://www.w3.org/2000/svg"
 width="1000.000000pt" height="720.000000pt" viewBox="0 0 1000.000000 720.000000"
 preserveAspectRatio="xMidYMid meet">

<g transform="translate(0.000000,720.000000) scale(0.100000,-0.100000)"
fill="#000000" stroke="none">
<path d="M7708 6803 c7 -3 16 -2 19 1 4 3 -2 6 -13 5 -11 0 -14 -3 -6 -6z"/>
<path d="M7745 6800 c-3 -5 -1 -10 4 -10 6 0 11 5 11 10 0 6 -2 10 -4 10 -3 0
-8 -4 -11 -10z"/>
<path d="M7670 6791 c0 -4 -28 -12 -62 -15 -35 -4 -81 -10 -103 -13 -45 -5
-245 -67 -284 -88 -15 -7 -43 -16 -64 -20 -20 -4 -34 -11 -32 -16 3 -4 -14
-18 -37 -30 -24 -12 -59 -34 -78 -48 -45 -34 -180 -170 -180 -183 0 -5 -11
-26 -25 -46 -14 -20 -25 -42 -25 -48 0 -6 -6 -16 -13 -22 -7 -6 -14 -23 -15
-39 -1 -15 -9 -33 -18 -40 -9 -6 -13 -16 -10 -22 8 -12 -13 -149 -25 -173 -6
-12 -6 -18 0 -18 6 0 23 24 37 53 50 98 111 165 181 197 35 15 105 27 123 20
15 -6 119 -7 127 -2 9 7 38 70 38 84 0 12 39 37 58 38 9 0 17 4 17 10 0 11 59
70 69 70 4 0 12 -5 19 -12 9 -9 8 -16 -6 -31 -16 -18 -16 -20 3 -33 10 -8 16
-15 12 -15 -4 -1 -10 -2 -14 -4 -61 -16 -64 -18 -60 -36 4 -13 -2 -19 -25 -24
-21 -5 -28 -11 -24 -22 4 -9 -1 -21 -11 -28 -15 -11 -15 -15 -4 -29 8 -9 16
-14 19 -12 10 11 62 -29 62 -47 0 -13 5 -17 14 -14 9 4 17 -2 21 -14 4 -10 14
-19 23 -19 20 -1 34 -12 81 -62 25 -27 35 -49 38 -80 3 -24 11 -50 19 -59 22
-25 16 -33 -11 -15 -14 9 -25 13 -24 9 0 -5 50 -46 110 -93 152 -118 157 -122
165 -156 4 -16 10 -33 14 -39 10 -14 18 -85 9 -85 -4 0 -10 6 -13 13 -3 6 -3
-6 0 -28 3 -22 14 -47 24 -55 12 -11 17 -27 16 -55 -2 -22 1 -49 5 -60 4 -12
-1 -40 -12 -70 -13 -35 -19 -77 -20 -137 0 -52 -5 -88 -10 -88 -6 0 -7 -9 -4
-20 4 -11 2 -20 -4 -20 -6 0 -19 -10 -30 -21 -11 -12 -26 -19 -35 -16 -10 4
-13 1 -10 -7 3 -8 -5 -16 -20 -20 -30 -7 -38 -31 -41 -121 -2 -43 -10 -83 -21
-105 -29 -57 -122 -168 -174 -208 -48 -37 -165 -113 -185 -121 -5 -2 -35 -16
-66 -31 -42 -20 -74 -27 -128 -29 -39 -1 -95 -11 -124 -21 l-52 -19 75 0 c100
-2 356 18 403 30 26 7 42 7 51 0 9 -7 16 -7 23 0 8 8 18 7 34 -3 13 -7 25 -13
26 -14 2 0 -4 -76 -12 -168 -12 -134 -19 -175 -35 -201 -15 -25 -18 -39 -11
-57 5 -12 15 -42 22 -65 7 -24 18 -43 26 -43 7 0 13 -5 13 -12 0 -15 49 -58
66 -58 23 0 44 12 44 26 0 10 13 14 41 14 31 0 51 8 80 31 21 17 39 37 39 45
0 8 5 14 10 14 6 0 10 -5 10 -10 0 -12 -78 -152 -88 -160 -4 -3 -23 -35 -41
-72 -19 -38 -39 -68 -44 -68 -5 0 -7 -18 -5 -39 2 -22 0 -38 -3 -35 -7 4 -11
-26 -10 -73 0 -49 13 -113 21 -113 10 0 24 20 26 35 4 39 19 75 30 75 8 0 14
10 14 24 0 14 4 27 9 30 4 3 19 34 31 68 13 35 27 68 30 73 8 11 94 172 118
220 8 17 24 49 35 72 11 24 22 41 25 39 2 -3 -3 -20 -12 -38 -38 -75 -101
-408 -78 -408 11 0 29 55 63 195 12 50 29 104 38 120 9 17 19 39 23 50 11 32
2 -63 -12 -130 -12 -55 -11 -64 5 -88 34 -52 75 -29 75 43 0 25 7 55 15 66 17
23 20 5 3 -31 -6 -14 -9 -28 -5 -31 15 -15 39 31 79 151 24 72 46 132 51 133
4 2 7 11 7 21 0 23 26 58 36 48 4 -4 2 -17 -4 -30 -6 -12 -16 -44 -21 -72 -9
-48 -25 -103 -41 -135 -4 -9 -11 -31 -15 -49 -11 -52 -56 -143 -83 -171 -37
-38 -85 -100 -76 -100 4 0 0 -8 -9 -18 -21 -23 -61 -157 -76 -252 -7 -41 -17
-160 -22 -265 -5 -104 -12 -208 -14 -230 -18 -161 -25 -204 -38 -236 -19 -42
-75 -109 -93 -109 -6 0 -14 -6 -17 -13 -3 -8 -27 -22 -54 -32 -26 -10 -50 -22
-53 -26 -6 -8 -59 -14 -100 -11 -25 2 -50 38 -50 71 0 14 -1 14 -10 1 -7 -12
-12 -12 -22 -2 -9 9 -9 12 0 12 7 0 12 16 12 40 0 33 -3 40 -19 40 -11 0 -23
5 -27 11 -4 8 -9 7 -15 -2 -6 -9 -9 1 -9 29 0 31 -4 42 -15 42 -11 0 -15 11
-15 43 0 36 -4 46 -25 57 -21 11 -28 11 -38 1 -9 -11 -9 -14 1 -18 6 -3 12
-11 12 -19 0 -22 -77 -19 -84 4 -3 9 -2 -20 1 -66 l5 -82 -41 0 c-23 0 -41 5
-41 10 0 6 -18 10 -40 10 -22 0 -40 -4 -40 -10 0 -5 -4 -10 -9 -10 -5 0 -11
24 -14 53 -3 38 -1 54 9 60 8 4 14 23 14 42 0 19 4 36 9 40 5 3 13 31 16 63 5
36 16 69 31 89 13 17 24 36 24 42 0 6 6 11 14 11 8 0 17 15 21 36 4 24 13 38
26 41 16 4 19 11 15 32 -12 57 -15 101 -6 101 6 0 10 7 10 15 0 8 -4 15 -9 15
-10 0 9 72 21 80 12 9 22 70 12 70 -5 0 -8 20 -6 44 3 38 1 44 -20 50 -14 4
-18 9 -10 13 17 7 15 24 -4 38 -19 14 -56 105 -43 105 5 0 9 5 9 12 0 9 -3 9
-12 0 -21 -21 -45 -13 -77 23 -40 46 -66 107 -136 324 -15 47 -38 102 -51 123
-13 21 -31 59 -40 85 -9 27 -22 55 -29 63 -20 24 -65 145 -65 177 -1 24 -11
34 -78 73 -105 62 -114 79 -123 244 -4 72 -16 169 -28 216 -11 47 -28 135 -36
195 -21 144 -23 149 -44 98 -9 -23 -26 -52 -39 -63 -12 -11 -22 -27 -22 -34 0
-7 -9 -21 -20 -31 -47 -43 -108 -177 -111 -246 0 -19 4 -50 10 -69 18 -56 14
-74 -21 -95 -18 -10 -49 -31 -68 -47 -19 -15 -45 -28 -57 -28 -12 0 -24 -4
-27 -9 -3 -4 -19 -11 -36 -15 -26 -5 -30 -9 -24 -29 3 -14 0 -44 -6 -68 -11
-40 -10 -45 10 -61 16 -13 27 -15 47 -7 14 5 27 8 29 6 5 -5 -19 -67 -27 -67
-3 0 -28 -28 -55 -62 -27 -35 -59 -74 -71 -88 -13 -14 -23 -33 -23 -42 0 -10
-6 -18 -12 -18 -13 -1 -48 -66 -48 -88 0 -7 -4 -20 -9 -30 -4 -9 -15 -30 -23
-47 -8 -16 -18 -47 -21 -67 -3 -20 -13 -53 -23 -73 -24 -51 -40 -23 -20 37 8
24 17 58 21 76 4 17 11 32 16 32 5 0 9 18 9 40 0 27 4 40 14 40 10 0 15 20 18
76 2 41 8 78 14 82 20 13 34 50 34 91 0 31 4 41 16 41 11 0 15 6 11 19 -3 11
3 30 12 43 19 28 20 146 1 158 -17 10 -52 1 -67 -18 -7 -9 -13 -12 -13 -6 0 5
-4 4 -8 -1 -16 -23 -74 -65 -83 -59 -5 3 -9 0 -9 -5 0 -6 -10 -11 -22 -11 -12
0 -30 -7 -40 -17 -17 -15 -18 -15 -18 15 0 35 -27 50 -57 33 -10 -6 -13 -11
-7 -11 6 0 11 -17 12 -37 1 -28 -1 -34 -8 -23 -8 13 -10 12 -10 -2 0 -10 -7
-18 -16 -18 -16 0 -14 -17 5 -65 5 -11 13 -31 18 -44 10 -26 0 -122 -19 -193
-20 -70 -30 -71 -23 -2 5 40 3 75 -5 99 -7 21 -12 59 -12 86 0 34 -5 49 -16
54 -25 10 -48 -24 -89 -130 -29 -74 -45 -103 -63 -112 -17 -8 -28 -9 -37 -1
-19 16 -16 38 6 38 15 0 21 12 30 61 6 34 16 67 22 75 9 11 8 18 -1 29 -11 14
-17 12 -44 -16 -17 -17 -41 -38 -53 -47 -13 -8 -23 -23 -23 -34 0 -11 -8 -27
-19 -36 -10 -10 -29 -44 -42 -77 -32 -83 -52 -118 -69 -123 -11 -2 -12 -1 -3
5 15 11 30 193 16 193 -25 0 -43 -50 -43 -120 0 -55 -3 -70 -15 -70 -10 0 -17
14 -21 40 -4 24 -12 40 -20 40 -8 0 -14 -4 -14 -8 0 -5 -9 -19 -20 -32 l-20
-23 -2 24 c0 13 0 36 1 52 4 46 -24 32 -48 -24 -11 -29 -21 -68 -22 -88 -1
-20 -4 -47 -8 -61 -9 -31 -16 -15 -26 55 -5 32 -10 43 -16 34 -7 -11 -9 -10
-9 4 0 32 -18 17 -36 -29 -17 -44 -48 -84 -65 -84 -16 0 -18 37 -5 81 18 60 5
86 -24 49 -37 -45 -49 -77 -65 -165 -8 -48 -17 -91 -21 -96 -12 -21 -24 -7
-24 30 0 22 -6 42 -12 45 -10 5 -10 7 0 12 11 5 18 34 7 34 -10 0 -81 -53 -98
-73 -18 -22 -18 -22 -14 16 4 33 58 115 92 139 19 14 -25 8 -53 -6 -34 -18
-92 -79 -121 -127 -11 -20 -46 -58 -76 -85 -31 -26 -58 -50 -60 -52 -12 -12
-35 79 -35 142 0 40 -6 78 -13 87 -19 24 -69 30 -90 11 -18 -16 -20 -15 -33 3
-18 24 -18 46 0 70 8 12 19 16 31 11 10 -3 24 -1 31 5 8 6 21 8 30 5 23 -9 81
22 87 45 3 11 3 44 0 73 -7 63 11 89 56 80 69 -14 151 37 151 95 0 40 -90 176
-179 271 -77 82 -80 84 -81 55 0 -17 -4 -46 -10 -64 -6 -23 -6 -39 1 -47 11
-13 69 -25 69 -13 0 15 32 18 51 6 25 -18 67 -81 75 -112 3 -14 10 -25 14 -25
4 0 10 -14 14 -31 3 -17 10 -28 16 -24 5 3 10 -1 10 -10 0 -9 -4 -14 -9 -11
-5 4 -7 -2 -4 -13 3 -10 0 -22 -6 -25 -10 -7 -16 7 -12 28 1 5 -8 6 -21 2 -13
-3 -30 -6 -38 -6 -13 0 -13 -1 0 -11 11 -8 2 -9 -34 -5 -27 3 -62 6 -78 6 -16
0 -27 4 -23 9 3 5 1 12 -5 16 -17 10 -11 25 15 37 19 9 29 7 50 -6 30 -20 45
-13 27 12 -7 9 -17 28 -24 42 -17 35 -49 70 -65 70 -7 0 -13 9 -13 20 0 17 -5
19 -35 15 -36 -4 -55 9 -37 27 13 13 4 38 -12 38 -7 0 -19 26 -27 57 -17 66
-40 78 -86 45 -16 -11 -38 -22 -49 -26 -12 -4 -29 -15 -39 -26 -10 -11 -28
-20 -39 -20 -12 0 -39 -7 -61 -14 -29 -10 -40 -20 -41 -35 -1 -17 2 -19 12
-10 13 11 60 20 119 23 26 1 30 -3 33 -27 3 -23 6 -26 18 -16 11 9 14 8 14 -5
0 -9 7 -16 15 -16 10 0 15 -10 15 -31 0 -17 4 -28 10 -24 6 3 10 -2 10 -13 0
-10 13 -31 30 -47 27 -26 30 -34 30 -96 0 -51 -5 -72 -20 -92 -11 -14 -20 -29
-20 -34 0 -5 -9 -15 -20 -23 -11 -8 -20 -19 -20 -25 0 -11 -24 -33 -56 -51
-10 -6 -33 -39 -51 -75 -17 -35 -32 -60 -32 -55 -1 5 -8 3 -16 -4 -13 -11 -14
-8 -10 21 4 24 1 20 -9 -13 -15 -51 -13 -101 3 -106 6 -2 11 -24 11 -50 0 -28
6 -52 16 -63 15 -17 15 -20 -5 -45 -12 -15 -21 -35 -21 -45 0 -11 -4 -19 -9
-19 -13 0 -6 -69 7 -82 8 -8 8 -17 0 -31 -7 -14 -7 -22 1 -26 16 -10 2 -101
-15 -101 -7 0 -16 -16 -20 -37 -3 -21 -12 -47 -19 -58 -7 -11 -13 -34 -12 -50
0 -16 -6 -31 -12 -33 -6 -2 -11 -19 -11 -37 0 -21 -7 -38 -17 -45 -17 -11 -17
-11 0 -6 21 7 22 -3 3 -30 -8 -11 -17 -37 -21 -57 -4 -20 -11 -37 -15 -37 -12
0 -70 -110 -70 -132 0 -10 -3 -18 -7 -18 -5 0 -23 -14 -40 -31 -18 -16 -33
-25 -33 -18 0 9 -4 8 -15 -1 -17 -14 -36 -5 -28 15 3 8 0 15 -7 15 -7 0 -10
-8 -7 -20 6 -24 -13 -80 -28 -80 -34 0 -40 -72 -18 -205 4 -22 6 -46 4 -53 -1
-8 3 -20 10 -28 6 -7 9 -21 5 -29 -3 -8 -1 -15 4 -15 6 0 10 -10 10 -23 0 -12
9 -28 21 -35 13 -8 18 -19 14 -31 -4 -14 3 -23 31 -36 19 -9 33 -19 30 -22 -3
-3 1 -15 9 -26 10 -14 11 -25 4 -39 -5 -10 -7 -23 -4 -28 19 -31 -67 20 -112
67 -43 44 -76 55 -87 28 -3 -8 0 -15 6 -15 6 0 3 -9 -6 -19 -20 -22 -14 -38
18 -51 l21 -8 -23 -9 c-21 -8 -22 -11 -8 -22 15 -13 12 -36 -3 -26 -4 2 -19
-18 -32 -45 l-25 -50 -33 30 c-36 33 -42 35 -59 18 -9 -9 -12 -9 -12 0 0 7
-10 12 -22 12 -20 1 -21 2 -8 13 9 7 21 28 26 48 10 33 10 36 -6 32 -12 -3
-19 3 -24 22 -5 20 -12 26 -25 22 -13 -3 -22 3 -30 20 -7 14 -16 22 -24 18 -6
-4 -1 2 12 13 17 14 22 25 16 40 -6 20 -3 22 42 22 l48 1 -25 20 c-23 20 -25
20 -37 3 -12 -16 -13 -16 -13 7 0 32 -26 69 -50 69 -10 0 -20 5 -22 11 -2 7
-16 13 -31 15 -21 2 -27 -2 -27 -17 0 -10 9 -24 20 -31 24 -15 26 -28 5 -28
-13 0 -15 -9 -10 -46 3 -28 1 -52 -6 -60 -9 -11 -6 -16 15 -24 14 -5 26 -14
26 -19 0 -11 -38 -3 -46 10 -3 5 -15 9 -27 10 -21 0 -21 1 -2 10 l20 9 -20 -3
c-15 -2 -19 -9 -17 -30 1 -15 0 -27 -4 -27 -12 0 -44 42 -38 51 3 5 -3 12 -13
16 -10 3 -26 13 -35 21 -14 12 -21 12 -32 3 -8 -7 -19 -10 -25 -7 -5 3 -11 0
-14 -6 -3 -10 -10 -8 -25 6 -22 19 -23 19 -34 -23 -4 -15 -9 -17 -65 -27 -18
-4 -33 -10 -33 -15 0 -5 -12 -9 -27 -9 -27 1 -27 1 -9 15 16 12 17 17 6 30 -7
8 -19 15 -26 15 -18 0 -54 31 -54 47 0 7 -11 13 -25 13 -15 0 -25 6 -25 15 0
8 -6 12 -15 9 -10 -4 -13 1 -12 23 2 21 -2 28 -16 27 -13 -1 -28 19 -54 70
-19 39 -42 75 -49 79 -9 5 -14 25 -14 52 0 32 -4 45 -14 45 -8 0 -17 -6 -19
-12 -4 -10 -6 -10 -6 0 -1 13 29 47 47 53 7 2 9 14 6 25 -4 16 -11 20 -26 16
-11 -3 -24 1 -29 9 -6 10 -9 8 -9 -9 0 -15 -9 -26 -27 -33 -34 -13 -53 -5 -53
22 0 11 -8 35 -17 51 -13 22 -15 32 -6 35 8 3 6 15 -8 40 -34 59 -30 213 5
285 15 29 14 48 -3 48 -12 0 -49 -119 -67 -215 -13 -74 -14 -102 -5 -158 16
-97 66 -219 124 -307 56 -83 391 -422 511 -517 39 -32 94 -79 123 -106 102
-97 326 -258 437 -314 114 -58 310 -105 426 -102 159 4 150 5 181 -32 16 -19
29 -39 29 -45 0 -6 6 -17 14 -23 11 -9 14 4 20 75 6 85 27 145 66 189 33 37
69 140 91 260 26 146 22 286 -15 470 -36 179 -144 466 -258 683 l-48 93 72
110 73 110 75 -7 c41 -3 109 -17 150 -30 41 -13 88 -24 104 -24 16 0 54 -8 84
-17 44 -14 64 -28 101 -72 25 -30 83 -95 129 -145 45 -50 80 -95 79 -101 -2
-5 11 -39 30 -75 18 -36 33 -72 33 -80 0 -13 -1 -13 -10 0 -5 8 -10 11 -10 5
0 -5 9 -21 20 -35 11 -14 20 -30 20 -37 0 -6 5 -15 12 -19 8 -5 9 -2 5 9 -3
10 -2 17 4 17 6 0 8 -11 4 -29 -3 -17 -2 -32 4 -36 6 -3 11 0 12 7 0 7 9 -12
21 -42 12 -30 29 -66 39 -79 11 -13 19 -29 19 -35 0 -6 12 -34 26 -63 27 -52
54 -76 54 -48 0 8 -4 15 -10 15 -5 0 -10 5 -10 10 0 6 -13 40 -30 75 -16 35
-30 73 -30 85 0 11 -9 29 -19 39 -10 10 -22 33 -26 50 -4 17 -11 29 -16 25 -5
-3 -9 4 -9 15 0 12 -4 21 -8 21 -5 0 -27 41 -50 90 -23 50 -47 90 -52 90 -6 0
-10 5 -10 12 0 9 3 9 12 0 9 -9 19 -6 43 17 16 16 54 39 83 52 50 20 59 21
115 10 34 -6 100 -19 146 -27 60 -11 109 -28 170 -60 47 -25 91 -50 98 -57 6
-7 32 -58 57 -115 42 -93 47 -115 61 -240 19 -175 45 -369 55 -407 12 -52 0
-68 -55 -71 -26 -2 -52 -7 -57 -12 -12 -12 11 -52 29 -52 7 0 17 -8 23 -17 8
-15 9 -12 5 12 -5 24 -4 27 5 13 7 -12 8 -28 1 -50 -5 -18 -10 -27 -10 -19 -1
20 -49 61 -71 61 -10 0 -27 -11 -38 -25 -11 -14 -25 -25 -32 -25 -6 0 -8 -4
-5 -10 3 -5 17 -10 31 -10 20 0 24 -5 24 -30 0 -23 -4 -30 -20 -30 -10 0 -24
-9 -30 -20 -6 -11 -18 -20 -26 -20 -10 0 -14 -8 -13 -22 2 -13 -5 -35 -15 -51
-10 -15 -19 -42 -20 -60 -1 -24 -7 -33 -22 -35 -16 -2 -23 6 -34 38 -22 66
-22 39 0 -54 20 -85 26 -123 29 -198 1 -27 6 -38 16 -38 8 0 15 6 15 13 0 7 8
19 18 28 29 26 190 202 224 247 18 23 40 45 50 48 24 7 23 14 -11 61 -75 104
-58 181 57 254 78 50 114 88 152 161 32 62 61 88 89 81 14 -4 19 3 24 34 4 21
7 59 7 84 0 36 6 52 26 72 66 66 263 97 496 78 269 -22 459 -78 547 -160 37
-35 36 -15 7 -216 -19 -132 -19 -145 -4 -145 7 0 54 -20 105 -45 50 -25 96
-45 101 -45 4 0 42 22 83 50 70 47 78 50 139 50 90 0 234 -41 356 -101 56 -27
147 -63 202 -79 95 -27 196 -63 270 -96 18 -7 38 -14 45 -14 7 0 24 -10 36
-21 13 -12 38 -23 55 -25 18 -1 68 -15 111 -30 70 -24 83 -26 122 -16 59 16
72 15 117 -9 22 -11 45 -17 55 -13 9 3 98 8 199 9 162 3 183 1 195 -14 8 -11
28 -18 62 -19 32 -1 52 -7 58 -17 4 -8 17 -15 27 -15 13 0 20 -7 21 -20 2 -30
3 -33 23 -62 10 -16 16 -35 13 -43 -7 -16 17 -45 38 -45 20 0 27 -31 11 -44
-8 -6 -20 -24 -26 -40 -8 -23 -15 -27 -35 -24 -14 3 -25 1 -25 -3 0 -5 6 -9
13 -10 6 0 -10 -11 -38 -24 l-49 -23 -15 21 c-11 15 -12 22 -3 25 7 2 12 16
12 30 l0 27 -25 -28 c-15 -15 -36 -27 -50 -27 -14 0 -33 -8 -44 -19 -10 -10
-24 -20 -32 -23 -22 -7 2 -30 26 -24 25 6 57 -20 38 -32 -12 -8 -12 -54 1 -64
5 -3 -8 -11 -30 -18 -45 -14 -64 -27 -82 -58 -11 -20 -10 -22 13 -22 14 0 25
5 25 11 0 6 9 9 20 6 11 -3 18 -2 15 3 -3 4 5 10 18 14 12 3 23 1 25 -4 2 -6
20 -7 43 -4 26 4 39 3 39 -5 0 -6 -8 -11 -17 -11 -15 0 -14 -2 3 -14 10 -8 16
-17 13 -21 -4 -3 -47 -7 -97 -8 -51 -2 -94 -6 -98 -10 -16 -15 59 -18 248 -10
252 12 293 26 364 128 71 101 81 162 65 361 -15 178 -33 286 -72 426 -54 194
-62 228 -55 235 4 4 38 7 77 8 55 0 73 4 83 18 30 40 94 1 100 -60 2 -16 16
-29 16 -14 0 9 7 8 22 -3 12 -9 33 -16 45 -16 23 0 23 2 23 109 l0 108 -59
-16 c-33 -9 -63 -20 -67 -24 -4 -4 -17 -7 -29 -7 -27 0 -75 -22 -76 -35 0 -5
-4 -1 -9 10 -7 18 -8 18 -15 -7 -7 -27 -19 -33 -58 -30 -10 1 -15 -3 -12 -8 3
-6 -2 -10 -12 -10 -10 0 -30 -8 -43 -17 -30 -22 -162 -81 -210 -95 -19 -5 -39
-14 -45 -18 -11 -9 -147 -50 -161 -49 -5 0 4 6 20 13 l29 13 -49 8 c-31 4 -56
15 -70 30 -12 13 -35 26 -51 29 -15 2 -29 5 -31 5 -2 1 6 14 18 31 25 35 21
45 -24 64 -21 9 -39 27 -50 50 -18 37 -31 45 -39 24 -3 -7 -6 -4 -6 8 -1 26
-137 164 -161 164 -10 0 -20 10 -24 23 -3 12 -14 32 -26 44 -11 12 -20 26 -20
31 0 4 -5 13 -12 20 -10 10 -68 149 -68 164 0 12 -61 98 -69 98 -4 0 -7 74 -7
165 1 127 -2 168 -12 174 -13 8 -52 164 -52 209 0 14 -7 30 -16 37 -14 10 -17
30 -17 111 0 54 6 119 13 144 7 25 14 84 15 132 2 68 7 95 24 123 11 20 21 38
21 41 0 9 -32 3 -44 -8 -69 -72 -99 -191 -116 -463 -5 -71 -13 -173 -20 -225
-6 -52 -15 -131 -21 -175 -5 -44 -14 -111 -19 -150 -6 -38 -15 -122 -21 -185
-8 -77 -16 -118 -25 -123 -8 -4 -14 -13 -14 -20 0 -7 -7 -21 -16 -32 -14 -19
-15 -19 -39 7 -17 18 -25 39 -25 63 0 19 -4 35 -9 35 -5 0 -11 18 -15 39 -3
22 -10 41 -15 43 -10 4 -48 130 -61 203 -5 28 -18 88 -30 134 -24 97 -20 194
11 325 10 43 19 92 19 107 0 16 4 29 9 29 5 0 12 15 16 33 3 17 18 59 32 92
49 114 72 193 112 390 26 126 26 125 -4 125 -36 0 -28 20 17 45 33 17 39 18
63 5 16 -8 37 -36 52 -70 23 -50 74 -110 94 -110 4 0 10 6 13 13 3 6 3 1 0
-13 -4 -14 -10 -27 -13 -30 -4 -3 -17 -18 -29 -34 -25 -33 -29 -66 -7 -66 8 0
15 5 15 10 0 6 7 10 15 10 8 0 15 4 15 9 0 5 33 35 73 66 39 32 78 65 85 74
11 13 14 14 21 2 7 -11 11 -9 20 8 7 11 18 21 26 21 7 0 16 6 18 13 3 7 6 7 6
1 1 -6 -10 -24 -24 -40 -14 -16 -40 -50 -58 -76 -17 -27 -38 -48 -44 -48 -7 0
-13 -9 -13 -20 0 -12 -7 -34 -15 -50 -26 -51 -35 -80 -25 -80 6 0 10 5 10 11
0 6 34 61 76 122 42 60 79 117 82 126 3 9 16 27 29 41 19 20 23 22 23 8 0 -20
-25 -91 -46 -130 -15 -29 -20 -63 -5 -40 15 25 30 -12 41 -104 5 -49 10 -212
10 -361 0 -253 1 -273 18 -273 26 1 50 41 60 106 10 55 7 446 -3 524 -16 127
-19 181 -12 217 6 34 11 40 27 36 12 -3 20 -14 20 -27 1 -23 22 -56 37 -56 5
0 18 -18 29 -40 10 -22 24 -40 29 -40 6 0 21 -24 35 -54 14 -29 28 -49 32 -43
3 6 10 -6 13 -26 4 -20 11 -37 16 -37 5 0 9 -6 9 -14 0 -7 7 -19 16 -26 8 -8
22 -27 29 -44 8 -17 19 -38 24 -46 5 -8 28 -54 51 -101 26 -56 48 -89 61 -92
14 -4 19 -14 19 -40 0 -25 5 -36 19 -40 10 -2 21 -17 25 -33 9 -35 25 -56 37
-48 5 3 9 -3 9 -13 0 -10 16 -36 36 -57 25 -28 34 -46 31 -62 -2 -13 1 -22 6
-21 13 2 30 -115 19 -122 -5 -4 -11 -14 -15 -24 -6 -16 -1 -18 57 -15 60 3 63
2 56 -17 -10 -26 -40 -32 -41 -8 0 14 -2 15 -6 3 -3 -8 -10 -17 -14 -20 -13
-9 4 -135 18 -135 6 0 21 -12 32 -27 13 -16 28 -25 36 -21 11 4 15 -2 15 -21
0 -23 4 -26 38 -26 52 0 65 11 53 42 -5 13 -9 45 -9 69 1 54 -11 109 -23 109
-5 0 -9 6 -9 14 0 7 -7 19 -15 26 -8 7 -15 23 -15 36 0 13 -4 24 -10 24 -5 0
-10 5 -10 11 0 17 -28 40 -35 29 -3 -5 -12 -10 -18 -9 -9 0 -9 2 1 6 6 2 12
14 12 24 0 13 -4 18 -12 13 -8 -5 -9 0 -5 15 4 17 2 21 -9 17 -8 -3 -14 1 -14
9 0 8 -15 38 -33 67 -18 29 -44 78 -57 108 -13 30 -30 62 -37 71 -7 8 -13 20
-13 26 0 6 -16 34 -35 62 -19 28 -35 54 -35 59 0 9 -28 63 -66 130 -11 17 -24
30 -30 28 -7 -3 -9 5 -7 18 3 13 -2 28 -11 35 -9 8 -16 19 -16 27 0 15 -88
170 -119 210 -26 33 -26 48 -2 82 65 94 77 153 49 249 -19 67 -24 74 -59 90
-40 19 -61 54 -61 99 0 15 -11 43 -24 62 -13 19 -24 41 -24 48 0 8 -4 14 -10
14 -5 0 -10 -4 -10 -10 0 -22 -17 -8 -28 23 -15 42 -15 60 0 51 8 -5 9 0 5 17
-4 13 -7 31 -8 39 0 8 -6 -3 -13 -25 l-13 -40 2 68 c1 37 -2 67 -7 67 -4 0 -8
17 -8 38 0 21 -10 78 -21 128 -12 49 -23 112 -24 139 -3 75 -16 147 -31 175
-22 42 -46 130 -49 178 -2 26 -15 104 -29 173 -15 70 -26 148 -26 175 1 111
-1 131 -12 164 -15 44 -15 43 -18 88 l-3 37 -6 -40 -7 -40 -8 39 c-4 22 -4 42
2 45 14 10 22 40 11 47 -6 3 -8 12 -5 20 6 14 -17 78 -25 70 -4 -5 -6 2 -10
52 -1 9 -8 25 -16 34 -8 9 -12 22 -8 27 3 6 2 11 -3 11 -9 0 -37 87 -33 103 2
13 -80 167 -106 197 -13 16 -23 32 -23 37 0 18 -182 184 -196 179 -8 -3 -14
-1 -14 3 0 5 -7 12 -16 15 -8 3 -13 2 -10 -3 7 -11 -35 -3 -117 21 -58 18 -75
19 -115 10 -36 -8 -51 -8 -67 2 -15 10 -25 10 -37 3 -13 -9 -22 -7 -37 7 -12
11 -21 14 -21 8 0 -17 -56 -15 -74 3 -16 17 -26 19 -26 6z m255 -51 c-3 -5
-12 -10 -18 -10 -7 0 -6 4 3 10 19 12 23 12 15 0z m-495 -259 c0 -6 -4 -13
-10 -16 -5 -3 -10 1 -10 9 0 9 5 16 10 16 6 0 10 -4 10 -9z m-32 -29 c4 -14
-34 -16 -42 -3 -6 10 13 21 28 17 6 -1 12 -8 14 -14z m1199 -424 c-3 -8 -6 -5
-6 6 -1 11 2 17 5 13 3 -3 4 -12 1 -19z m-1008 -135 c23 -27 41 -52 41 -58 0
-5 14 -24 32 -42 43 -44 22 -42 -30 3 -43 36 -102 114 -102 133 0 22 19 10 59
-36z m1056 -104 c8 -59 -1 -79 -10 -23 -4 22 -9 47 -12 57 -2 9 0 17 5 17 6 0
13 -23 17 -51z m-605 -795 c11 -20 18 -44 15 -52 -4 -10 -13 -1 -29 29 -20 38
-24 59 -11 59 1 0 13 -16 25 -36z m-116 0 c9 -22 8 -24 -9 -18 -9 4 -15 0 -15
-10 0 -9 -4 -16 -10 -16 -5 0 -10 7 -10 15 0 8 5 15 10 15 6 0 10 7 10 15 0
20 16 19 24 -1z m-1504 -2 c0 -5 -11 -29 -25 -53 -21 -38 -70 -137 -112 -229
-11 -23 -12 -20 -12 28 -1 61 32 136 76 173 16 13 35 39 42 57 12 29 31 44 31
24z m1576 -10 c7 -10 15 -36 18 -59 7 -38 5 -42 -23 -59 -22 -13 -31 -26 -30
-44 0 -14 3 -19 6 -12 2 6 9 12 15 12 7 0 6 -5 -2 -14 -13 -17 -40 -11 -40 9
0 6 -13 12 -29 13 -72 2 -97 51 -47 90 17 12 36 22 43 22 7 0 18 11 25 25 9
21 18 27 48 34 3 0 10 -7 16 -17z m-1610 -159 c-8 -15 -15 -22 -16 -15 0 17
20 55 27 49 2 -3 -2 -18 -11 -34z m2361 -45 c-3 -8 -6 -5 -6 6 -1 11 2 17 5
13 3 -3 4 -12 1 -19z m-2367 -9 c0 -22 -45 -109 -55 -105 -5 2 -9 10 -7 17 2
8 4 21 5 31 1 9 4 15 8 12 4 -2 12 10 18 26 10 29 31 42 31 19z m2450 -87 c13
-47 13 -59 1 -46 -13 12 -31 95 -20 89 4 -3 13 -22 19 -43z m-50 3 c0 -5 -5
-3 -10 5 -5 8 -10 20 -10 25 0 6 5 3 10 -5 5 -8 10 -19 10 -25z m29 -115 l-1
-25 -8 25 c-4 14 -8 32 -9 40 -1 13 0 13 9 0 5 -8 9 -26 9 -40z m34 -83 c31
-87 32 -96 9 -68 -19 23 -42 84 -42 110 0 27 16 7 33 -42z m-2559 18 c-6 -16
-44 -21 -44 -7 0 14 12 22 31 22 12 0 16 -5 13 -15z m2693 -171 c-9 -10 -26 5
-43 39 l-16 32 32 -33 c18 -18 30 -35 27 -38z m2 -110 c25 -30 51 -92 51 -119
0 -23 -3 -27 -10 -15 -8 13 -10 13 -10 -2 0 -9 4 -19 9 -22 14 -9 23 -117 10
-132 -15 -18 -24 -18 -43 1 -12 13 -14 31 -9 98 3 45 11 85 17 89 8 5 7 11 -2
20 -6 6 -12 19 -12 27 0 8 -6 22 -14 30 -16 18 -66 106 -66 116 0 4 16 -13 35
-37 19 -23 39 -48 44 -54z m-56 -26 c16 -54 18 -118 4 -118 -13 0 -18 25 -9
50 6 16 3 38 -10 72 -10 26 -14 48 -9 48 4 0 15 -24 24 -52z m-3246 -20 c-2
-13 -4 -3 -4 22 0 25 2 35 4 23 2 -13 2 -33 0 -45z m3393 -55 c31 -48 37 -77
21 -102 -6 -9 -14 3 -25 40 -10 30 -21 62 -27 71 -10 19 -12 38 -4 38 3 0 19
-21 35 -47z m-2932 -145 c0 -97 6 -164 17 -208 8 -36 17 -72 18 -80 2 -8 9
-25 15 -37 16 -29 15 -33 -8 -33 -22 0 -27 -15 -7 -24 10 -5 10 -7 0 -12 -7
-3 -13 -19 -13 -35 0 -22 -5 -29 -20 -29 -18 0 -20 -7 -20 -80 0 -73 2 -80 20
-80 11 0 20 -6 20 -14 0 -21 28 -28 38 -9 5 9 7 24 5 34 -4 13 14 38 56 81 34
35 61 68 61 75 0 7 3 13 8 13 4 0 18 16 32 36 l24 36 -39 37 c-22 21 -46 53
-52 72 -15 42 -17 119 -3 119 6 0 10 -6 10 -14 0 -8 5 -18 10 -21 8 -5 9 10 4
44 -5 36 -2 60 9 83 8 18 21 59 28 91 7 31 17 57 23 57 10 0 57 -135 71 -205
3 -16 17 -51 30 -77 18 -33 21 -48 12 -52 -9 -3 -9 -7 1 -14 7 -5 10 -16 6
-25 -9 -24 13 -21 26 3 6 11 18 20 26 20 13 0 15 11 12 59 -1 33 0 57 5 54 4
-2 7 -12 7 -22 0 -10 7 -24 15 -31 13 -11 15 -8 15 17 0 16 -3 33 -7 37 -7 6
-33 75 -33 87 0 4 13 12 29 19 34 14 90 5 98 -16 9 -24 57 -17 73 11 27 43 47
9 80 -135 30 -134 60 -238 112 -397 53 -163 58 -185 44 -198 -8 -8 -30 -15
-48 -15 -28 -1 -30 -2 -15 -11 12 -7 16 -17 12 -30 -4 -11 -2 -19 4 -19 6 0
11 6 11 13 0 19 13 34 36 41 16 5 23 2 27 -14 3 -11 -1 -23 -8 -28 -7 -4 -34
-34 -59 -67 -49 -62 -100 -103 -110 -86 -3 5 8 24 25 42 17 18 37 46 46 62 14
28 14 29 -2 23 -9 -3 -21 -6 -26 -6 -5 0 -9 -6 -9 -14 0 -13 -48 -52 -55 -44
-1 2 -7 12 -13 24 -10 18 -8 23 13 32 14 7 25 16 25 21 0 6 7 8 15 5 9 -4 15
0 15 10 0 9 6 16 13 17 9 0 9 2 0 5 -13 6 -61 -22 -79 -45 -6 -8 -16 -11 -22
-7 -8 5 -12 -2 -12 -19 0 -19 -4 -26 -14 -22 -10 4 -16 -8 -21 -49 -3 -29 -4
-58 0 -64 3 -5 2 -10 -4 -10 -5 0 -16 -3 -24 -6 -10 -4 -17 7 -26 40 -10 41
-14 46 -39 46 -21 0 -31 -8 -45 -36 -15 -30 -16 -53 -11 -157 4 -89 2 -140 -9
-190 -8 -37 -11 -70 -6 -73 14 -8 10 -24 -6 -24 -8 0 -15 -9 -15 -19 0 -10 -7
-21 -15 -25 -8 -3 -15 -12 -15 -21 0 -9 -9 -15 -25 -15 -16 0 -25 -6 -25 -15
0 -18 -23 -19 -49 -3 -16 10 -24 6 -57 -25 -22 -20 -42 -37 -46 -37 -5 0 -9
19 -10 43 l-1 42 -4 -42 -4 -43 -47 0 c-50 1 -102 33 -102 64 0 8 -9 17 -19
21 -31 9 -61 -27 -61 -74 l0 -38 -42 11 -43 11 38 3 c36 3 37 4 37 43 0 32 -3
39 -20 39 -18 0 -20 7 -20 63 0 35 -7 116 -16 182 -15 114 -12 180 8 218 6 13
5 17 -7 17 -8 0 -15 5 -15 10 0 6 18 10 40 10 22 0 40 -4 40 -10 0 -5 14 -10
30 -10 27 0 30 3 25 25 -3 14 -7 35 -10 48 -2 12 -13 32 -23 43 -11 11 -25 43
-32 72 -6 29 -17 52 -22 52 -7 0 -9 80 -6 235 3 210 5 236 21 247 16 12 18 32
18 181 -1 103 3 167 9 167 6 0 10 9 10 19 0 28 18 71 29 71 5 0 9 -62 9 -142z
m2812 63 c0 -6 -4 -13 -10 -16 -5 -3 -10 1 -10 9 0 9 5 16 10 16 6 0 10 -4 10
-9z m-990 -92 c-11 -24 -20 -36 -20 -26 0 19 31 79 37 73 2 -2 -6 -23 -17 -47z
m-1220 9 c0 -5 -4 -8 -10 -8 -5 0 -10 10 -10 23 0 18 2 19 10 7 5 -8 10 -18
10 -22z m754 -23 c-4 -8 -11 -15 -16 -15 -6 0 -5 6 2 15 7 8 14 15 16 15 2 0
1 -7 -2 -15z m-1867 -27 c-3 -7 -5 -2 -5 12 0 14 2 19 5 13 2 -7 2 -19 0 -25z
m1973 21 c0 -6 14 -24 30 -41 32 -32 36 -48 19 -79 -7 -14 -16 -18 -30 -14
-15 5 -19 2 -19 -14 0 -32 -17 -25 -24 10 -8 40 -8 113 0 133 7 18 24 22 24 5z
m-2240 -30 c0 -11 -4 -17 -10 -14 -5 3 -10 13 -10 21 0 8 5 14 10 14 6 0 10
-9 10 -21z m260 -18 c0 -16 -12 -41 -20 -41 -4 0 -5 11 -2 25 4 23 22 36 22
16z m-1520 -82 c0 -16 -4 -29 -10 -29 -5 0 -10 16 -10 36 0 21 4 33 10 29 6
-3 10 -19 10 -36z m1503 -53 c-3 -22 -9 -34 -15 -28 -5 5 -6 28 -2 52 5 29 9
38 15 28 5 -8 6 -32 2 -52z m-753 -17 c0 -10 -4 -19 -10 -19 -5 0 -10 12 -10
26 0 14 4 23 10 19 6 -3 10 -15 10 -26z m-873 -121 c-3 -8 -6 -5 -6 6 -1 11 2
17 5 13 3 -3 4 -12 1 -19z m23 -143 c19 -58 34 -66 48 -28 9 24 11 25 11 7 1
-35 28 -37 35 -3 7 36 26 29 26 -8 0 -14 7 -31 16 -38 13 -9 15 -21 9 -62 -6
-45 -10 -52 -33 -56 -15 -3 -28 -2 -29 1 -2 4 -23 6 -47 6 -36 -2 -51 4 -74
25 -33 30 -47 87 -26 108 7 8 11 20 8 27 -3 7 2 16 11 19 11 5 14 14 9 33 -12
48 18 22 36 -31z m2967 -537 c-3 -7 -5 -2 -5 12 0 14 2 19 5 13 2 -7 2 -19 0
-25z m84 -15 c-10 -17 -10 -16 -11 3 0 23 13 41 18 25 2 -6 -1 -18 -7 -28z
m2489 -74 c0 -5 -4 -9 -10 -9 -5 0 -10 7 -10 16 0 8 5 12 10 9 6 -3 10 -10 10
-16z m-2610 -35 c0 -13 -4 -24 -10 -24 -5 0 -10 14 -10 31 0 17 4 28 10 24 6
-3 10 -17 10 -31z m85 -74 c3 -5 2 -10 -4 -10 -9 0 -12 -11 -26 -90 -3 -19
-12 -43 -19 -53 -13 -17 -16 -17 -38 -3 -14 9 -28 13 -31 9 -4 -3 -7 1 -7 9 0
9 16 39 35 68 19 29 35 56 35 60 0 17 45 26 55 10z m-995 -128 c0 -31 -5 -41
-29 -55 -25 -15 -30 -15 -35 -2 -4 10 1 15 14 15 17 0 20 7 20 40 0 29 4 40
15 40 11 0 15 -11 15 -38z m380 -170 c0 -4 -9 -13 -20 -20 -22 -13 -27 -3 -8
16 14 14 28 16 28 4z m2040 -3 c0 -6 8 -23 19 -37 10 -15 33 -61 51 -102 18
-41 44 -90 59 -109 135 -174 212 -302 247 -409 17 -55 22 -59 62 -65 12 -2 26
-7 31 -13 14 -16 40 -103 32 -109 -18 -11 -201 -35 -266 -35 -83 1 -312 24
-321 33 -4 3 6 9 21 13 l28 7 -24 17 c-12 10 -29 15 -37 12 -12 -4 -14 3 -8
39 3 24 11 98 16 164 6 66 14 154 20 195 5 41 9 125 10 186 0 102 4 126 35
212 5 15 25 16 25 1z m-2323 -35 c-3 -3 -12 -4 -19 -1 -8 3 -5 6 6 6 11 1 17
-2 13 -5z m440 0 c-3 -3 -12 -4 -19 -1 -8 3 -5 6 6 6 11 1 17 -2 13 -5z m85
-7 c-12 -6 -27 -5 -38 1 -15 8 -11 10 20 9 32 -1 35 -3 18 -10z m-612 -17 c12
-8 9 -9 -12 -8 -15 1 -24 6 -22 10 7 10 16 10 34 -2z m-2340 -124 c0 -2 -7 -7
-16 -10 -8 -3 -12 -2 -9 4 6 10 25 14 25 6z m-877 -233 c-2 -8 7 -13 22 -13
16 0 25 6 25 15 0 24 48 18 75 -10 16 -15 25 -36 25 -55 0 -16 4 -30 9 -30 15
0 20 27 8 39 -8 8 -7 11 6 11 27 0 46 -48 38 -96 -1 -4 -8 -1 -16 6 -8 7 -24
10 -35 7 -14 -4 -25 1 -33 14 -16 26 -27 24 -27 -6 0 -27 -14 -34 -23 -11 -3
8 -16 16 -29 18 -12 2 -27 13 -33 25 -27 53 -49 73 -85 73 l-35 1 30 14 c36
17 81 15 78 -2z m383 2 c4 -8 13 -15 22 -15 15 0 15 -1 0 -16 -15 -15 -18 -15
-32 -1 -18 18 -21 47 -6 47 6 0 13 -7 16 -15z m-176 -5 c0 -5 -5 -10 -11 -10
-5 0 -7 5 -4 10 3 6 8 10 11 10 2 0 4 -4 4 -10z m230 -70 c0 -11 -4 -20 -10
-20 -5 0 -10 9 -10 20 0 11 5 20 10 20 6 0 10 -9 10 -20z m410 0 c0 -12 -28
-25 -36 -17 -9 9 6 27 22 27 8 0 14 -5 14 -10z m-380 -80 c0 -5 -4 -10 -9 -10
-6 0 -13 5 -16 10 -3 6 1 10 9 10 9 0 16 -4 16 -10z m6162 -42 c54 -31 70 -62
53 -101 -4 -10 -2 -23 5 -32 11 -13 6 -14 -36 -9 -27 4 -56 10 -64 14 -8 5
-51 11 -95 15 -87 8 -115 18 -115 40 0 19 42 40 131 64 90 24 94 24 121 9z
m-6182 -49 c0 -6 -7 -8 -16 -5 -9 3 -18 6 -20 6 -2 0 -4 7 -4 15 0 13 4 14 20
5 11 -6 20 -16 20 -21z m6197 -351 c-3 -8 -6 -5 -6 6 -1 11 2 17 5 13 3 -3 4
-12 1 -19z m-4077 -13 c-7 -8 -20 -15 -30 -15 -10 0 -25 -12 -35 -26 -21 -32
-30 -26 -14 10 8 16 20 26 33 26 12 0 28 5 36 10 21 14 24 12 10 -5z m3987
-536 c17 -17 -9 -39 -44 -39 -22 0 -29 5 -30 20 -1 12 4 20 13 20 8 0 13 -4 9
-9 -8 -14 10 -22 31 -14 16 6 16 7 -2 20 -14 10 -14 13 -3 13 8 0 20 -5 26
-11z"/>
<path d="M7940 4950 c-13 -9 -13 -11 0 -20 15 -10 25 0 18 20 -2 6 -8 6 -18 0z"/>
<path d="M7925 4890 c3 -5 8 -10 11 -10 2 0 4 5 4 10 0 6 -5 10 -11 10 -5 0
-7 -4 -4 -10z"/>
<path d="M6810 3813 c0 -16 5 -35 10 -43 7 -11 9 -3 7 27 -2 47 -17 60 -17 16z"/>
<path d="M8390 1676 c0 -21 25 -54 34 -45 2 2 2 16 -1 31 -7 35 -33 46 -33 14z"/>
<path d="M7045 6625 c-16 -13 -27 -24 -23 -25 9 0 78 40 78 46 0 12 -29 1 -55
-21z"/>
<path d="M6945 6540 c-3 -5 -1 -10 4 -10 6 0 11 5 11 10 0 6 -2 10 -4 10 -3 0
-8 -4 -11 -10z"/>
<path d="M6820 6469 c0 -5 5 -7 10 -4 6 3 10 8 10 11 0 2 -4 4 -10 4 -5 0 -10
-5 -10 -11z"/>
<path d="M7295 6150 c3 -5 8 -10 11 -10 2 0 4 5 4 10 0 6 -5 10 -11 10 -5 0
-7 -4 -4 -10z"/>
<path d="M7360 6064 c0 -5 7 -19 15 -30 8 -10 15 -14 15 -8 0 5 -7 19 -15 30
-8 10 -15 14 -15 8z"/>
<path d="M7460 5941 c0 -5 7 -15 17 -22 15 -13 15 -12 4 9 -12 23 -21 28 -21
13z"/>
<path d="M6583 5753 c-22 -8 -14 -41 15 -63 15 -12 66 -45 115 -75 77 -47 87
-51 87 -33 0 32 -54 92 -123 137 -63 41 -71 44 -94 34z"/>
<path d="M6560 5553 c-15 -6 -30 -23 -30 -35 0 -12 114 -73 140 -74 14 -1 54
-5 89 -9 102 -11 65 17 -88 68 -42 13 -65 27 -69 39 -4 18 -15 21 -42 11z"/>
<path d="M7050 5521 c-29 -20 11 -39 125 -60 61 -12 135 -26 165 -32 60 -12
231 -64 269 -82 13 -7 27 -20 31 -31 6 -19 7 -19 12 2 6 20 -31 77 -49 77 -5
0 -37 17 -73 37 -123 70 -190 88 -335 94 -80 3 -136 1 -145 -5z"/>
<path d="M3700 5492 c-44 -21 -53 -52 -16 -52 29 0 33 -12 11 -34 -22 -21 -18
-44 7 -48 15 -2 24 -13 31 -38 11 -44 35 -72 57 -65 20 6 35 -25 45 -92 4 -24
11 -43 17 -43 7 0 6 -5 -1 -14 -7 -8 -13 -44 -15 -80 -1 -36 1 -60 5 -54 14
22 30 -3 23 -35 -5 -18 -8 -48 -8 -67 -1 -28 -5 -36 -23 -38 -13 -2 -23 1 -23
7 0 6 7 11 15 11 8 0 15 7 15 15 0 10 -10 15 -34 15 -34 0 -34 0 -33 -42 l2
-43 38 3 c26 3 45 -2 58 -13 17 -16 19 -16 25 -1 3 9 17 16 30 16 15 0 24 6
24 15 0 17 -16 20 -25 5 -8 -13 -25 -13 -25 1 0 13 25 39 38 39 5 0 17 10 26
23 12 15 18 18 22 10 3 -7 12 -13 19 -13 8 0 15 -10 17 -22 2 -13 11 -24 21
-26 25 -5 23 44 -3 58 -25 14 -26 36 0 50 10 6 17 16 14 24 -3 8 3 15 14 18
14 4 24 -4 38 -30 10 -20 25 -42 33 -49 10 -11 11 -17 2 -26 -12 -12 -23 -2
-34 28 -3 6 -8 6 -13 2 -11 -11 -8 -77 5 -90 16 -16 13 -27 -7 -27 -19 0 -95
-74 -86 -83 3 -2 -11 -12 -31 -21 -19 -9 -35 -20 -35 -23 0 -3 25 -3 56 0 48
5 57 3 61 -12 3 -13 11 -17 31 -13 35 7 48 21 75 80 18 40 23 64 21 120 -1 39
-7 79 -13 89 -7 13 -9 -1 -6 -51 3 -38 2 -66 -2 -63 -3 4 -7 31 -9 62 -2 30
-8 61 -14 67 -24 29 -93 145 -120 202 -28 59 -55 96 -83 113 -21 13 -57 65
-51 74 9 15 22 10 29 -12 4 -11 9 -18 11 -16 9 8 -19 58 -30 54 -6 -2 -17 2
-24 10 -16 16 -33 8 -25 -12 9 -26 -14 -16 -41 16 -26 31 -35 69 -16 69 23 0
8 40 -20 55 -35 18 -28 18 -70 -3z m45 -30 c2 -25 -10 -29 -19 -6 -9 24 -7 36
6 32 6 -2 12 -14 13 -26z m40 -162 c3 -5 -1 -10 -9 -10 -9 0 -16 5 -16 10 0 6
4 10 9 10 6 0 13 -4 16 -10z m55 -20 c0 -5 -5 -10 -11 -10 -5 0 -7 5 -4 10 3
6 8 10 11 10 2 0 4 -4 4 -10z m54 -45 c18 -23 20 -35 6 -35 -5 0 -10 7 -10 15
0 8 -6 15 -14 15 -7 0 -19 6 -25 14 -9 10 -7 13 8 12 11 0 27 -10 35 -21z m66
-76 c0 -6 -4 -7 -10 -4 -5 3 -10 11 -10 16 0 6 5 7 10 4 6 -3 10 -11 10 -16z
m50 -66 c0 -13 -3 -13 -15 -3 -8 7 -12 16 -9 21 8 13 24 1 24 -18z m-116 -224
c-3 -5 -10 -7 -15 -3 -5 3 -7 10 -3 15 3 5 10 7 15 3 5 -3 7 -10 3 -15z"/>
<path d="M3610 5465 c-7 -9 -10 -18 -7 -21 10 -11 37 5 37 21 0 19 -14 19 -30
0z"/>
<path d="M3850 5424 c0 -11 9 -29 20 -39 17 -15 20 -16 20 -3 0 9 -9 26 -20
39 -19 23 -19 23 -20 3z"/>
<path d="M7045 5413 c-14 -13 -16 -27 -10 -67 3 -28 11 -55 16 -61 7 -7 9 -1
7 17 -2 15 -7 30 -11 34 -4 4 -1 17 6 28 32 50 26 84 -8 49z"/>
<path d="M3639 5416 c-2 -3 -18 -6 -34 -9 -35 -4 -41 -30 -7 -35 23 -4 76 31
65 42 -7 7 -18 8 -24 2z"/>
<path d="M3815 5410 c3 -5 8 -10 11 -10 2 0 4 5 4 10 0 6 -5 10 -11 10 -5 0
-7 -4 -4 -10z"/>
<path d="M7120 5386 c0 -2 7 -6 15 -10 8 -3 15 -1 15 4 0 6 -7 10 -15 10 -8 0
-15 -2 -15 -4z"/>
<path d="M7688 5353 c7 -3 16 -2 19 1 4 3 -2 6 -13 5 -11 0 -14 -3 -6 -6z"/>
<path d="M7090 5330 c0 -10 7 -23 16 -28 8 -5 21 -20 28 -33 8 -17 20 -24 39
-24 15 1 27 -3 27 -8 0 -5 6 -7 14 -4 7 3 18 1 23 -4 15 -15 128 -26 148 -15
13 8 19 8 22 -1 3 -7 12 -13 21 -13 15 0 15 2 2 10 -11 7 -4 10 26 10 22 0 44
3 47 6 15 15 -17 45 -65 59 -58 17 -92 20 -70 6 11 -6 10 -10 -3 -15 -29 -11
-136 14 -195 45 -65 34 -80 36 -80 9z"/>
<path d="M3637 5333 c-17 -16 -6 -54 18 -63 15 -6 25 -17 25 -29 0 -24 26 -35
34 -15 10 25 7 36 -8 31 -9 -4 -12 0 -9 12 2 10 -3 23 -11 30 -9 8 -16 20 -16
27 0 14 -22 19 -33 7z"/>
<path d="M7626 5248 c-3 -13 -6 -37 -6 -55 0 -17 -5 -44 -10 -59 -14 -36 -5
-43 20 -14 29 33 44 97 31 127 -13 29 -27 29 -35 1z"/>
<path d="M3745 5210 c3 -5 8 -10 11 -10 2 0 4 5 4 10 0 6 -5 10 -11 10 -5 0
-7 -4 -4 -10z"/>
<path d="M3751 5164 c0 -11 3 -14 6 -6 3 7 2 16 -1 19 -3 4 -6 -2 -5 -13z"/>
<path d="M6561 5085 l-24 -36 18 -59 c17 -56 35 -79 35 -45 0 23 17 18 24 -7
3 -13 6 -63 7 -113 1 -66 4 -81 9 -55 4 19 8 28 9 20 1 -20 41 -62 83 -88 34
-21 109 -43 211 -63 31 -6 57 -15 57 -21 0 -5 -7 -8 -15 -4 -8 3 -15 1 -15 -4
0 -5 -7 -7 -15 -4 -9 4 -18 -1 -21 -10 -4 -9 -14 -16 -23 -15 -21 3 -51 -11
-51 -22 0 -40 223 41 302 109 18 16 41 31 51 35 46 17 4 41 -180 102 -116 39
-125 41 -117 21 4 -9 -3 -16 -18 -18 -18 -3 -14 -7 22 -17 25 -7 50 -17 57
-23 6 -5 17 -8 25 -7 29 3 38 -2 38 -23 0 -21 0 -21 21 -2 19 17 22 17 32 3 9
-12 16 -14 29 -6 12 8 21 7 32 -2 15 -12 14 -15 -11 -28 -18 -9 -30 -10 -37
-3 -7 7 -16 4 -28 -12 -17 -23 -17 -23 -32 -3 l-15 20 -7 -20 c-14 -37 -61
-51 -49 -15 12 37 -7 45 -31 15 -22 -28 -24 -28 -42 -11 -13 11 -22 14 -27 7
-4 -8 -12 -8 -26 0 -11 5 -25 9 -32 6 -24 -8 -112 51 -141 93 -27 40 -29 46
-18 84 8 30 8 43 -1 48 -6 4 -8 10 -5 14 8 7 74 -21 83 -36 3 -6 14 -10 23
-10 28 1 -38 49 -77 56 -71 14 -115 85 -86 140 29 55 12 62 -24 9z m544 -436
c-22 -10 -51 -18 -65 -18 -18 0 -12 6 25 19 65 24 91 24 40 -1z"/>
<path d="M7000 5068 c0 -18 -7 -45 -14 -60 -17 -33 -5 -37 25 -7 14 14 19 30
17 56 -4 48 -28 57 -28 11z"/>
<path d="M6760 4981 c0 -10 51 -22 63 -14 4 2 5 9 2 14 -8 12 -65 12 -65 0z"/>
<path d="M3710 4888 c0 -16 5 -28 10 -28 13 0 13 20 0 40 -8 12 -10 9 -10 -12z"/>
<path d="M3534 4833 c-4 -16 -17 -46 -30 -69 -13 -22 -24 -46 -24 -53 0 -6 -8
-23 -17 -37 -9 -14 -18 -36 -19 -47 -1 -12 -9 -55 -18 -96 -10 -48 -12 -79 -6
-90 7 -13 10 -10 10 14 1 29 2 29 16 -10 10 -27 15 -75 15 -144 0 -57 2 -107
5 -112 3 -5 15 0 26 11 12 11 28 20 35 20 18 0 16 17 -2 24 -23 8 -18 32 15
69 17 19 30 42 30 51 0 20 39 36 89 36 27 0 44 7 61 25 13 14 32 25 42 25 16
0 17 2 6 14 -9 9 -20 11 -36 5 -30 -12 -85 -11 -97 0 -6 5 -30 6 -55 2 -25 -4
-64 -5 -88 -3 l-43 4 22 24 c14 15 43 28 81 35 37 7 62 18 68 29 5 10 27 20
48 24 38 6 39 7 38 44 -1 35 -23 72 -42 72 -4 0 -13 -8 -21 -17 -12 -16 -13
-16 -9 7 19 103 16 126 -12 98 -9 -9 -12 -9 -12 0 0 14 -49 72 -61 72 -5 0
-12 -12 -15 -27z"/>
<path d="M3760 4741 c0 -5 -3 -18 -7 -28 -6 -17 -6 -17 10 -1 19 18 22 38 7
38 -5 0 -10 -4 -10 -9z"/>
<path d="M4170 4655 c0 -8 4 -15 10 -15 5 0 7 7 4 15 -4 8 -8 15 -10 15 -2 0
-4 -7 -4 -15z"/>
<path d="M3963 4623 c-18 -2 -33 -8 -33 -13 0 -17 12 -40 21 -40 5 0 18 -9 29
-20 23 -23 65 -28 57 -6 -3 8 -9 31 -13 50 -3 20 -11 35 -18 34 -6 0 -26 -3
-43 -5z"/>
<path d="M3730 4610 c-9 -6 -10 -10 -3 -10 6 0 15 5 18 10 8 12 4 12 -15 0z"/>
<path d="M4215 4589 c-4 -12 -2 -26 4 -32 8 -8 11 -2 11 21 0 37 -6 41 -15 11z"/>
<path d="M3837 4580 c-14 -39 -14 -59 1 -65 22 -8 25 0 15 42 -6 23 -12 32
-16 23z"/>
<path d="M3785 4560 c4 -6 11 -8 16 -5 14 9 11 15 -7 15 -8 0 -12 -5 -9 -10z"/>
<path d="M6808 4553 c6 -2 18 -2 25 0 6 3 1 5 -13 5 -14 0 -19 -2 -12 -5z"/>
<path d="M3665 4540 c-12 -20 5 -48 25 -43 27 7 28 53 1 53 -11 0 -23 -5 -26
-10z"/>
<path d="M4176 4531 c-4 -6 -3 -18 2 -27 8 -15 10 -14 16 2 8 20 -8 42 -18 25z"/>
<path d="M8896 4491 c-3 -5 1 -11 9 -15 8 -3 15 -1 15 4 0 13 -18 22 -24 11z"/>
<path d="M4350 4360 c0 -5 5 -10 10 -10 6 0 10 5 10 10 0 6 -4 10 -10 10 -5 0
-10 -4 -10 -10z"/>
<path d="M43 4340 c-3 -11 -11 -20 -18 -20 -16 0 -24 -37 -24 -113 l1 -59 22
44 c13 23 27 65 30 92 4 27 10 55 13 62 3 8 0 14 -7 14 -6 0 -14 -9 -17 -20z"/>
<path d="M9030 4289 c0 -8 7 -24 15 -35 18 -24 19 -7 0 26 -9 16 -14 19 -15 9z"/>
<path d="M2959 4263 c-5 -16 -14 -40 -20 -54 -6 -15 -9 -40 -7 -55 l3 -29 17
31 c17 32 36 134 24 134 -4 0 -11 -12 -17 -27z"/>
<path d="M2907 4096 c-6 -16 2 -28 14 -20 12 7 11 34 0 34 -5 0 -11 -6 -14
-14z"/>
<path d="M8320 3925 c0 -65 3 -85 14 -85 15 0 26 49 26 116 0 38 -11 54 -36
54 -2 0 -4 -38 -4 -85z"/>
<path d="M2852 3988 c-7 -7 -12 -16 -12 -21 0 -5 -6 -14 -13 -21 -9 -9 -11
-30 -7 -66 4 -42 10 -57 32 -73 29 -21 115 -39 124 -26 3 5 -5 21 -16 37 -12
16 -24 49 -27 73 -3 24 -11 49 -18 54 -7 6 -15 20 -19 33 -8 24 -26 28 -44 10z"/>
<path d="M3905 3859 c-4 -6 -5 -12 -2 -15 2 -3 7 2 10 11 7 17 1 20 -8 4z"/>
<path d="M7391 3856 c-8 -10 -9 -16 -1 -21 5 -3 10 -2 10 4 0 6 8 8 18 5 10
-4 13 -2 7 3 -5 4 -13 12 -16 16 -3 4 -12 1 -18 -7z"/>
<path d="M2530 3853 c0 -6 4 -13 9 -15 5 -1 12 -24 16 -50 6 -40 5 -48 -9 -48
-17 0 -22 -15 -7 -24 5 -3 11 -15 14 -26 5 -19 2 -21 -26 -14 l-31 6 19 -28
c10 -16 25 -40 34 -53 19 -30 134 -83 170 -79 18 2 26 -2 26 -12 0 -8 4 -21 9
-28 15 -24 -13 -39 -84 -46 -70 -6 -120 -22 -120 -38 0 -4 9 -8 20 -8 26 0 70
-28 70 -45 0 -29 82 -41 120 -18 32 20 85 76 82 86 -1 4 6 11 15 14 9 4 27 18
39 32 l22 26 -20 28 c-11 15 -33 34 -49 42 -16 9 -49 36 -74 60 -47 48 -55 51
-72 34 -7 -7 -12 -1 -17 23 -5 22 -20 43 -46 63 -22 17 -42 37 -45 45 -9 23
-64 86 -65 73z"/>
<path d="M3000 3803 c0 -28 16 -47 34 -40 9 4 16 18 16 32 0 20 -5 25 -25 25
-17 0 -25 -5 -25 -17z"/>
<path d="M4480 3789 c0 -5 5 -7 10 -4 6 3 10 8 10 11 0 2 -4 4 -10 4 -5 0 -10
-5 -10 -11z"/>
<path d="M2490 3760 c0 -11 5 -20 10 -20 6 0 10 9 10 20 0 11 -4 20 -10 20 -5
0 -10 -9 -10 -20z"/>
<path d="M2810 3770 c0 -5 12 -17 26 -26 22 -15 27 -15 34 -3 7 10 2 17 -13
26 -27 15 -47 16 -47 3z"/>
<path d="M4400 3742 c0 -8 9 -12 22 -10 30 4 33 23 3 23 -14 0 -25 -6 -25 -13z"/>
<path d="M4353 3713 c9 -2 25 -2 35 0 9 3 1 5 -18 5 -19 0 -27 -2 -17 -5z"/>
<path d="M4290 3683 c0 -11 5 -11 20 -3 11 6 20 12 20 13 0 2 -9 3 -20 3 -11
0 -20 -6 -20 -13z"/>
<path d="M8585 3620 c-39 -77 -71 -260 -45 -260 5 0 12 12 15 28 3 15 17 61
31 102 13 41 24 81 24 88 0 7 7 20 16 29 17 17 15 54 -3 60 -7 3 -24 -19 -38
-47z"/>
<path d="M6 3643 c-4 -9 -6 -557 -5 -1217 1 -1068 3 -1204 17 -1231 11 -22 16
-63 16 -155 1 -69 5 -130 8 -136 4 -6 10 -59 13 -119 3 -59 7 -111 10 -114 2
-4 6 -31 10 -61 3 -30 10 -77 15 -105 6 -27 12 -77 14 -110 3 -33 12 -80 21
-105 12 -32 15 -63 11 -112 -3 -38 -1 -70 5 -73 5 -4 6 -11 3 -17 -4 -6 -1
-13 5 -17 6 -4 13 -22 14 -39 2 -30 4 -32 43 -32 l41 0 -4 92 c-4 73 -13 118
-43 208 -21 63 -43 140 -49 170 -17 91 -49 543 -55 790 -1 47 -4 90 -6 95 -1
6 -4 17 -4 25 -1 8 -5 44 -9 80 -4 36 -9 116 -12 178 -2 62 -7 117 -10 123 -4
5 -1 16 5 24 9 11 9 19 2 28 -6 7 -11 62 -12 122 -1 61 -3 150 -4 198 -2 48 0
89 3 91 3 2 7 42 9 88 3 62 -1 95 -13 126 -13 33 -15 45 -6 56 9 11 9 19 -1
36 -11 17 -11 22 1 29 10 6 10 10 1 16 -8 5 -7 12 5 25 10 11 12 20 7 24 -10
6 -1 48 19 88 5 10 4 18 -3 20 -14 5 -12 97 2 134 6 15 5 24 -2 26 -8 3 -9 11
-3 24 10 23 12 30 25 114 8 47 7 72 -1 93 -10 24 -9 30 6 41 10 7 15 18 11 25
-4 6 -2 18 4 26 9 11 9 19 2 28 -7 8 -6 35 3 86 7 40 10 82 8 91 -3 10 5 28
17 40 20 20 20 23 6 39 -13 14 -13 20 -3 30 9 10 8 15 -5 25 -20 15 -24 36 -6
36 6 0 3 9 -7 20 -14 15 -26 19 -46 15 -22 -5 -29 -2 -34 14 -8 25 -30 27 -39
4z"/>
<path d="M3133 3638 c2 -21 -2 -23 -35 -21 -21 1 -38 -2 -38 -8 0 -5 -12 -22
-26 -36 -21 -21 -25 -32 -19 -59 3 -18 11 -36 17 -40 10 -7 10 5 -4 66 -4 18
58 51 80 43 12 -5 12 -8 -5 -14 -27 -10 -48 -61 -34 -86 24 -46 38 -47 66 -4
15 25 33 41 44 41 35 0 35 37 1 90 -35 54 -51 63 -47 28z"/>
<path d="M3076 3422 c-3 -6 -1 -14 5 -17 15 -10 25 3 12 16 -7 7 -13 7 -17 1z"/>
<path d="M160 3409 c0 -5 5 -7 10 -4 6 3 10 8 10 11 0 2 -4 4 -10 4 -5 0 -10
-5 -10 -11z"/>
<path d="M2875 3410 c-3 -5 -3 -10 0 -10 3 0 -1 -10 -9 -22 -22 -32 -20 -39 8
-26 28 12 38 31 30 53 -7 17 -20 20 -29 5z"/>
<path d="M2478 3373 c-10 -2 -18 -9 -18 -14 0 -13 47 -86 60 -94 6 -4 8 -15 5
-25 -5 -15 8 -29 56 -65 64 -45 62 -58 -5 -30 -38 16 -47 7 -20 -19 27 -28
144 -21 144 7 0 17 -39 53 -67 61 -12 4 -32 23 -43 42 -12 18 -25 34 -30 34
-4 0 -6 9 -3 20 6 22 -33 91 -50 89 -7 -1 -20 -3 -29 -6z"/>
<path d="M2120 3349 c0 -5 5 -30 11 -54 12 -46 33 -54 24 -9 -3 13 -7 35 -10
49 -5 24 -25 36 -25 14z"/>
<path d="M9191 3344 c0 -11 3 -14 6 -6 3 7 2 16 -1 19 -3 4 -6 -2 -5 -13z"/>
<path d="M2791 3301 c-36 -19 -31 -34 5 -21 21 8 40 28 33 35 -2 2 -19 -5 -38
-14z"/>
<path d="M2270 3257 c0 -20 63 -137 74 -137 8 0 17 -11 20 -25 4 -15 14 -25
24 -25 10 0 22 -4 28 -9 5 -5 20 -12 34 -16 25 -8 25 -7 7 13 -10 11 -30 25
-45 31 -16 7 -47 42 -76 87 -43 66 -66 94 -66 81z"/>
<path d="M2740 3251 c0 -15 48 -41 75 -41 14 0 34 5 44 12 18 11 18 12 -6 25
-28 15 -113 18 -113 4z"/>
<path d="M2713 3186 c33 -30 29 -29 62 -14 33 15 32 23 -2 23 -16 0 -41 4 -58
9 l-30 8 28 -26z"/>
<path d="M3090 3167 c0 -8 3 -17 7 -21 4 -4 8 -22 9 -39 0 -18 4 -40 8 -49 7
-16 4 -17 -22 -12 -28 6 -32 3 -46 -31 -20 -46 -20 -56 -2 -80 12 -17 18 -18
40 -7 14 6 26 8 26 4 0 -12 -43 -35 -80 -43 l-35 -7 42 -1 c34 -1 49 5 75 28
28 25 33 36 34 77 0 27 -3 60 -7 74 -4 14 -13 46 -20 73 -13 44 -29 64 -29 34z"/>
<path d="M2120 3131 c0 -13 29 -41 42 -41 7 0 1 11 -12 25 -26 27 -30 30 -30
16z"/>
<path d="M1975 3114 c32 -16 71 -61 61 -71 -3 -3 -19 6 -36 21 -41 34 -60 34
-23 0 22 -20 23 -23 6 -15 -27 14 -36 14 -28 1 3 -6 -1 -7 -9 -4 -10 4 -16 1
-16 -7 0 -11 -3 -11 -10 1 -5 8 -10 10 -10 4 0 -7 -11 -15 -24 -18 -14 -3 -31
-12 -38 -19 -7 -7 -25 -20 -40 -30 -23 -14 -28 -25 -28 -57 0 -22 4 -40 10
-40 22 0 168 -156 179 -192 7 -21 16 -40 21 -43 9 -6 24 -73 21 -93 -1 -8 4
-23 12 -35 19 -30 37 -107 37 -159 0 -25 7 -54 17 -68 25 -35 25 -88 1 -96
-30 -9 -15 -29 20 -26 17 2 44 -4 61 -12 41 -22 42 -21 20 24 -10 21 -19 49
-19 61 0 11 -18 74 -39 138 -22 64 -43 133 -47 153 -3 21 -22 64 -41 95 -35
59 -43 93 -28 127 6 14 5 17 -3 12 -45 -28 66 112 152 192 20 19 36 41 36 49
0 13 -2 13 -17 2 -14 -12 -16 -12 -9 1 4 8 1 7 -7 -3 -11 -13 -17 -15 -23 -6
-4 7 0 17 9 24 9 7 14 15 10 18 -10 11 -25 8 -18 -3 15 -25 -19 -6 -55 30 -39
39 -65 55 -40 25 8 -10 9 -15 2 -15 -6 0 -15 6 -19 13 -10 15 -49 37 -65 36
-7 0 1 -7 17 -15z m80 -94 c3 -5 1 -10 -4 -10 -6 0 -11 5 -11 10 0 6 2 10 4
10 3 0 8 -4 11 -10z m55 -30 c0 -5 -4 -10 -10 -10 -5 0 -10 5 -10 10 0 6 5 10
10 10 6 0 10 -4 10 -10z"/>
<path d="M9361 3054 c0 -11 3 -14 6 -6 3 7 2 16 -1 19 -3 4 -6 -2 -5 -13z"/>
<path d="M2591 3041 c-8 -6 -9 -11 -3 -15 6 -3 14 -1 17 5 9 14 2 20 -14 10z"/>
<path d="M8800 3005 c0 -10 7 -15 18 -13 21 4 19 22 -2 26 -10 2 -16 -3 -16
-13z"/>
<path d="M9380 3000 c0 -8 5 -22 10 -30 9 -13 10 -13 10 0 0 8 -5 22 -10 30
-9 13 -10 13 -10 0z"/>
<path d="M3943 2983 c15 -2 39 -2 55 0 15 2 2 4 -28 4 -30 0 -43 -2 -27 -4z"/>
<path d="M3990 2873 c0 -6 8 -17 18 -24 16 -13 16 -13 2 6 -8 11 -16 22 -17
24 -2 2 -3 0 -3 -6z"/>
<path d="M4055 2800 c3 -5 8 -10 11 -10 2 0 4 5 4 10 0 6 -5 10 -11 10 -5 0
-7 -4 -4 -10z"/>
<path d="M4641 2791 c-1 -17 39 -84 46 -77 3 3 -4 17 -14 33 -11 15 -23 35
-26 43 -4 12 -6 12 -6 1z"/>
<path d="M4095 2780 c3 -5 8 -10 11 -10 2 0 4 5 4 10 0 6 -5 10 -11 10 -5 0
-7 -4 -4 -10z"/>
<path d="M4130 2762 c0 -11 48 -52 60 -52 6 0 -3 14 -20 30 -32 31 -40 36 -40
22z"/>
<path d="M7148 2640 c3 -61 7 -80 18 -80 16 0 17 25 8 108 -11 85 -30 64 -26
-28z"/>
<path d="M9691 2704 c0 -11 3 -14 6 -6 3 7 2 16 -1 19 -3 4 -6 -2 -5 -13z"/>
<path d="M4215 2700 c3 -5 11 -10 16 -10 6 0 7 5 4 10 -3 6 -11 10 -16 10 -6
0 -7 -4 -4 -10z"/>
<path d="M4840 2690 c0 -5 5 -10 11 -10 5 0 7 5 4 10 -3 6 -8 10 -11 10 -2 0
-4 -4 -4 -10z"/>
<path d="M9710 2666 c0 -7 6 -19 14 -25 11 -9 12 -6 8 14 -5 26 -22 35 -22 11z"/>
<path d="M4154 2648 c-4 -6 -3 -8 4 -4 6 3 13 2 17 -4 3 -5 11 -10 17 -10 7 0
6 6 -2 15 -15 18 -26 19 -36 3z"/>
<path d="M4900 2642 c0 -16 104 -112 120 -112 10 1 4 10 -15 26 -16 14 -47 41
-67 60 -21 19 -38 31 -38 26z"/>
<path d="M9692 2620 c0 -14 2 -19 5 -12 2 6 2 18 0 25 -3 6 -5 1 -5 -13z"/>
<path d="M9740 2613 c0 -14 49 -88 50 -76 0 17 -33 82 -42 83 -5 0 -8 -3 -8
-7z"/>
<path d="M4115 2601 c-3 -5 -1 -12 5 -16 5 -3 10 1 10 9 0 18 -6 21 -15 7z"/>
<path d="M4240 2601 c0 -5 5 -13 10 -16 6 -3 10 -2 10 4 0 5 -4 13 -10 16 -5
3 -10 2 -10 -4z"/>
<path d="M4185 2580 c-3 -5 1 -10 10 -10 9 0 13 5 10 10 -3 6 -8 10 -10 10 -2
0 -7 -4 -10 -10z"/>
<path d="M2305 2571 c-3 -5 -1 -12 5 -16 5 -3 10 1 10 9 0 18 -6 21 -15 7z"/>
<path d="M4916 2562 c-9 -16 6 -82 19 -82 8 0 18 -12 24 -27 8 -22 9 -14 4 37
-5 59 -14 79 -35 80 -4 0 -9 -4 -12 -8z"/>
<path d="M4175 2520 c-3 -5 1 -10 10 -10 9 0 13 5 10 10 -3 6 -8 10 -10 10 -2
0 -7 -4 -10 -10z"/>
<path d="M4861 2475 c1 -19 18 -51 18 -35 0 8 -4 22 -9 30 -5 8 -9 11 -9 5z"/>
<path d="M9836 2460 c8 -31 10 -33 24 -28 8 2 4 13 -10 28 l-21 25 7 -25z"/>
<path d="M9880 2469 c0 -5 5 -7 10 -4 6 3 10 8 10 11 0 2 -4 4 -10 4 -5 0 -10
-5 -10 -11z"/>
<path d="M1625 2421 c7 -22 -13 -40 -25 -22 -4 8 -17 10 -34 5 -25 -6 -28 -10
-24 -45 2 -25 -1 -39 -8 -39 -13 0 -28 -65 -18 -81 3 -6 -2 -16 -11 -23 -16
-11 -16 -15 -1 -50 14 -33 18 -85 16 -184 0 -12 9 -33 21 -45 l21 -22 -7 56
c-9 72 1 92 102 195 60 61 91 86 136 103 31 13 57 28 57 33 0 19 -35 68 -52
74 -10 3 -32 17 -50 32 l-31 26 13 -24 c7 -14 24 -35 38 -46 28 -25 22 -44
-13 -44 -45 0 -74 22 -97 72 -21 46 -46 68 -33 29z"/>
<path d="M5056 2421 c-4 -7 -5 -15 -2 -18 9 -9 19 4 14 18 -4 11 -6 11 -12 0z"/>
<path d="M9761 2414 c0 -11 3 -14 6 -6 3 7 2 16 -1 19 -3 4 -6 -2 -5 -13z"/>
<path d="M4990 2407 c0 -6 16 -57 35 -111 34 -95 47 -158 23 -108 -6 12 -15
22 -20 22 -11 0 -10 -7 2 -31 7 -11 7 -26 2 -35 -12 -21 4 -128 25 -167 9 -18
24 -52 33 -76 23 -66 36 -62 45 13 7 69 -2 176 -15 176 -4 0 -4 16 0 35 4 19
5 34 1 33 -28 -3 -32 4 -26 42 5 31 4 40 -6 38 -8 -2 -15 8 -17 22 -2 14 -8
30 -12 35 -5 6 -11 27 -15 48 -4 20 -11 37 -15 37 -5 0 -12 9 -15 20 -7 22
-25 27 -25 7z m100 -417 c0 -11 -2 -20 -4 -20 -2 0 -6 9 -9 20 -3 11 -1 20 4
20 5 0 9 -9 9 -20z"/>
<path d="M9660 2410 c0 -5 5 -10 10 -10 6 0 10 5 10 10 0 6 -4 10 -10 10 -5 0
-10 -4 -10 -10z"/>
<path d="M9868 2403 c5 -10 18 -36 28 -58 10 -22 21 -42 24 -45 4 -3 22 -35
40 -72 18 -38 34 -68 36 -68 1 0 3 54 3 120 l1 120 -40 0 c-37 0 -40 -2 -41
-27 0 -19 -3 -23 -7 -13 -13 28 -37 60 -45 60 -4 0 -4 -8 1 -17z"/>
<path d="M4901 2348 c-1 -32 27 -108 40 -108 5 0 9 -7 9 -17 0 -9 3 -14 6 -10
4 3 -4 32 -16 64 -41 105 -39 101 -39 71z"/>
<path d="M3120 2328 c0 -19 2 -20 10 -8 13 19 13 30 0 30 -5 0 -10 -10 -10
-22z"/>
<path d="M9778 2343 c-27 -7 -21 -23 7 -23 14 0 25 4 25 9 0 13 -12 18 -32 14z"/>
<path d="M3197 2310 c-3 -11 -1 -20 4 -20 5 0 9 9 9 20 0 11 -2 20 -4 20 -2 0
-6 -9 -9 -20z"/>
<path d="M5070 2315 c0 -8 2 -15 4 -15 2 0 6 7 10 15 3 8 1 15 -4 15 -6 0 -10
-7 -10 -15z"/>
<path d="M9735 2250 c-3 -5 1 -10 9 -10 9 0 16 5 16 10 0 6 -4 10 -9 10 -6 0
-13 -4 -16 -10z"/>
<path d="M9680 2230 c0 -5 7 -7 15 -4 8 4 15 8 15 10 0 2 -7 4 -15 4 -8 0 -15
-4 -15 -10z"/>
<path d="M4231 2204 c0 -11 3 -14 6 -6 3 7 2 16 -1 19 -3 4 -6 -2 -5 -13z"/>
<path d="M4390 2201 c0 -5 5 -13 10 -16 6 -3 10 -2 10 4 0 5 -4 13 -10 16 -5
3 -10 2 -10 -4z"/>
<path d="M4250 2154 c0 -5 7 -18 15 -28 8 -11 15 -16 15 -10 0 5 -7 18 -15 28
-8 11 -15 16 -15 10z"/>
<path d="M4310 2152 c0 -12 19 -26 26 -19 2 2 -2 10 -11 17 -9 8 -15 8 -15 2z"/>
<path d="M4376 2143 c-6 -14 -5 -15 5 -6 7 7 10 15 7 18 -3 3 -9 -2 -12 -12z"/>
<path d="M9840 2144 c0 -8 5 -12 10 -9 6 3 10 10 10 16 0 5 -4 9 -10 9 -5 0
-10 -7 -10 -16z"/>
<path d="M3252 2133 c-15 -6 -6 -23 14 -23 8 0 14 7 14 15 0 15 -6 17 -28 8z"/>
<path d="M3445 2130 c3 -5 11 -10 16 -10 6 0 7 5 4 10 -3 6 -11 10 -16 10 -6
0 -7 -4 -4 -10z"/>
<path d="M4290 2091 c0 -6 4 -13 10 -16 6 -3 7 1 4 9 -7 18 -14 21 -14 7z"/>
<path d="M9738 2083 c7 -3 16 -2 19 1 4 3 -2 6 -13 5 -11 0 -14 -3 -6 -6z"/>
<path d="M5556 1972 c-2 -4 -1 -14 5 -22 7 -12 9 -10 9 8 0 23 -5 28 -14 14z"/>
<path d="M1246 1925 c4 -22 8 -79 9 -126 1 -47 8 -96 15 -109 7 -13 15 -64 18
-113 8 -136 23 -83 26 91 2 129 0 150 -16 171 -10 13 -18 31 -18 40 -1 9 -10
32 -21 51 l-20 35 7 -40z"/>
<path d="M4286 1911 c-4 -7 -5 -15 -2 -18 9 -9 19 4 14 18 -4 11 -6 11 -12 0z"/>
<path d="M6347 1913 c-13 -13 -7 -32 8 -27 8 4 15 12 15 20 0 15 -12 19 -23 7z"/>
<path d="M4280 1855 c0 -8 2 -15 4 -15 2 0 6 7 10 15 3 8 1 15 -4 15 -6 0 -10
-7 -10 -15z"/>
<path d="M6182 1827 c-4 -37 -118 -176 -167 -203 -11 -7 -16 -15 -12 -20 4 -5
17 -3 27 4 11 7 26 12 34 12 8 0 26 14 39 32 21 26 28 30 41 19 12 -10 17 -8
31 12 12 19 15 43 12 93 -1 38 -4 61 -5 51z"/>
<path d="M5360 1820 c0 -5 10 -10 23 -10 18 0 19 2 7 10 -19 13 -30 13 -30 0z"/>
<path d="M4322 1728 c2 -6 10 -14 16 -16 7 -2 10 2 6 12 -7 18 -28 22 -22 4z"/>
<path d="M6513 1705 c-13 -5 -23 -19 -23 -30 -1 -22 -46 -83 -55 -74 -6 7 15
72 26 79 12 8 -7 34 -19 26 -5 -3 -20 -25 -32 -48 -12 -24 -27 -47 -34 -53 -7
-5 -20 -25 -30 -42 -9 -18 -27 -49 -41 -69 -29 -43 -34 -104 -9 -104 8 0 23
-7 32 -16 14 -15 16 -14 24 7 12 32 15 34 32 20 11 -9 29 4 94 64 44 42 85 89
92 105 l12 30 91 0 91 0 -28 -29 c-22 -23 -27 -36 -22 -55 3 -14 4 -37 0 -51
-6 -25 -28 -34 -37 -15 -3 6 -4 5 -3 -2 4 -18 -73 -87 -104 -93 -14 -3 -46
-10 -71 -16 -25 -5 -58 -7 -73 -3 -20 5 -26 3 -26 -11 0 -9 -4 -14 -10 -10 -5
3 -16 -5 -25 -19 -18 -27 -12 -47 23 -79 21 -19 19 -40 -7 -136 -11 -38 -10
-49 6 -80 10 -20 24 -40 31 -44 15 -10 16 -41 2 -67 -16 -29 -97 -73 -133 -72
-18 1 -41 -2 -52 -7 -49 -22 -123 -44 -155 -46 -19 -2 -41 -3 -48 -4 -7 0 -28
-25 -46 -53 -36 -57 -68 -88 -89 -88 -7 0 -23 -7 -35 -16 -19 -13 -21 -19 -11
-30 7 -8 18 -13 26 -10 21 8 16 -28 -7 -49 -11 -10 -20 -28 -20 -41 0 -32 -39
-53 -55 -30 -7 9 -17 16 -24 16 -6 0 -11 5 -11 10 0 6 -7 10 -15 10 -8 0 -15
6 -15 14 0 28 -19 26 -48 -3 -22 -24 -33 -29 -53 -23 -34 10 -69 35 -69 49 0
17 45 63 62 63 7 0 31 20 51 45 65 77 8 50 -91 -44 -24 -23 -47 -41 -51 -41
-4 0 -13 -12 -19 -26 -15 -30 3 -54 40 -54 37 0 52 -14 33 -30 -9 -8 -15 -27
-14 -54 2 -65 -7 -130 -20 -134 -6 -2 -11 -11 -11 -20 -1 -39 -56 -78 -97 -67
-14 3 -36 19 -49 35 l-24 28 -41 -16 c-32 -12 -45 -13 -60 -4 -10 7 -28 12
-38 12 -11 0 -22 4 -25 9 -4 5 -26 16 -50 24 -25 9 -61 27 -82 41 -21 14 -40
23 -42 21 -3 -3 17 -29 44 -59 27 -29 78 -86 114 -126 36 -40 75 -84 87 -97
l22 -23 1876 0 c1031 0 1875 3 1875 6 0 3 -7 12 -15 20 -8 9 -15 27 -15 40 0
14 -4 23 -9 20 -5 -3 -12 5 -15 19 -9 35 -22 31 -52 -15 -15 -22 -29 -39 -31
-37 -1 2 1 28 7 57 13 67 13 127 0 135 -16 10 -12 35 6 35 11 0 14 5 10 16 -3
9 -6 18 -6 20 0 2 -12 4 -26 4 -24 0 -25 -3 -19 -27 5 -22 4 -26 -6 -16 -10
10 -10 26 -1 76 7 36 12 75 12 88 -1 21 -2 22 -11 7 -16 -29 -42 -23 -36 8 3
19 1 24 -10 20 -11 -5 -13 0 -9 22 21 106 13 193 -14 152 -8 -13 -10 -12 -10
4 0 11 5 34 12 53 13 37 3 57 -16 30 -19 -24 -24 -21 -31 16 -4 19 0 46 10 70
19 45 9 47 -30 7 -36 -37 -47 -38 -44 -2 4 34 -7 52 -32 52 -10 0 -27 4 -37
10 -22 12 -144 51 -247 80 -174 48 -286 81 -400 118 l-120 39 53 11 c29 7 67
12 85 12 18 0 38 4 46 9 18 12 -86 11 -119 0 l-25 -9 23 18 c13 10 65 34 115
53 75 28 87 35 63 37 -16 2 -55 -8 -88 -23 -33 -15 -63 -24 -66 -20 -4 4 -1
10 6 12 19 7 14 17 -20 37 -27 17 -32 17 -42 4 -6 -8 -32 -24 -58 -36 -27 -11
-48 -26 -48 -31 0 -6 -5 -11 -12 -11 -6 0 -19 -6 -27 -14 -9 -8 -38 -21 -65
-30 -27 -10 -61 -23 -75 -31 -14 -7 -41 -19 -58 -25 -18 -7 -33 -16 -33 -21 0
-5 -4 -9 -9 -9 -16 0 -131 -72 -131 -82 0 -5 9 -6 20 -3 33 11 23 -2 -30 -34
-71 -44 -120 -40 -176 14 -17 16 -53 42 -123 87 -36 23 -59 44 -53 46 6 2 24
-8 39 -23 16 -14 36 -24 46 -21 9 2 15 1 13 -3 -3 -4 3 -7 12 -8 9 0 43 -11
75 -23 32 -12 61 -20 63 -17 9 9 -69 57 -92 57 -43 0 -82 12 -110 35 l-29 23
26 10 c26 10 46 62 33 83 -9 16 -44 -11 -61 -46 -21 -45 -57 -52 -181 -36
-121 16 -123 17 -112 46 6 16 6 27 -1 31 -7 4 -9 22 -5 44 4 26 2 40 -7 43 -6
2 8 7 32 12 54 9 37 25 -27 25 -44 0 -69 23 -42 40 7 4 9 16 6 28 -4 12 -2 23
6 28 6 4 14 2 16 -5 3 -8 8 -7 16 5 11 14 18 15 44 6 26 -9 32 -8 32 4 0 8 10
14 24 14 30 0 48 21 36 40 -6 8 -10 25 -10 38 0 13 -6 22 -15 22 -21 0 -19 6
15 67 17 29 28 53 25 53 -2 0 -44 -12 -92 -26 -71 -21 -102 -25 -160 -21 -86
6 -97 11 -90 46 8 41 -4 58 -30 46z m51 -477 c20 -33 -34 -64 -62 -36 -9 9 -7
17 10 35 24 25 36 26 52 1z m1354 -31 c-16 -6 -28 -14 -28 -19 0 -4 -10 -8
-22 -8 -20 1 -18 4 12 20 19 11 42 19 50 19 8 -1 3 -6 -12 -12z m-1598 -477
c0 -11 -4 -20 -10 -20 -5 0 -32 -14 -60 -30 -40 -23 -55 -28 -70 -20 -13 7
-21 7 -25 0 -3 -5 -12 -10 -18 -10 -7 0 0 10 16 21 15 11 27 26 27 33 0 6 24
19 53 28 71 22 87 22 87 -2z"/>
<path d="M7219 1674 c-14 -23 -14 -30 -1 -71 l15 -46 15 37 c8 20 18 36 23 36
5 0 9 16 9 35 0 30 -3 35 -23 35 -13 0 -29 -10 -38 -26z"/>
<path d="M7375 1610 c-10 -11 -24 -20 -32 -20 -8 0 -26 -11 -40 -24 -15 -14
-30 -23 -34 -20 -4 2 -10 0 -14 -6 -4 -6 -10 -8 -15 -5 -9 6 -60 -37 -60 -50
0 -4 18 -4 40 0 124 21 -80 -111 -209 -135 -55 -10 -78 -20 -47 -20 27 0 179
41 210 57 16 9 52 33 79 54 31 25 59 39 78 39 26 0 29 3 24 23 -5 20 -1 25 25
33 17 5 31 13 30 18 -1 11 57 33 120 46 42 9 40 9 -20 5 -36 -2 -75 -7 -87
-10 -18 -6 -21 -4 -16 14 7 27 -8 27 -32 1z"/>
<path d="M4355 1600 c3 -5 8 -10 11 -10 2 0 4 5 4 10 0 6 -5 10 -11 10 -5 0
-7 -4 -4 -10z"/>
<path d="M7083 1596 c4 -10 7 -39 7 -64 l0 -46 20 20 c19 18 19 23 7 59 -8 21
-20 41 -27 43 -9 3 -11 -1 -7 -12z"/>
<path d="M7190 1588 c0 -9 5 -20 10 -23 13 -8 13 5 0 25 -8 13 -10 13 -10 -2z"/>
<path d="M1760 1523 c0 -68 15 -85 25 -29 5 22 2 44 -9 62 -15 29 -15 29 -16
-33z"/>
<path d="M6900 1533 c1 -21 49 -90 71 -100 27 -13 105 -1 124 19 7 7 3 8 -12
4 -12 -4 -24 -2 -28 4 -4 7 -12 7 -25 0 -39 -21 -64 -12 -93 35 -28 44 -37 53
-37 38z"/>
<path d="M4240 1526 c0 -2 14 -9 31 -15 27 -9 30 -9 19 4 -11 13 -50 22 -50
11z"/>
<path d="M6917 1439 c7 -7 15 -10 18 -7 3 3 -2 9 -12 12 -14 6 -15 5 -6 -5z"/>
<path d="M1303 1370 c4 -14 7 -36 7 -50 0 -18 3 -21 9 -11 5 8 5 27 0 44 -10
36 -24 52 -16 17z"/>
<path d="M9320 1352 c0 -5 7 -16 16 -23 14 -12 16 -11 13 5 -4 20 -29 35 -29
18z"/>
<path d="M7920 1291 c0 -5 7 -11 15 -15 8 -3 15 -1 15 3 0 5 -7 11 -15 15 -8
3 -15 1 -15 -3z"/>
<path d="M7635 1230 c-16 -16 -34 -30 -41 -30 -6 0 -14 -7 -18 -15 -9 -24 17
-18 62 15 23 17 53 30 67 30 18 0 23 4 19 15 -10 26 -58 18 -89 -15z"/>
<path d="M9200 1189 c0 -5 5 -7 10 -4 6 3 10 8 10 11 0 2 -4 4 -10 4 -5 0 -10
-5 -10 -11z"/>
<path d="M7260 1170 c0 -5 7 -10 15 -10 8 0 15 5 15 10 0 6 -7 10 -15 10 -8 0
-15 -4 -15 -10z"/>
<path d="M4340 1061 c0 -5 5 -13 10 -16 6 -3 10 -2 10 4 0 5 -4 13 -10 16 -5
3 -10 2 -10 -4z"/>
<path d="M9145 1029 c-4 -6 -5 -13 -2 -16 7 -7 27 6 27 18 0 12 -17 12 -25 -2z"/>
<path d="M6110 950 c0 -5 5 -10 10 -10 6 0 10 5 10 10 0 6 -4 10 -10 10 -5 0
-10 -4 -10 -10z"/>
<path d="M8985 890 c-3 -5 3 -10 15 -10 12 0 18 5 15 10 -3 6 -10 10 -15 10
-5 0 -12 -4 -15 -10z"/>
<path d="M8868 833 c7 -3 16 -2 19 1 4 3 -2 6 -13 5 -11 0 -14 -3 -6 -6z"/>
<path d="M8940 819 c25 -4 59 -7 75 -7 26 0 25 1 -10 9 -22 4 -56 8 -75 7 -33
0 -32 -1 10 -9z"/>
<path d="M4369 779 c-9 -18 -7 -26 8 -47 43 -58 124 -58 131 0 7 57 -112 97
-139 47z m99 -22 c17 -13 15 -44 -3 -51 -20 -7 -62 12 -70 33 -13 33 37 46 73
18z"/>
<path d="M4331 760 c0 -27 12 -46 44 -70 19 -14 19 -14 3 5 -9 12 -24 36 -32
55 -14 31 -15 32 -15 10z"/>
<path d="M5836 764 c-9 -24 -8 -26 14 -14 11 6 20 15 20 20 0 16 -27 11 -34
-6z"/>
<path d="M4518 698 c-13 -19 -24 -23 -66 -22 -55 0 -61 -10 -11 -21 38 -8 86
10 95 37 9 29 -1 32 -18 6z"/>
<path d="M5729 684 c-12 -14 -11 -16 5 -13 11 2 21 10 24 17 5 17 -13 15 -29
-4z"/>
<path d="M4890 619 c7 -11 14 -18 17 -15 8 8 -5 36 -17 36 -7 0 -7 -6 0 -21z"/>
<path d="M5835 550 c-3 -5 -1 -10 4 -10 6 0 11 5 11 10 0 6 -2 10 -4 10 -3 0
-8 -4 -11 -10z"/>
<path d="M4842 490 c-6 -11 -12 -23 -12 -28 0 -10 60 -45 66 -39 5 4 -32 87
-39 87 -1 0 -8 -9 -15 -20z"/>
<path d="M2670 455 c0 -6 7 -21 16 -33 8 -12 12 -22 7 -22 -4 -1 5 -12 22 -25
16 -13 27 -26 24 -29 -6 -7 -136 -21 -379 -42 -180 -15 -269 -33 -167 -34 27
0 46 -4 43 -8 -3 -5 8 -7 23 -4 16 2 32 -1 35 -7 4 -6 20 -11 35 -11 29 0 51
-16 51 -38 0 -19 25 -42 47 -42 11 0 23 -4 29 -9 5 -5 22 -11 38 -13 16 -2 32
-10 36 -18 4 -8 13 -27 20 -41 7 -15 23 -32 36 -38 13 -6 24 -17 24 -26 0 -13
35 -15 266 -15 l266 0 -84 66 c-108 86 -173 149 -266 259 -105 123 -122 141
-122 130z"/>
<path d="M4790 360 c0 -5 5 -10 11 -10 5 0 7 5 4 10 -3 6 -8 10 -11 10 -2 0
-4 -4 -4 -10z"/>
<path d="M4767 293 c-11 -11 -9 -16 28 -58 41 -48 45 -40 9 21 -28 48 -28 47
-37 37z"/>
<path d="M4528 153 c7 -43 16 -89 19 -103 l5 -25 11 30 c5 17 15 37 21 45 6 8
17 25 24 38 10 18 10 22 -2 22 -8 0 -21 -9 -29 -21 -14 -20 -16 -18 -33 28
-27 74 -31 70 -16 -14z"/>
<path d="M4476 195 c-3 -8 -1 -15 4 -15 6 0 10 7 10 15 0 8 -2 15 -4 15 -2 0
-6 -7 -10 -15z"/>
<path d="M4445 159 c-4 -6 -5 -12 -2 -15 2 -3 7 2 10 11 7 17 1 20 -8 4z"/>
<path d="M4895 130 c3 -5 11 -10 16 -10 6 0 7 5 4 10 -3 6 -11 10 -16 10 -6 0
-7 -4 -4 -10z"/>
<path d="M4414 99 c3 -17 6 -47 6 -65 0 -29 4 -34 23 -34 12 0 28 9 35 20 7
12 17 18 22 15 6 -4 10 7 10 25 0 18 -4 29 -10 25 -5 -3 -10 -12 -10 -19 0
-13 -39 -30 -48 -21 -2 2 -6 22 -9 44 -3 23 -10 41 -16 41 -5 0 -7 -13 -3 -31z"/>
<path d="M4980 62 c0 -14 38 -44 50 -40 6 2 -3 14 -19 26 -17 12 -31 19 -31
14z"/>
<path d="M4345 43 c-4 -13 -15 -23 -26 -23 -11 0 -19 -4 -19 -10 0 -5 9 -10
20 -10 21 0 44 34 36 53 -2 7 -8 2 -11 -10z"/>
<path d="M5130 35 c7 -8 17 -15 22 -15 6 0 5 7 -2 15 -7 8 -17 15 -22 15 -6 0
-5 -7 2 -15z"/>
</g>
</svg>
