<?xml version="1.0" standalone="no"?>
<!DOCTYPE svg PUBLIC "-//W3C//DTD SVG 20010904//EN"
 "http://www.w3.org/TR/2001/REC-SVG-20010904/DTD/svg10.dtd">
<svg version="1.0" xmlns="http://www.w3.org/2000/svg"
 width="690.000000pt" height="400.000000pt" viewBox="0 0 690.000000 400.000000"
 preserveAspectRatio="xMidYMid meet">

<g transform="translate(0.000000,400.000000) scale(0.100000,-0.100000)"
fill="#000000" stroke="none">
<path d="M2045 3978 c-16 -12 -62 -53 -102 -91 l-72 -70 1 40 c0 47 -20 86
-42 77 -8 -4 -39 -8 -67 -9 -29 -1 -60 -8 -68 -15 -13 -11 -20 -10 -42 1 -37
20 -130 18 -175 -5 -48 -23 -74 -66 -84 -136 -10 -78 -6 -131 15 -160 37 -53
71 -131 71 -162 0 -42 5 -48 61 -81 57 -32 163 -46 209 -27 17 7 33 11 35 8 3
-3 6 -36 6 -74 1 -38 7 -81 15 -96 26 -51 89 -65 113 -25 l15 22 7 -25 c5 -16
7 -1 7 43 -1 57 3 72 20 90 20 20 25 20 67 9 53 -14 93 -47 97 -79 2 -12 0
-22 -4 -22 -5 -1 -7 0 -6 2 1 1 -4 12 -11 25 -14 27 -78 55 -108 47 -20 -5
-22 -11 -22 -73 0 -59 3 -71 29 -102 16 -19 30 -30 30 -23 0 7 -11 23 -25 37
-14 14 -25 34 -25 45 0 30 21 71 37 71 7 0 13 5 13 11 0 8 5 7 16 -2 14 -12
14 -14 -5 -21 -12 -4 -26 -19 -32 -32 -11 -23 -8 -29 34 -72 26 -26 44 -50 42
-54 -3 -4 4 -15 14 -24 11 -10 17 -25 14 -37 -6 -22 9 -24 56 -8 35 12 38 21
16 39 -8 7 -12 16 -9 21 8 13 24 11 24 -3 0 -7 5 -20 10 -28 8 -12 12 -11 32
7 13 12 34 24 48 26 14 3 43 13 65 22 49 21 150 49 230 65 120 23 218 66 251
109 6 8 22 15 36 17 32 3 128 57 159 88 29 29 55 60 51 61 -10 1 13 108 24
112 8 3 11 9 8 14 -3 5 0 9 6 9 6 0 14 -8 17 -17 4 -10 11 -21 17 -25 8 -6 6
-12 -4 -19 -11 -8 -12 -12 -2 -16 6 -2 12 -9 12 -14 0 -6 -4 -7 -10 -4 -5 3
-10 1 -10 -4 0 -6 6 -11 13 -11 9 0 8 -3 -2 -9 -8 -5 -11 -16 -6 -30 7 -22
-12 -27 -27 -6 -5 6 -8 6 -8 -2 0 -6 5 -15 10 -18 8 -5 7 -11 -1 -21 -8 -10
-8 -28 0 -71 7 -32 14 -82 16 -110 2 -29 7 -58 10 -63 4 -6 11 -37 16 -68 6
-31 14 -79 19 -107 5 -27 18 -111 29 -185 20 -140 27 -171 41 -205 5 -11 11
-38 14 -60 2 -22 17 -103 31 -180 28 -152 45 -246 49 -285 2 -14 7 -42 11 -63
7 -38 7 -38 -21 -31 -16 4 -27 5 -24 3 3 -2 16 -13 29 -24 14 -11 21 -14 16
-6 -5 8 7 4 26 -9 19 -13 28 -17 21 -8 -14 17 -5 21 135 58 23 6 49 17 57 25
8 8 23 12 33 9 17 -5 17 -5 1 8 -11 10 -13 19 -7 30 10 18 2 48 -12 48 -5 0
-9 -10 -9 -21 0 -18 -2 -19 -15 -9 -12 10 -13 16 -4 27 9 10 8 18 -6 33 -20
22 -13 36 18 42 18 3 18 4 -2 30 -13 16 -17 29 -11 33 27 17 -9 70 -40 60 -22
-7 -37 12 -21 28 9 9 14 8 21 -3 7 -11 12 -12 21 -3 16 16 2 33 -28 33 -23 0
-25 3 -19 30 5 26 2 30 -15 30 -21 0 -21 0 1 18 l23 18 -32 14 c-29 12 -30 14
-16 29 26 26 64 89 58 95 -3 3 -13 1 -22 -4 -10 -5 -23 -5 -31 0 -12 7 -12 11
1 26 11 13 11 18 2 21 -20 7 -15 40 7 46 25 6 25 16 0 45 -22 26 -44 21 -35
-9 10 -29 -19 -24 -36 7 -12 23 -11 27 4 39 9 7 17 17 17 23 0 6 4 12 9 14 5
2 12 18 16 36 6 31 5 32 -24 32 -21 0 -31 5 -31 15 0 8 5 15 11 15 8 0 8 4 -1
14 -6 8 -18 12 -26 9 -8 -3 -14 -1 -14 5 0 5 11 13 25 16 14 4 25 11 25 17 0
6 -4 8 -9 4 -5 -3 -16 2 -25 10 -13 13 -13 19 0 43 7 15 14 35 14 44 0 9 8 19
18 21 9 3 3 5 -15 6 -38 1 -53 19 -30 36 21 15 22 25 2 25 -23 0 -18 37 6 43
12 3 19 12 17 19 -6 18 -55 44 -65 34 -4 -5 -2 -11 5 -13 13 -5 17 -33 5 -33
-5 0 -16 11 -25 24 -16 22 -15 24 12 49 35 33 40 34 40 1 0 -14 4 -23 10 -19
16 10 12 42 -6 49 -12 5 -15 14 -10 36 5 28 3 30 -24 30 -37 0 -47 16 -20 32
30 19 25 27 -15 23 -40 -3 -47 10 -10 19 30 8 33 26 5 26 -15 0 -20 7 -20 24
0 14 5 28 10 31 6 3 10 19 10 34 0 21 -6 30 -21 34 -18 5 -19 8 -7 28 10 17
10 23 1 26 -21 8 -15 43 6 43 27 0 35 17 14 29 -15 8 -16 14 -7 39 13 33 5 55
-17 50 -15 -3 -15 3 -5 38 5 18 1 22 -24 27 -31 7 -42 27 -15 27 8 0 15 7 15
15 0 8 9 15 20 15 15 0 20 7 20 26 0 21 -3 24 -13 16 -17 -15 -87 -3 -87 14 0
19 20 28 33 15 13 -13 47 -15 47 -2 0 5 -6 20 -13 33 -12 24 -16 25 -135 27
l-124 2 6 -48 c5 -44 14 -90 32 -166 4 -16 18 -34 35 -42 15 -8 31 -20 35 -26
4 -8 3 -9 -4 -5 -22 14 -34 -5 -16 -25 28 -31 10 -22 -27 13 -19 18 -33 38
-31 44 1 5 -6 19 -16 30 -9 10 -39 45 -66 77 -27 31 -54 57 -60 57 -7 0 -27
16 -46 35 -19 19 -38 35 -43 35 -5 0 1 -9 14 -20 17 -13 20 -19 9 -20 -8 0
-26 10 -40 23 -14 12 -19 18 -10 12 13 -9 13 -8 2 7 -12 15 -46 17 -360 17
-339 1 -348 0 -377 -21z m1205 -98 c0 -5 -9 -10 -21 -10 -11 0 -17 5 -14 10 3
6 13 10 21 10 8 0 14 -4 14 -10z m-4 -127 c-10 -10 -19 5 -10 18 6 11 8 11 12
0 2 -7 1 -15 -2 -18z m34 -32 c0 -18 -37 -54 -49 -47 -8 5 -5 14 11 32 24 25
38 30 38 15z m-15 -71 c3 -5 1 -10 -4 -10 -6 0 -11 5 -11 10 0 6 2 10 4 10 3
0 8 -4 11 -10z m-5 -150 c0 -5 -4 -10 -10 -10 -5 0 -10 5 -10 10 0 6 5 10 10
10 6 0 10 -4 10 -10z m-65 -30 c3 -5 1 -10 -4 -10 -6 0 -11 5 -11 10 0 6 2 10
4 10 3 0 8 -4 11 -10z m160 -208 c0 -18 -20 -15 -23 4 -3 10 1 15 10 12 7 -3
13 -10 13 -16z m-25 -152 c0 -5 -4 -10 -10 -10 -5 0 -10 5 -10 10 0 6 5 10 10
10 6 0 10 -4 10 -10z m-1203 -32 c-3 -8 -6 -5 -6 6 -1 11 2 17 5 13 3 -3 4
-12 1 -19z m1330 -304 c8 -20 -13 -42 -27 -28 -12 12 -3 44 11 44 5 0 12 -7
16 -16z m-27 -164 c0 -5 -4 -10 -10 -10 -5 0 -10 5 -10 10 0 6 5 10 10 10 6 0
10 -4 10 -10z m40 -70 c0 -5 -5 -10 -11 -10 -5 0 -7 5 -4 10 3 6 8 10 11 10 2
0 4 -4 4 -10z m101 -307 c8 -43 5 -55 -15 -63 -11 -4 -24 -6 -28 -3 -14 7 -9
23 7 23 9 0 15 9 15 25 0 22 18 37 21 18z m-11 -93 c0 -5 -4 -10 -9 -10 -6 0
-13 5 -16 10 -3 6 1 10 9 10 9 0 16 -4 16 -10z m-40 -40 c0 -5 -4 -10 -10 -10
-5 0 -10 5 -10 10 0 6 5 10 10 10 6 0 10 -4 10 -10z"/>
<path d="M2855 3990 c3 -5 10 -10 16 -10 5 0 9 5 9 10 0 6 -7 10 -16 10 -8 0
-12 -4 -9 -10z"/>
<path d="M3404 3986 c-3 -8 -1 -23 5 -34 6 -11 8 -34 5 -50 -3 -17 -1 -38 5
-49 12 -20 15 -10 11 40 -1 23 2 27 24 27 14 0 26 4 26 9 0 5 7 17 16 25 8 9
12 20 9 26 -10 16 -21 12 -33 -15 -15 -33 -28 -32 -41 5 -11 33 -19 37 -27 16z"/>
<path d="M3525 3989 c-9 -13 12 -29 38 -29 26 0 17 34 -10 38 -11 2 -24 -2
-28 -9z"/>
<path d="M4447 3888 c36 -168 45 -161 16 12 -10 63 -21 100 -28 100 -9 0 -6
-31 12 -112z"/>
<path d="M3697 3979 c7 -7 15 -10 18 -7 3 3 -2 9 -12 12 -14 6 -15 5 -6 -5z"/>
<path d="M3722 3936 c1 -10 8 -17 13 -17 15 1 12 24 -3 29 -9 3 -13 -2 -10
-12z"/>
<path d="M3520 3920 c0 -19 5 -25 17 -22 7 2 13 -2 13 -8 0 -5 5 -10 10 -10 7
0 7 6 1 19 -12 21 -41 36 -41 21z"/>
<path d="M3588 3923 c7 -3 16 -2 19 1 4 3 -2 6 -13 5 -11 0 -14 -3 -6 -6z"/>
<path d="M3745 3822 c2 -41 0 -72 -6 -72 -5 0 -9 -5 -9 -10 0 -6 13 -1 30 11
16 12 26 27 22 33 -3 6 -7 26 -8 44 0 18 -8 40 -17 49 -14 15 -15 10 -12 -55z"/>
<path d="M3570 3850 c0 -5 5 -10 10 -10 6 0 10 5 10 10 0 6 -4 10 -10 10 -5 0
-10 -4 -10 -10z"/>
<path d="M3430 3811 c0 -11 5 -23 10 -26 6 -3 10 1 10 9 0 9 0 19 1 23 0 4 -4
9 -10 11 -6 2 -11 -5 -11 -17z"/>
<path d="M3446 3674 c3 -54 8 -106 12 -114 3 -8 9 -46 13 -85 10 -80 28 -226
34 -270 36 -255 63 -462 81 -620 8 -71 17 -137 19 -145 3 -8 7 -35 10 -60 3
-25 8 -58 11 -75 2 -16 6 -51 9 -78 2 -26 7 -52 11 -58 3 -6 8 -46 9 -88 3
-85 12 -121 29 -121 18 0 86 86 86 110 0 12 -4 18 -10 15 -5 -3 -10 1 -10 9 0
8 -7 22 -16 30 -8 9 -11 16 -5 16 9 0 8 31 -3 87 -3 15 2 28 16 37 11 8 22 25
23 38 1 13 3 29 4 36 0 7 6 10 13 6 8 -5 9 0 5 17 -4 13 -7 28 -7 32 0 5 -4 5
-10 2 -5 -3 -10 3 -10 14 0 12 10 23 26 28 l26 9 -39 26 c-24 16 -39 34 -40
48 -3 34 -12 37 -34 10 l-20 -25 3 30 c2 23 8 30 25 30 32 0 37 11 13 35 -19
19 -19 22 -5 37 20 20 14 39 -12 35 -11 -2 -23 4 -27 13 -7 20 13 65 30 65 7
0 16 4 19 10 4 6 -5 7 -23 4 -37 -8 -48 8 -27 39 12 19 13 30 5 53 -15 38 -31
46 -52 27 -20 -18 -34 -12 -25 12 4 8 16 15 27 15 11 0 23 7 26 15 4 8 13 15
22 15 12 0 9 5 -8 17 -40 28 -51 46 -47 85 1 24 -2 39 -10 43 -12 4 -12 20 -1
64 2 8 -7 17 -22 21 -14 3 -25 10 -24 15 1 30 18 64 32 68 10 3 2 5 -17 6 -28
1 -32 4 -25 19 16 37 16 88 0 101 -21 18 -20 37 2 50 15 10 15 12 2 24 -27 22
-52 76 -45 98 5 13 1 25 -10 33 -13 9 -14 17 -6 37 10 29 5 42 -23 52 -15 6
-17 14 -12 41 5 24 2 37 -9 46 -14 12 -15 3 -9 -86z m144 -645 c0 -11 -4 -17
-10 -14 -5 3 -10 13 -10 21 0 8 5 14 10 14 6 0 10 -9 10 -21z m68 -197 c2 -15
-2 -22 -12 -22 -11 0 -16 9 -16 26 0 31 23 28 28 -4z m22 -92 c0 -5 -11 -10
-25 -10 -14 0 -25 5 -25 10 0 6 11 10 25 10 14 0 25 -4 25 -10z m60 -321 c0
-28 -4 -48 -9 -45 -5 4 -12 0 -15 -6 -3 -7 -4 1 0 17 19 103 24 110 24 34z
m18 -82 c-4 -30 -28 -34 -28 -4 0 15 6 24 15 24 10 0 15 -8 13 -20z"/>
<path d="M3771 3685 c-11 -43 -10 -48 10 -64 19 -15 20 -20 8 -39 -11 -18 -11
-24 4 -40 13 -14 16 -28 11 -46 -3 -15 -2 -26 4 -26 5 0 12 -8 16 -17 3 -10 9
-24 12 -32 5 -10 1 -13 -15 -8 -14 3 -21 0 -21 -9 0 -8 6 -14 14 -14 15 0 36
-49 36 -86 0 -14 -15 -36 -42 -58 -40 -34 -41 -37 -27 -62 7 -14 24 -30 36
-35 27 -10 29 -18 6 -34 -15 -12 -16 -16 -4 -39 13 -23 12 -28 -4 -47 -11 -11
-27 -18 -37 -16 -10 3 -18 1 -18 -4 0 -5 11 -9 25 -9 14 0 25 -4 25 -10 0 -5
11 -10 25 -10 30 0 42 -23 27 -54 -7 -16 -19 -23 -41 -23 -29 0 -30 1 -15 18
17 19 16 50 -3 56 -6 2 -12 -4 -12 -14 -1 -10 -4 -35 -7 -56 -5 -32 -4 -36 10
-31 13 5 16 -1 16 -33 0 -21 -7 -48 -15 -59 -16 -23 -11 -36 11 -27 8 3 14 0
14 -6 0 -6 -4 -11 -9 -11 -5 0 -11 -9 -14 -20 -7 -26 10 -26 18 0 5 16 12 19
27 14 17 -5 20 -3 15 11 -4 9 -7 19 -7 21 0 3 -4 3 -9 -1 -16 -9 -22 13 -11
35 5 11 15 29 20 40 7 13 7 20 0 20 -5 0 -10 5 -10 11 0 13 35 7 36 -6 0 -6 4
-17 7 -25 4 -8 5 -22 4 -30 -1 -8 0 -17 3 -19 10 -7 110 34 115 47 3 8 0 10
-7 6 -7 -5 -9 1 -5 18 4 16 1 38 -8 54 -8 16 -15 41 -15 56 0 15 -4 30 -10 33
-5 3 -10 26 -10 49 0 50 -21 76 -48 59 -24 -15 -27 -42 -5 -58 25 -18 12 -28
-21 -16 -29 12 -33 32 -13 75 10 23 17 26 40 22 30 -6 51 19 27 34 -7 4 -14
24 -16 45 -2 20 -8 42 -13 49 -6 7 -8 22 -4 34 3 13 1 22 -6 22 -7 0 -7 8 1
26 9 20 9 27 -1 33 -7 5 -14 27 -16 50 -1 24 -8 48 -14 54 -6 6 -11 27 -11 46
0 32 -11 78 -31 126 -4 11 -9 31 -11 44 -5 42 -25 34 -37 -14z m97 -476 c-3
-29 -6 -33 -33 -34 -21 0 -31 5 -33 18 -2 12 3 17 17 17 14 0 21 6 21 18 0 10
3 22 7 26 13 12 24 -12 21 -45z m72 -329 c0 -5 -4 -10 -9 -10 -6 0 -13 5 -16
10 -3 6 1 10 9 10 9 0 16 -4 16 -10z m7 -36 c-3 -3 -12 -4 -19 -1 -8 3 -5 6 6
6 11 1 17 -2 13 -5z"/>
<path d="M3735 3600 c-3 -5 -2 -10 4 -10 5 0 13 5 16 10 3 6 2 10 -4 10 -5 0
-13 -4 -16 -10z"/>
<path d="M3750 3497 c0 -16 3 -17 15 -7 8 7 15 16 15 20 0 3 -7 7 -15 7 -8 0
-15 -9 -15 -20z"/>
<path d="M4850 3500 c0 -5 5 -10 11 -10 5 0 7 5 4 10 -3 6 -8 10 -11 10 -2 0
-4 -4 -4 -10z"/>
<path d="M3341 3456 c-8 -10 -9 -16 -1 -21 5 -3 13 1 16 10 9 22 -1 29 -15 11z"/>
<path d="M3760 3375 c0 -5 10 -19 21 -32 18 -18 20 -25 9 -38 -8 -9 -8 -15 -2
-15 6 0 18 10 27 22 12 18 12 24 3 27 -7 2 -23 13 -35 24 -13 11 -23 17 -23
12z"/>
<path d="M4572 3335 c0 -11 4 -31 8 -45 6 -20 8 -21 8 -5 0 11 -4 31 -8 45 -6
20 -8 21 -8 5z"/>
<path d="M3778 3273 c7 -3 16 -2 19 1 4 3 -2 6 -13 5 -11 0 -14 -3 -6 -6z"/>
<path d="M3756 3132 c-3 -6 -2 -21 3 -33 l8 -24 8 24 c7 24 -8 51 -19 33z"/>
<path d="M2988 3053 c-25 -27 -25 -30 -16 -98 6 -38 11 -79 12 -90 2 -11 5
-29 9 -40 3 -11 9 -45 12 -75 12 -103 14 -115 25 -190 6 -41 15 -111 20 -155
6 -44 14 -102 20 -130 5 -27 11 -68 14 -90 7 -65 16 -85 40 -85 12 0 31 -7 44
-15 22 -16 22 -16 16 32 -3 26 -12 72 -19 101 -8 30 -11 60 -8 68 3 8 2 22 -3
32 -4 9 -9 24 -10 32 -1 8 -7 56 -14 105 -7 50 -17 100 -22 112 -6 11 -8 25
-5 30 3 5 -1 35 -9 68 -8 33 -16 80 -19 105 -5 53 -21 154 -30 190 -3 14 -8
46 -12 73 -3 26 -9 47 -13 47 -3 0 -18 -12 -32 -27z"/>
<path d="M1746 3035 c-22 -34 -61 -52 -131 -60 -33 -4 -69 -12 -80 -17 -17 -7
-16 -8 7 -5 21 3 28 0 30 -17 3 -20 20 -29 80 -41 18 -3 33 -17 44 -38 9 -17
29 -48 44 -67 23 -29 26 -39 18 -54 -9 -15 -7 -22 8 -33 10 -7 14 -13 10 -13
-5 0 -3 -7 4 -15 7 -8 21 -15 31 -15 11 0 19 -7 19 -15 0 -8 5 -15 10 -15 6 0
10 5 10 12 0 9 3 9 11 1 17 -17 4 -42 -20 -40 -11 0 -17 5 -15 9 3 4 -2 8 -10
8 -9 0 -22 13 -31 29 -8 16 -24 32 -35 36 -11 3 -20 11 -20 17 0 6 -3 8 -6 5
-4 -3 6 -21 20 -39 15 -18 37 -47 49 -65 12 -17 46 -66 76 -109 76 -109 119
-207 132 -301 10 -73 6 -222 -8 -268 -3 -11 -7 -96 -8 -190 -1 -93 -5 -181 -8
-195 -4 -14 2 2 14 35 21 63 36 148 64 355 19 140 16 239 -14 453 -14 103 -15
130 -5 134 21 8 32 -5 39 -47 11 -64 27 -60 25 6 -2 81 -2 84 13 84 6 0 33 11
59 24 l48 23 62 -54 c34 -29 74 -56 88 -60 14 -3 30 -9 35 -14 6 -4 23 -12 38
-18 25 -10 27 -9 27 15 0 17 -7 28 -20 31 -11 3 -21 13 -22 22 0 9 -2 23 -2
31 -1 8 -10 15 -21 16 -43 1 -65 15 -65 40 0 14 4 22 10 19 6 -3 10 -2 10 4 0
5 -6 12 -12 14 -7 3 -3 6 10 6 27 1 28 12 2 31 -11 8 -20 22 -20 32 0 16 -11
23 -32 19 -5 0 -8 3 -8 8 0 6 -8 10 -17 10 -15 0 -45 5 -63 11 -15 5 -86 -3
-94 -11 -20 -19 -47 -7 -73 32 -16 23 -36 53 -45 68 -13 19 -28 27 -55 29 -24
1 -33 -1 -25 -7 10 -6 4 -10 -18 -15 -61 -12 -76 -7 -108 33 -37 47 -39 64
-11 110 11 18 17 36 14 39 -15 16 -44 9 -59 -13z"/>
<path d="M3655 3020 c-3 -5 -1 -10 4 -10 6 0 11 5 11 10 0 6 -2 10 -4 10 -3 0
-8 -4 -11 -10z"/>
<path d="M2662 3003 c-26 -10 1 -23 51 -23 44 0 101 -17 72 -21 -5 -1 -21 -3
-35 -6 -33 -5 -47 -5 -95 0 -48 6 -110 -3 -98 -13 4 -4 29 -15 56 -24 34 -13
47 -23 47 -37 0 -31 58 -25 115 14 27 17 58 37 69 44 25 15 56 55 50 65 -6 9
-211 10 -232 1z"/>
<path d="M3440 2949 c0 -5 5 -7 10 -4 6 3 10 8 10 11 0 2 -4 4 -10 4 -5 0 -10
-5 -10 -11z"/>
<path d="M4652 2920 c0 -14 2 -19 5 -12 2 6 2 18 0 25 -3 6 -5 1 -5 -13z"/>
<path d="M4255 2838 c1 -13 3 -29 4 -35 2 -21 31 -15 31 6 0 16 -24 51 -34 51
-2 0 -2 -10 -1 -22z"/>
<path d="M4535 2770 c0 -33 5 -52 14 -55 11 -4 13 4 8 41 -7 65 -23 75 -22 14z"/>
<path d="M3845 2790 c-3 -6 1 -7 9 -4 18 7 21 14 7 14 -6 0 -13 -4 -16 -10z"/>
<path d="M4206 2785 c-8 -8 -26 -15 -40 -15 -14 0 -28 -4 -31 -10 -3 -5 -13
-10 -22 -10 -9 0 -21 -7 -28 -16 -9 -14 -16 -14 -34 -5 -35 19 -46 9 -43 -40
2 -42 2 -43 -11 -20 l-14 24 -5 -32 c-3 -20 1 -38 9 -46 7 -8 12 -20 11 -27
-2 -9 7 -12 27 -11 37 2 140 27 179 42 17 7 53 11 80 10 28 -1 62 2 76 6 14 3
36 7 49 8 30 2 41 27 12 27 -13 0 -21 6 -21 18 0 14 2 15 10 2 7 -12 10 -8 10
15 0 23 -3 27 -10 15 -8 -12 -10 -8 -11 15 -1 17 -1 33 0 38 2 12 -18 8 -42
-8 -27 -17 -67 -16 -67 3 0 7 -8 12 -17 11 -10 -1 -27 -1 -38 0 -17 1 -18 3
-5 11 9 6 10 10 3 10 -6 0 -18 -7 -27 -15z"/>
<path d="M2688 2735 c-16 -36 4 -78 35 -73 18 2 22 9 20 36 -1 33 -18 62 -34
62 -5 0 -15 -11 -21 -25z"/>
<path d="M2790 2680 c0 -5 7 -10 16 -10 8 0 12 5 9 10 -3 6 -10 10 -16 10 -5
0 -9 -4 -9 -10z"/>
<path d="M2570 2670 c-44 -8 -60 -17 -60 -36 0 -8 -11 -19 -25 -24 -15 -6 -25
-17 -25 -30 0 -23 15 -27 24 -5 7 19 21 19 40 -1 9 -8 20 -12 26 -9 5 3 10 1
10 -4 0 -21 58 -11 89 15 17 14 31 29 31 33 0 4 -17 12 -37 17 l-38 10 38 1
c44 1 65 13 22 13 -16 0 -36 6 -44 13 -11 9 -28 11 -51 7z"/>
<path d="M4658 2653 c7 -3 16 -2 19 1 4 3 -2 6 -13 5 -11 0 -14 -3 -6 -6z"/>
<path d="M3834 2591 c4 -5 0 -11 -6 -14 -7 -2 -10 -8 -6 -12 4 -4 11 -4 17 0
14 8 14 35 0 35 -5 0 -8 -4 -5 -9z"/>
<path d="M4830 2554 c0 -3 7 -21 16 -40 9 -19 14 -38 10 -41 -3 -3 -6 -1 -6 5
0 7 -5 12 -11 12 -8 0 -8 -5 1 -15 7 -8 16 -12 21 -9 5 3 14 -8 20 -23 6 -15
17 -40 25 -55 17 -31 20 -73 4 -48 -8 12 -10 12 -10 1 0 -13 -46 43 -83 102
-10 15 -22 27 -27 27 -6 0 -3 -12 6 -26 13 -19 14 -28 5 -33 -7 -5 -9 -15 -5
-26 6 -14 4 -17 -8 -13 -10 4 -15 1 -14 -10 1 -11 -6 -16 -17 -16 -13 2 -15
-1 -7 -10 5 -7 6 -16 2 -20 -4 -4 -7 -15 -8 -24 -3 -44 -5 -52 -13 -52 -5 0
-11 9 -14 20 -3 11 -13 20 -23 20 -16 0 -16 -1 1 -20 14 -15 16 -29 11 -65 -6
-34 -4 -45 6 -45 9 0 10 -3 2 -8 -7 -4 -8 -15 -3 -29 7 -19 14 -22 37 -17 35
7 86 -17 103 -48 12 -22 8 -116 -7 -153 -7 -18 -6 -19 9 -6 10 8 21 10 25 6 4
-4 1 -10 -5 -12 -7 -3 -13 -12 -13 -20 0 -9 -6 -13 -15 -9 -9 3 -35 -17 -71
-54 -87 -91 -162 -111 -194 -50 -10 18 -13 17 -51 -23 -22 -23 -52 -59 -66
-79 -17 -25 -47 -48 -99 -73 -42 -21 -87 -47 -102 -60 -15 -12 -40 -26 -56
-32 -17 -5 -32 -15 -34 -21 -9 -27 31 -22 91 12 35 20 72 36 81 36 17 0 116
86 116 101 0 5 12 23 27 40 24 27 32 30 63 24 19 -3 58 -6 85 -7 34 0 40 -2
20 -5 -35 -6 -57 -21 -52 -37 3 -6 -4 -25 -15 -43 -10 -18 -18 -38 -17 -45 2
-7 -5 -28 -15 -47 -22 -41 -61 -178 -71 -243 -4 -30 -11 -48 -20 -48 -7 0 -15
-7 -19 -15 -14 -38 -95 -4 -116 49 -5 14 -14 25 -20 24 -9 -3 -28 11 -149 108
-63 50 -124 76 -174 72 l-41 -3 56 -57 c41 -42 51 -58 38 -58 -10 0 -21 6 -23
13 -4 9 -8 8 -16 -3 -22 -31 -13 -43 26 -35 21 4 41 11 44 17 4 6 18 -6 31
-26 14 -20 28 -33 31 -29 4 3 7 -2 7 -13 -1 -17 -2 -17 -20 5 l-20 23 0 -28
c1 -51 20 -168 30 -178 6 -6 10 -19 10 -30 0 -21 17 -80 31 -108 5 -10 9 -26
9 -35 1 -29 52 -81 90 -91 24 -5 36 -15 38 -29 2 -11 14 -26 28 -33 18 -10 23
-20 21 -39 -4 -23 -8 -26 -42 -24 -39 3 -79 28 -69 44 3 5 1 9 -4 9 -15 0 -82
105 -82 128 0 12 -4 22 -10 22 -5 0 -13 18 -16 41 -7 39 -41 86 -53 73 -3 -4
-1 -8 4 -10 6 -2 10 -28 10 -57 -1 -66 3 -77 26 -77 10 0 19 -4 19 -10 0 -5
-7 -10 -16 -10 -12 0 -14 -7 -9 -33 9 -41 23 -67 35 -67 6 0 10 -7 10 -15 0
-8 4 -15 10 -15 11 0 60 -51 60 -63 0 -16 48 -78 52 -67 2 7 13 3 28 -10 21
-18 34 -21 78 -18 59 5 88 23 56 34 -17 6 -54 38 -54 46 0 2 30 5 66 6 63 3
66 3 59 -18 -6 -20 -4 -21 32 -14 57 10 114 35 107 46 -4 5 -18 8 -32 5 l-25
-5 6 102 c3 55 3 92 -1 81 -26 -76 -67 -108 -133 -103 l-35 3 7 46 c4 26 3 64
-2 85 -7 34 -4 48 26 110 19 39 41 77 50 84 9 8 23 27 32 44 12 25 6 21 -30
-19 -89 -98 -107 -120 -112 -136 -3 -9 -17 -21 -30 -27 -14 -6 -25 -19 -25
-27 0 -9 5 -13 10 -10 6 3 10 -3 10 -14 0 -12 -5 -21 -11 -21 -7 0 -18 -8 -24
-17 -12 -17 -14 -17 -35 2 -12 11 -31 32 -41 47 -17 23 -18 30 -7 48 7 11 19
20 26 20 7 0 11 4 7 9 -3 5 3 12 12 15 48 15 51 85 4 87 -21 1 -22 2 -6 6 11
3 32 14 47 24 14 11 29 19 33 19 26 0 251 191 260 221 6 18 101 53 117 43 4
-3 8 0 8 6 0 6 4 8 10 5 16 -10 59 25 53 43 -3 9 -3 14 1 10 4 -3 21 -2 38 2
23 7 29 6 25 -4 -3 -8 5 -23 19 -35 l24 -21 16 40 c16 40 17 40 40 25 31 -20
39 -19 68 10 16 16 36 25 56 25 18 0 33 6 36 15 4 8 12 15 19 15 13 0 13 35 1
48 -3 2 1 17 9 33 l15 28 -35 -6 c-38 -6 -47 8 -17 27 16 11 16 11 -2 6 -16
-6 -17 -4 -6 9 7 8 10 26 8 40 -3 14 -1 28 5 32 5 3 8 2 5 -3 -4 -5 -1 -22 6
-38 10 -26 13 -27 25 -12 10 12 11 16 1 16 -9 0 -10 3 -1 14 17 20 4 107 -21
133 -11 12 -17 26 -13 32 3 6 2 11 -3 11 -8 0 -15 21 -24 75 0 6 -4 24 -8 42
-4 17 -4 53 1 79 12 61 2 112 -21 119 -14 4 -18 15 -16 44 1 22 8 46 15 55 7
8 10 19 7 24 -3 5 1 18 9 28 8 10 15 24 15 30 0 15 -42 26 -54 14 -22 -22 -25
-8 -6 27 11 21 20 41 20 46 0 16 -45 69 -75 87 -30 18 -85 18 -85 -1 0 -15
-47 -10 -60 6 -12 15 -30 20 -30 9z m181 -68 c0 -6 2 -21 3 -33 2 -13 1 -23 0
-23 -6 0 -34 58 -34 69 0 14 30 2 31 -13z m-47 -399 c17 -19 41 -39 54 -46 12
-6 22 -19 22 -28 0 -9 3 -13 7 -10 10 11 33 -43 33 -80 0 -43 -19 -77 -70
-128 -39 -38 -59 -79 -46 -92 3 -4 22 8 40 26 24 24 40 31 54 27 18 -6 21 -21
13 -79 -2 -18 -56 -57 -77 -57 -28 0 -31 -15 -7 -29 20 -11 17 -16 -16 -26
-17 -5 -22 -4 -16 5 6 10 -1 11 -31 5 -21 -4 -36 -4 -32 0 3 4 -5 31 -18 61
-13 30 -24 63 -24 73 0 10 -6 24 -14 30 -7 6 -11 23 -9 39 4 26 3 25 -16 -8
-11 -19 -20 -29 -21 -21 0 8 -6 11 -17 7 -10 -4 1 13 25 37 23 24 40 45 38 48
-5 5 0 6 82 15 28 3 52 10 52 16 0 5 10 8 23 6 19 -3 22 2 25 35 3 29 -1 39
-15 44 -32 11 -51 38 -46 66 4 20 1 26 -17 29 -32 4 -48 32 -31 52 18 22 20
21 55 -17z m133 -129 c-3 -8 -6 -5 -6 6 -1 11 2 17 5 13 3 -3 4 -12 1 -19z
m-47 -178 c-20 -13 -40 -13 -40 0 0 6 12 10 28 10 21 0 24 -2 12 -10z m-280
-116 c0 -8 -4 -12 -10 -9 -5 3 -10 10 -10 16 0 5 5 9 10 9 6 0 10 -7 10 -16z
m-34 -27 c15 -13 25 -28 23 -33 -2 -5 -18 6 -36 24 -36 37 -27 43 13 9z m74
-7 c4 0 10 -7 14 -15 8 -21 -8 -19 -35 6 -19 16 -20 19 -6 15 10 -3 22 -6 27
-6z m300 0 c0 -5 -2 -10 -4 -10 -3 0 -8 5 -11 10 -3 6 -1 10 4 10 6 0 11 -4
11 -10z m-225 -110 c3 -6 -1 -7 -9 -4 -18 7 -21 14 -7 14 6 0 13 -4 16 -10z
m-65 -65 c0 -2 -7 -8 -15 -15 -12 -10 -15 -10 -15 2 0 8 7 15 15 15 8 0 15 -1
15 -2z m-656 -255 c14 0 37 -43 41 -78 2 -12 -1 -20 -6 -16 -5 3 -7 10 -4 15
4 5 2 9 -3 9 -8 0 -53 76 -51 88 0 4 3 1 6 -5 2 -7 10 -13 17 -13z"/>
<path d="M5008 1683 c6 -2 18 -2 25 0 6 3 1 5 -13 5 -14 0 -19 -2 -12 -5z"/>
<path d="M2555 2520 c3 -5 10 -10 16 -10 5 0 9 5 9 10 0 6 -7 10 -16 10 -8 0
-12 -4 -9 -10z"/>
<path d="M1457 2485 c-4 -8 -2 -17 4 -21 5 -3 9 -29 9 -57 -1 -29 4 -83 10
-121 11 -64 10 -123 -6 -271 -4 -45 1 -91 21 -185 51 -243 57 -308 45 -490 -6
-91 -15 -194 -19 -230 -5 -36 -7 -73 -5 -83 3 -20 -19 -22 -110 -7 -34 5 -169
12 -301 15 -132 3 -337 8 -456 11 -189 5 -218 4 -232 -10 -8 -9 -20 -16 -26
-16 -26 0 -46 -366 -22 -408 6 -9 11 -12 11 -4 0 15 110 17 110 2 0 -20 19
-10 23 13 4 19 4 19 6 -5 0 -15 9 -33 19 -40 20 -14 33 -40 39 -75 4 -23 -12
-33 -19 -12 -2 7 -17 8 -41 4 -33 -6 -35 -9 -21 -19 15 -11 14 -15 -10 -39
-16 -16 -26 -37 -26 -55 0 -15 -9 -38 -20 -50 -11 -12 -20 -26 -20 -31 0 -18
-36 -31 -48 -19 -7 7 -12 8 -12 3 0 -5 -6 -1 -13 10 -13 17 -17 17 -110 1 -54
-10 -100 -22 -103 -28 -4 -6 1 -8 14 -4 11 4 23 2 27 -4 3 -5 39 -10 78 -10
40 0 78 -4 86 -9 9 -6 16 -32 18 -72 4 -61 22 -120 23 -73 0 31 62 124 82 124
9 0 19 4 23 10 3 5 12 7 19 4 15 -6 30 23 115 222 28 66 51 127 51 135 0 9 8
33 19 54 21 44 37 32 27 -21 -9 -46 2 -104 19 -98 14 6 72 -48 86 -80 11 -25
32 -59 40 -66 4 -3 26 -45 49 -95 24 -50 45 -84 47 -77 6 15 111 16 150 1 15
-6 51 -14 78 -18 43 -6 50 -9 48 -28 -1 -12 4 -24 12 -27 8 -3 15 -1 15 5 0 6
9 8 20 4 11 -4 20 -3 19 2 -7 38 20 60 83 68 69 9 85 19 93 54 6 29 27 54 82
99 77 62 92 72 110 72 11 0 28 9 38 20 10 11 24 20 32 20 8 0 19 5 26 10 7 6
30 24 52 40 23 16 47 41 55 57 8 15 20 36 28 45 24 29 5 41 -57 33 -49 -6
-103 -24 -76 -25 25 -1 -23 -20 -51 -20 -38 0 -94 -19 -94 -31 0 -5 -13 -9
-30 -9 -16 0 -30 -4 -30 -10 0 -5 -7 -10 -15 -10 -17 0 -57 -20 -67 -34 -3 -5
-22 -9 -42 -8 -19 1 -38 -3 -41 -8 -14 -22 -33 -8 -37 27 -7 55 1 83 23 83 11
0 19 7 19 15 0 8 9 15 20 15 11 0 20 5 20 10 0 6 -9 10 -20 10 -30 0 -24 27 8
38 l27 10 -27 1 c-24 1 -27 6 -34 46 -3 25 -4 49 0 52 3 3 1 12 -5 20 -9 10
-8 13 4 13 14 0 20 8 27 35 1 6 18 17 36 26 19 8 31 18 28 22 -4 4 7 10 24 13
37 7 39 12 15 30 -16 12 -11 13 34 14 61 0 83 7 83 26 0 8 10 14 26 14 14 0
23 4 19 10 -4 6 7 10 24 10 17 0 31 5 31 10 0 6 14 10 31 10 20 0 28 4 23 12
-5 8 -2 9 9 5 10 -4 17 -1 17 6 0 8 3 8 9 -2 5 -7 14 -10 20 -7 6 4 9 12 6 17
-4 5 0 12 8 15 8 3 17 13 20 23 3 13 -3 18 -27 19 -16 2 -38 10 -47 18 -13 12
-37 15 -105 12 l-88 -3 -9 39 c-7 26 -6 64 3 115 22 134 22 210 0 376 -12 87
-23 162 -25 165 -1 3 -8 57 -14 120 -26 267 -54 445 -73 473 -22 30 -33 34
-41 12z m-488 -1517 c17 -17 33 -40 36 -49 3 -10 14 -21 24 -24 10 -3 25 -23
33 -44 12 -30 20 -38 39 -37 20 1 24 -4 26 -29 1 -16 3 -71 6 -120 3 -66 10
-104 27 -140 12 -28 24 -63 26 -80 2 -16 9 -43 14 -59 10 -29 10 -29 -11 -10
-38 34 -90 113 -134 201 -41 84 -125 322 -138 391 -8 42 10 42 52 0z m378
-109 c-8 -54 -13 -69 -24 -65 -8 4 -23 6 -34 6 -12 0 -19 7 -19 19 0 11 -5 21
-11 23 -17 6 32 76 56 81 11 2 25 5 31 6 7 1 7 -21 1 -70z m-110 -46 c-3 -10
-5 -4 -5 12 0 17 2 24 5 18 2 -7 2 -21 0 -30z"/>
<path d="M3540 2446 c0 -9 7 -16 16 -16 17 0 14 22 -4 28 -7 2 -12 -3 -12 -12z"/>
<path d="M2662 2427 c-6 -7 -7 -18 -3 -25 5 -9 11 -5 19 13 12 26 2 34 -16 12z"/>
<path d="M4840 2431 c0 -5 5 -13 10 -16 6 -3 10 -2 10 4 0 5 -4 13 -10 16 -5
3 -10 2 -10 -4z"/>
<path d="M3550 2339 c0 -5 5 -7 10 -4 6 3 10 8 10 11 0 2 -4 4 -10 4 -5 0 -10
-5 -10 -11z"/>
<path d="M3950 2268 c-22 -30 -22 -32 -5 -45 17 -12 38 -17 58 -14 13 2 7 -17
-8 -23 -18 -6 -20 -52 -3 -62 7 -5 3 -10 -13 -16 l-24 -9 25 -19 c14 -11 40
-20 59 -20 32 0 33 1 28 29 -5 23 -2 31 12 36 10 3 21 15 24 26 7 28 27 20 52
-19 12 -19 29 -31 42 -32 12 0 24 -6 26 -12 4 -10 6 -10 6 -1 1 7 -7 22 -16
34 -64 78 -92 107 -97 102 -3 -4 -6 -1 -6 5 0 7 -7 12 -15 12 -18 0 -20 30 -2
30 7 0 4 7 -7 15 -11 8 -41 15 -66 15 -40 0 -49 -4 -70 -32z"/>
<path d="M511 2283 c0 -4 4 -17 9 -28 8 -19 9 -19 9 2 1 12 -3 25 -9 28 -5 3
-10 3 -9 -2z"/>
<path d="M3790 2243 c-16 -19 -16 -150 0 -166 4 -5 24 7 44 27 l37 35 -28 48
c-15 27 -27 49 -25 51 1 1 2 7 2 12 0 15 -14 12 -30 -7z"/>
<path d="M493 2120 c0 -25 2 -35 4 -22 2 12 2 32 0 45 -2 12 -4 2 -4 -23z"/>
<path d="M2925 2090 c-4 -6 -11 -8 -16 -5 -23 15 -6 -16 22 -38 l31 -24 -27
-17 c-33 -22 -27 -30 11 -15 16 7 37 13 47 14 21 2 39 24 30 37 -2 5 1 17 8
26 11 14 11 15 -1 5 -10 -9 -18 -9 -34 0 -12 6 -24 11 -28 12 -3 0 -10 3 -14
8 -10 10 -22 9 -29 -3z m95 -54 c0 -2 -8 -10 -17 -17 -16 -13 -17 -12 -4 4 13
16 21 21 21 13z"/>
<path d="M4670 2096 c0 -2 7 -6 15 -10 8 -3 15 -1 15 4 0 6 -7 10 -15 10 -8 0
-15 -2 -15 -4z"/>
<path d="M2730 2049 c0 -11 5 -17 10 -14 6 3 10 13 10 21 0 8 -4 14 -10 14 -5
0 -10 -9 -10 -21z"/>
<path d="M4790 2060 c0 -5 5 -10 11 -10 5 0 7 5 4 10 -3 6 -8 10 -11 10 -2 0
-4 -4 -4 -10z"/>
<path d="M3195 2038 c6 -17 -20 -46 -82 -91 -29 -21 -53 -42 -53 -46 0 -4 -18
-14 -40 -21 -39 -13 -85 -50 -61 -50 22 0 107 48 146 84 40 36 51 40 92 36 17
-1 21 3 17 14 -3 9 -10 14 -14 11 -5 -3 -5 9 1 27 11 41 11 48 -1 48 -5 0 -7
-6 -5 -12z"/>
<path d="M3930 1992 c0 -4 5 -13 10 -18 6 -6 8 -19 4 -28 -6 -15 -14 -17 -47
-12 -22 4 -55 2 -73 -4 -39 -13 -74 0 -74 28 -1 16 -2 15 -11 -1 -8 -13 -7
-22 1 -33 10 -11 9 -14 -9 -14 -17 0 -21 -7 -23 -32 -2 -44 -1 -59 7 -85 7
-22 5 -23 -52 -23 -46 0 -60 -3 -60 -15 0 -10 8 -13 26 -9 21 5 23 3 11 -6
-11 -8 -1 -9 43 -4 57 6 57 6 57 -20 0 -16 5 -26 15 -26 8 0 15 4 15 9 0 5 7
12 16 15 8 3 12 2 9 -4 -3 -6 -3 -10 0 -10 13 0 130 31 189 51 40 13 63 16 70
9 12 -12 36 -13 36 -2 0 5 -9 18 -20 30 -11 11 -16 23 -11 26 4 3 14 -6 21
-19 14 -27 30 -33 30 -12 0 15 -24 49 -103 146 -53 65 -77 85 -77 63z m30 -81
c0 -5 19 -28 42 -50 22 -23 36 -41 29 -41 -7 0 -9 -4 -6 -10 10 -16 -75 -12
-127 7 -27 9 -48 23 -48 30 0 7 4 13 9 13 4 0 6 11 4 24 -5 23 -2 25 38 29 24
2 47 4 52 5 4 1 7 -2 7 -7z m-174 -116 c0 -19 -3 -35 -8 -35 -4 0 -8 -8 -8
-17 0 -15 -2 -16 -10 -3 -6 9 -6 18 0 24 14 14 12 29 -2 20 -8 -5 -9 -2 -5 10
4 10 7 22 7 27 0 5 6 9 13 9 7 0 12 -14 13 -35z"/>
<path d="M4710 1971 c0 -5 7 -14 15 -21 16 -14 18 -10 9 14 -6 17 -24 22 -24
7z"/>
<path d="M2779 1871 c-52 -35 -85 -68 -113 -116 -12 -19 -45 -70 -73 -115 -29
-44 -47 -79 -41 -77 7 1 20 -15 30 -35 22 -46 43 -48 88 -8 25 22 36 27 42 18
4 -8 1 -15 -10 -19 -12 -5 -8 -8 17 -14 24 -5 36 -3 42 6 8 12 11 11 20 -1 9
-13 10 -12 5 3 -9 28 4 47 33 47 20 0 23 2 11 10 -12 8 -11 10 6 10 22 0 94
59 94 77 0 6 -6 13 -14 16 -8 3 -17 24 -21 46 -8 50 -27 68 -48 46 -9 -8 -24
-15 -34 -15 -10 0 -14 3 -8 8 11 8 35 91 35 122 0 27 -9 25 -61 -9z m45 -268
c-25 -19 -34 -16 -34 10 0 31 43 51 48 23 2 -11 -4 -26 -14 -33z m-68 -50
c-10 -10 -19 5 -10 18 6 11 8 11 12 0 2 -7 1 -15 -2 -18z"/>
<path d="M4750 1881 c0 -25 6 -27 13 -6 4 8 2 17 -3 20 -6 4 -10 -3 -10 -14z"/>
<path d="M4670 1881 c0 -5 5 -13 10 -16 6 -3 10 -2 10 4 0 5 -4 13 -10 16 -5
3 -10 2 -10 -4z"/>
<path d="M3435 1850 c3 -5 1 -10 -5 -10 -6 0 -8 -4 -5 -10 3 -5 13 -10 22 -10
9 0 26 -8 37 -17 12 -10 5 -1 -13 20 -34 36 -48 47 -36 27z"/>
<path d="M3455 1780 c3 -5 8 -10 11 -10 2 0 4 5 4 10 0 6 -5 10 -11 10 -5 0
-7 -4 -4 -10z"/>
<path d="M3496 1771 c-4 -7 -5 -15 -2 -18 9 -9 19 4 14 18 -4 11 -6 11 -12 0z"/>
<path d="M3030 1730 c-10 -19 -10 -20 9 -8 22 13 28 28 11 28 -5 0 -14 -9 -20
-20z"/>
<path d="M3820 1690 c-8 -5 -10 -10 -5 -10 6 0 17 5 25 10 8 5 11 10 5 10 -5
0 -17 -5 -25 -10z"/>
<path d="M3751 1644 c0 -11 3 -14 6 -6 3 7 2 16 -1 19 -3 4 -6 -2 -5 -13z"/>
<path d="M3810 1630 c-8 -5 -11 -12 -7 -16 4 -4 15 0 24 9 18 18 8 23 -17 7z"/>
<path d="M2911 1568 c-15 -24 -14 -43 2 -56 17 -14 87 3 87 22 0 40 -69 67
-89 34z"/>
<path d="M5340 1483 c0 -13 4 -23 9 -23 5 0 11 -10 14 -22 4 -12 9 -19 12 -16
4 3 -3 23 -14 45 -16 31 -20 34 -21 16z"/>
<path d="M2674 1479 c-9 -15 42 -63 60 -56 19 8 21 31 4 44 -19 15 -57 22 -64
12z"/>
<path d="M2991 1474 c-7 -8 -11 -18 -8 -20 7 -8 47 15 47 26 0 15 -23 11 -39
-6z"/>
<path d="M5222 1463 c7 -16 15 -32 20 -37 4 -6 8 -19 8 -30 0 -18 -1 -18 -18
-3 -26 24 -36 21 -12 -3 11 -11 23 -38 26 -60 4 -25 12 -40 21 -40 11 0 13 12
8 63 -9 90 -24 137 -46 137 -16 0 -17 -3 -7 -27z"/>
<path d="M2907 1399 c-9 -5 -23 -7 -30 -3 -9 5 -9 4 -1 -5 9 -10 18 -10 40 3
16 8 25 15 19 15 -5 0 -18 -4 -28 -10z"/>
<path d="M2826 1362 c-3 -5 1 -9 9 -9 8 0 15 4 15 9 0 4 -4 8 -9 8 -6 0 -12
-4 -15 -8z"/>
<path d="M2788 1353 c7 -3 16 -2 19 1 4 3 -2 6 -13 5 -11 0 -14 -3 -6 -6z"/>
<path d="M2757 1331 c-3 -14 -1 -18 9 -14 16 6 18 19 5 27 -5 3 -11 -3 -14
-13z"/>
<path d="M3926 1308 c5 -7 2 -9 -9 -5 -9 3 -26 -2 -39 -14 l-23 -20 35 7 c33
6 49 19 50 37 0 4 -5 7 -11 7 -5 0 -7 -5 -3 -12z"/>
<path d="M4971 1270 c1 -34 6 -50 15 -50 20 0 23 12 17 58 -8 62 -33 56 -32
-8z"/>
<path d="M4742 1227 c-12 -13 -22 -29 -22 -35 0 -6 -11 -19 -24 -27 -27 -18
-40 -52 -22 -59 6 -2 2 -5 -8 -5 -19 -1 -19 -2 2 -21 27 -26 29 -25 30 8 1 35
47 128 67 136 16 6 21 26 7 26 -5 0 -18 -10 -30 -23z"/>
<path d="M2576 1224 c-24 -24 -19 -30 7 -8 12 10 24 20 26 21 2 2 -1 3 -7 3
-6 0 -18 -7 -26 -16z"/>
<path d="M397 1190 c-4 -14 -6 -38 -6 -55 1 -27 2 -26 10 10 11 45 7 85 -4 45z"/>
<path d="M5428 1145 c-10 -10 1 -246 13 -283 8 -25 18 -34 40 -39 16 -3 32
-10 35 -14 3 -5 11 -9 17 -9 7 0 -9 18 -35 41 -27 22 -48 47 -48 55 0 24 16
15 35 -20 11 -19 22 -33 26 -30 4 2 18 -8 31 -23 12 -16 48 -46 78 -68 l55
-39 -50 59 c-27 33 -58 69 -68 80 -10 11 -33 39 -50 62 -33 43 -51 53 -60 31
-9 -23 -7 36 2 68 9 32 -9 141 -21 129z"/>
<path d="M3215 1040 c-38 -16 -63 -29 -55 -30 11 0 12 -2 2 -8 -9 -6 -5 -15
15 -34 28 -27 141 -88 162 -88 19 0 12 -19 -11 -31 -16 -9 -23 -9 -26 0 -2 6
-13 9 -26 5 -16 -4 -32 3 -53 20 -17 14 -34 26 -38 26 -4 0 4 -9 19 -21 14
-11 26 -26 26 -32 0 -8 -4 -7 -12 1 -7 7 -23 12 -35 12 -31 0 -75 29 -69 45 2
7 -11 19 -33 27 -35 14 -41 14 -77 -4 -21 -11 -61 -22 -89 -25 -27 -3 -53 -11
-57 -17 -4 -6 -26 -11 -50 -12 -70 -3 -151 -11 -178 -18 -39 -11 -170 -38
-220 -46 -52 -8 -100 -26 -100 -37 0 -5 -13 -15 -29 -25 -23 -13 -31 -27 -41
-71 -20 -100 7 -136 85 -111 22 7 60 15 85 16 45 4 45 4 45 42 0 55 10 60 215
97 63 11 138 23 165 25 28 2 66 7 85 11 19 3 51 6 70 6 19 0 40 4 47 9 8 7 10
3 6 -14 -3 -16 -2 -19 5 -10 5 7 19 14 30 15 12 1 22 6 22 12 0 6 3 6 8 -1 4
-7 39 -16 77 -22 87 -13 157 -30 169 -42 11 -11 17 -53 20 -145 2 -38 4 -90 6
-115 2 -42 3 -40 14 30 7 41 9 84 5 95 -3 11 -9 41 -13 68 -7 47 -7 47 21 47
15 0 35 0 43 0 8 1 40 -1 71 -3 53 -3 56 -2 51 17 -3 12 -1 18 3 14 13 -12 36
43 29 66 -4 12 -20 37 -36 56 -15 19 -24 36 -18 38 18 6 11 22 -10 22 -14 0
-20 6 -18 18 2 14 -6 18 -44 20 -29 2 -48 -1 -48 -7 0 -21 -20 -10 -26 14 -3
13 -14 27 -24 30 -10 3 -23 24 -30 50 -11 39 -16 45 -39 44 -14 0 -57 -13 -96
-29z"/>
<path d="M5467 1043 c-11 -11 -8 -20 8 -20 8 0 15 6 15 14 0 14 -12 17 -23 6z"/>
<path d="M4660 998 c0 -7 -9 -24 -20 -38 -25 -32 -25 -50 -1 -43 20 5 41 42
41 73 0 21 -20 28 -20 8z"/>
<path d="M0 972 c0 -4 18 -7 40 -7 22 0 40 3 40 7 0 5 -18 8 -40 8 -22 0 -40
-3 -40 -8z"/>
<path d="M5250 956 c0 -2 7 -9 15 -16 13 -11 14 -10 9 4 -5 14 -24 23 -24 12z"/>
<path d="M3945 928 c-22 -5 -62 -13 -90 -16 -29 -4 -51 -12 -51 -19 -1 -7 -2
-18 -3 -23 -1 -9 -19 -9 -61 -1 -3 1 2 6 10 12 11 8 2 9 -34 5 -27 -3 -51 -8
-53 -10 -7 -7 21 -46 37 -51 8 -3 68 6 133 19 93 19 121 29 137 48 16 19 28
51 18 47 -2 -1 -21 -5 -43 -11z"/>
<path d="M5360 919 c0 -5 5 -7 10 -4 6 3 10 8 10 11 0 2 -4 4 -10 4 -5 0 -10
-5 -10 -11z"/>
<path d="M5377 873 c-4 -3 -7 -11 -7 -17 0 -6 5 -5 12 2 6 6 9 14 7 17 -3 3
-9 2 -12 -2z"/>
<path d="M4665 851 c-5 -10 61 -81 76 -81 15 0 59 -51 59 -68 0 -11 3 -13 8
-6 11 17 85 23 112 9 16 -9 33 -9 61 -2 22 5 39 12 39 16 0 4 -28 12 -63 18
-34 7 -83 22 -107 34 -25 12 -54 27 -65 32 -10 5 -39 20 -64 33 -51 28 -48 27
-56 15z"/>
<path d="M4500 811 c0 -5 -9 -11 -19 -13 -18 -3 -18 -5 -5 -22 12 -17 19 -18
51 -10 20 5 39 15 41 23 3 8 0 11 -6 7 -6 -3 -12 -1 -14 6 -5 14 -48 22 -48 9z"/>
<path d="M2022 777 c-27 -28 -29 -47 -4 -24 10 10 22 14 25 10 4 -3 7 1 7 10
0 8 8 18 18 20 14 4 13 5 -4 6 -11 0 -30 -9 -42 -22z"/>
<path d="M5490 756 c0 -13 7 -26 15 -30 8 -3 15 -13 15 -22 0 -8 -6 -14 -12
-11 -7 2 -12 9 -11 15 2 6 -6 10 -16 9 -16 -1 -19 -13 -25 -81 -3 -44 -4 -81
-2 -83 2 -2 10 -1 18 2 21 8 38 49 39 93 0 20 3 31 6 25 13 -33 19 -7 10 42
-10 56 -37 85 -37 41z"/>
<path d="M5063 744 c-13 -14 -23 -30 -23 -35 0 -5 30 -9 68 -9 37 -1 93 -7
124 -14 67 -16 68 -7 5 40 -30 23 -57 34 -97 38 -50 5 -57 4 -77 -20z"/>
<path d="M4730 730 c-8 -5 -10 -10 -5 -10 6 0 17 5 25 10 8 5 11 10 5 10 -5 0
-17 -5 -25 -10z"/>
<path d="M1840 711 c0 -5 9 -11 20 -14 13 -3 20 0 20 9 0 8 -9 14 -20 14 -11
0 -20 -4 -20 -9z"/>
<path d="M3043 645 c0 -27 2 -38 4 -22 2 15 2 37 0 50 -2 12 -4 0 -4 -28z"/>
<path d="M4726 669 c-30 -24 -38 -66 -8 -50 25 14 62 50 62 61 0 17 -26 11
-54 -11z"/>
<path d="M5140 670 c0 -5 6 -10 13 -10 26 0 116 -50 127 -71 8 -14 15 -18 22
-11 14 14 -16 42 -83 75 -60 29 -79 33 -79 17z"/>
<path d="M4850 634 c0 -8 5 -12 10 -9 6 4 8 11 5 16 -9 14 -15 11 -15 -7z"/>
<path d="M3623 621 c-9 -14 -9 -22 -2 -27 15 -9 21 1 17 26 -3 21 -3 21 -15 1z"/>
<path d="M3303 614 c-3 -8 0 -26 7 -38 9 -18 9 -28 0 -46 -16 -29 -10 -32 19
-9 22 18 23 22 11 64 -13 46 -26 57 -37 29z"/>
<path d="M4604 569 c-19 -22 -19 -22 3 -10 24 12 39 31 25 31 -5 0 -17 -10
-28 -21z"/>
<path d="M4480 560 c0 -5 5 -10 11 -10 5 0 7 5 4 10 -3 6 -8 10 -11 10 -2 0
-4 -4 -4 -10z"/>
<path d="M5825 560 c-9 -15 -8 -76 2 -93 13 -21 22 12 15 58 -5 36 -10 46 -17
35z"/>
<path d="M3002 530 c0 -14 2 -19 5 -12 2 6 2 18 0 25 -3 6 -5 1 -5 -13z"/>
<path d="M4039 516 c-3 -3 -54 -12 -114 -21 -160 -24 -220 -39 -220 -56 2 -68
44 -231 65 -251 16 -15 25 -15 126 2 174 31 205 37 215 47 10 10 -5 145 -27
237 -5 19 -2 31 7 37 10 6 5 9 -17 9 -17 0 -33 -2 -35 -4z"/>
<path d="M4121 499 c-1 -36 28 -251 35 -258 3 -3 3 22 -1 55 -6 58 -6 62 17
67 13 4 40 4 61 0 41 -6 77 15 77 48 0 14 -11 18 -61 21 -45 2 -63 -1 -69 -11
-15 -27 -38 -3 -48 51 -5 29 -10 41 -11 27z"/>
<path d="M4635 472 c-10 -26 10 -34 30 -12 10 11 16 20 14 21 -2 0 -12 2 -21
4 -9 2 -19 -4 -23 -13z"/>
<path d="M4543 456 c-28 -13 -30 -26 -5 -26 19 0 42 18 42 32 0 10 -9 9 -37
-6z"/>
<path d="M2978 423 c-28 -31 -42 -63 -29 -63 5 0 12 6 15 13 3 6 3 -1 -1 -18
-16 -68 -17 -226 -3 -235 7 -4 12 -11 13 -16 2 -11 33 -9 172 12 220 33 239
38 246 65 4 15 7 17 8 7 1 -24 16 -30 55 -23 39 8 40 35 1 35 -35 0 -55 10
-55 28 0 12 4 12 21 -4 12 -10 20 -14 18 -9 -3 6 -11 24 -18 40 -36 81 -41 97
-35 108 4 7 4 9 -1 5 -4 -4 -22 3 -39 16 -25 19 -48 24 -121 29 -49 3 -107 13
-127 21 -56 24 -90 20 -120 -11z"/>
<path d="M6126 388 c-10 -39 -6 -44 14 -19 23 27 25 41 6 41 -7 0 -16 -10 -20
-22z"/>
<path d="M6192 384 c-24 -17 -30 -44 -9 -44 14 0 44 46 36 55 -3 2 -15 -2 -27
-11z"/>
<path d="M3552 373 c-6 -2 -10 -8 -8 -12 3 -4 7 -26 10 -48 2 -23 13 -56 23
-75 l18 -33 7 55 c12 81 11 93 -8 107 -19 14 -22 14 -42 6z"/>
<path d="M6242 359 c-23 -21 -28 -44 -13 -54 12 -7 51 33 51 51 0 23 -16 24
-38 3z"/>
<path d="M3493 318 c6 -29 27 -87 38 -110 12 -23 -7 -24 -19 -2 -6 10 -12 13
-16 6 -11 -17 21 -40 48 -35 14 3 26 7 26 10 0 10 -72 153 -77 153 -3 0 -3
-10 0 -22z"/>
<path d="M3681 315 c1 -11 1 -35 0 -52 -1 -31 -3 -32 -31 -26 -40 7 -38 -9 3
-28 49 -23 67 -15 67 31 0 21 -6 45 -13 52 -8 7 -17 20 -20 28 -5 11 -6 9 -6
-5z m26 -67 c-3 -7 -5 -2 -5 12 0 14 2 19 5 13 2 -7 2 -19 0 -25z"/>
<path d="M6282 314 c-16 -18 -7 -34 19 -34 15 0 20 6 17 22 -4 27 -19 32 -36
12z"/>
<path d="M5820 304 c-14 -7 -20 -14 -15 -14 6 0 18 -12 27 -27 l17 -28 1 27
c0 14 3 33 6 42 7 19 -2 19 -36 0z"/>
<path d="M6040 282 c0 -21 39 -42 76 -42 l39 1 -50 24 c-55 26 -65 29 -65 17z"/>
<path d="M5992 258 c2 -18 10 -24 38 -26 34 -2 34 -2 15 14 -11 8 -28 20 -38
26 -16 8 -18 6 -15 -14z"/>
<path d="M6185 260 c-9 -15 -1 -23 21 -18 15 3 16 4 1 16 -11 9 -17 10 -22 2z"/>
<path d="M491 218 c0 -9 -4 -25 -7 -35 -5 -17 -5 -17 6 0 6 10 9 25 7 35 -4
15 -5 15 -6 0z"/>
<path d="M5237 203 c-4 -3 -7 -11 -7 -17 0 -6 5 -5 12 2 6 6 9 14 7 17 -3 3
-9 2 -12 -2z"/>
<path d="M6125 180 c7 -12 45 -14 45 -2 0 4 -11 9 -26 10 -14 1 -23 -2 -19 -8z"/>
<path d="M6280 170 c0 -5 5 -10 10 -10 6 0 10 5 10 10 0 6 -4 10 -10 10 -5 0
-10 -4 -10 -10z"/>
<path d="M5820 150 c-82 -10 -130 -20 -130 -27 0 -8 72 -107 85 -115 5 -4 25
-8 43 -8 26 0 32 4 32 23 1 12 14 38 30 57 17 19 30 43 31 55 0 13 3 15 6 6 3
-8 21 -28 39 -45 35 -31 48 -60 17 -35 -13 11 -12 6 4 -21 12 -19 30 -37 40
-38 15 -3 16 -1 6 9 -18 18 -16 26 7 32 20 5 44 -11 53 -35 2 -7 8 -10 12 -5
14 12 -16 55 -50 71 -18 9 -55 31 -83 51 -28 19 -60 34 -69 34 -10 -1 -43 -5
-73 -9z"/>
<path d="M6050 147 c0 -8 21 -29 48 -46 26 -18 54 -47 63 -64 23 -47 43 -47
22 0 -23 51 -45 75 -93 102 -30 17 -40 19 -40 8z"/>
<path d="M6191 131 c18 -16 37 -27 42 -24 13 8 -34 53 -56 53 -16 0 -14 -5 14
-29z"/>
<path d="M5536 104 c-38 -7 -74 -18 -79 -23 -5 -5 -16 -7 -23 -4 -8 3 -14 0
-14 -7 0 -8 8 -10 23 -7 12 4 40 8 62 10 22 3 32 2 23 0 -23 -6 -23 -15 3 -47
17 -22 28 -26 72 -26 l52 1 -37 20 c-25 12 -38 27 -38 39 0 11 -5 20 -12 20
-22 0 4 15 45 27 60 16 9 15 -77 -3z"/>
<path d="M3058 53 c7 -3 16 -2 19 1 4 3 -2 6 -13 5 -11 0 -14 -3 -6 -6z"/>
<path d="M5080 29 c-63 -10 -124 -20 -135 -22 -11 -2 62 -5 162 -6 l183 -1
-12 25 c-14 30 -33 31 -198 4z"/>
<path d="M415 10 c-3 -5 -1 -10 4 -10 6 0 11 5 11 10 0 6 -2 10 -4 10 -3 0 -8
-4 -11 -10z"/>
</g>
</svg>
