<?xml version="1.0" standalone="no"?>
<!DOCTYPE svg PUBLIC "-//W3C//DTD SVG 20010904//EN"
 "http://www.w3.org/TR/2001/REC-SVG-20010904/DTD/svg10.dtd">
<svg version="1.0" xmlns="http://www.w3.org/2000/svg"
 width="800.000000pt" height="533.000000pt" viewBox="0 0 800.000000 533.000000"
 preserveAspectRatio="xMidYMid meet">

<g transform="translate(0.000000,533.000000) scale(0.100000,-0.100000)"
fill="#000000" stroke="none">
<path d="M1064 5314 c3 -9 9 -28 13 -42 7 -28 20 -51 122 -214 59 -93 203
-259 215 -247 10 10 -151 317 -218 417 -65 96 -71 102 -104 102 -27 0 -33 -3
-28 -16z"/>
<path d="M6 4978 c-3 -13 -6 -43 -6 -69 0 -39 7 -54 49 -110 56 -73 171 -287
171 -317 0 -12 4 -23 9 -26 13 -9 1 -46 -15 -46 -18 0 -18 -14 1 -30 8 -7 12
-16 10 -21 -3 -4 12 -56 34 -113 36 -96 45 -110 100 -161 108 -101 156 -202
162 -342 l4 -81 -25 10 c-67 26 -250 3 -365 -47 -22 -9 -61 -23 -87 -31 -39
-12 -48 -19 -48 -38 l0 -23 88 35 c229 91 401 104 475 34 16 -15 59 -88 96
-162 37 -74 84 -161 104 -194 20 -32 52 -102 72 -155 21 -53 44 -116 53 -140
24 -64 40 -70 104 -42 84 37 252 96 359 125 31 9 69 23 85 31 16 8 34 15 39
15 19 1 57 40 52 53 -3 7 1 24 8 38 11 19 11 27 1 39 -10 11 -11 41 -7 112 3
53 3 94 -2 91 -4 -2 -7 14 -7 35 0 22 -7 75 -15 118 -8 44 -15 102 -17 129 -2
47 -20 85 -40 85 -4 0 -8 -7 -8 -15 0 -11 -11 -15 -40 -15 -22 0 -40 -4 -40
-10 0 -5 -10 -10 -22 -10 -13 0 -47 -9 -75 -20 -29 -11 -53 -17 -53 -14 0 4
-6 2 -12 -3 -18 -14 -79 -7 -90 9 -5 8 -6 2 -2 -17 4 -20 -14 3 -53 66 -32 53
-68 109 -80 125 -22 27 -22 26 3 -31 14 -33 30 -66 36 -72 12 -14 4 -43 -11
-43 -6 0 -8 6 -5 14 11 28 -119 -3 -147 -36 -9 -10 -28 -18 -42 -18 -17 0 -28
-7 -32 -20 -3 -11 -12 -20 -18 -20 -17 1 -47 25 -47 38 0 6 -16 41 -35 79 -19
37 -35 79 -35 92 0 23 -8 56 -32 126 -5 17 -14 46 -18 66 -5 19 -22 57 -37 83
-54 93 -84 151 -97 191 -8 22 -18 49 -22 59 -5 14 -4 17 4 12 23 -14 11 11
-23 50 -20 21 -38 49 -41 62 -4 12 -10 22 -14 22 -5 0 -11 13 -15 30 -3 16
-29 53 -56 82 -28 29 -59 70 -70 91 -46 89 -169 256 -195 264 -6 2 -14 -6 -18
-19z"/>
<path d="M1658 4433 c7 -3 16 -2 19 1 4 3 -2 6 -13 5 -11 0 -14 -3 -6 -6z"/>
<path d="M7765 4389 c-96 -47 -128 -154 -89 -303 16 -61 13 -138 -5 -160 -6
-7 -14 -31 -20 -55 -10 -44 -3 -76 33 -154 19 -41 62 -190 81 -282 19 -90 19
-193 0 -292 -8 -43 -15 -120 -15 -171 0 -84 -23 -273 -36 -294 -9 -15 107 17
234 64 l52 19 0 511 c0 365 -3 522 -12 550 -9 31 -9 44 0 59 8 13 12 80 12
212 0 180 -1 196 -22 237 -39 77 -128 101 -213 59z"/>
<path d="M1935 4280 c3 -5 8 -10 11 -10 2 0 4 5 4 10 0 6 -5 10 -11 10 -5 0
-7 -4 -4 -10z"/>
<path d="M2204 4154 c4 -21 14 -50 21 -64 7 -14 14 -50 16 -80 1 -30 7 -58 13
-62 7 -5 7 -8 -1 -8 -7 0 -13 -7 -13 -16 0 -8 5 -12 10 -9 6 3 10 -3 10 -14 0
-13 -5 -18 -13 -15 -23 8 -37 -21 -44 -90 -7 -73 10 -146 34 -146 7 0 13 6 13
13 0 6 5 4 11 -6 6 -11 9 -29 6 -43 -2 -13 0 -21 4 -18 5 3 10 0 10 -5 1 -6 3
-15 4 -21 1 -5 3 -14 4 -20 0 -5 12 -10 26 -10 28 0 31 -13 14 -57 -7 -19 -7
-29 0 -31 6 -2 11 -10 11 -18 0 -8 5 -14 10 -14 7 0 10 28 9 75 -3 67 -5 74
-23 72 -17 -2 -22 13 -47 143 -15 80 -25 147 -23 149 3 3 19 7 37 9 18 2 41 5
53 6 11 1 25 5 31 9 6 4 18 4 26 1 8 -3 18 -1 22 5 3 6 15 11 26 11 13 0 19 7
19 21 0 21 -3 21 -93 16 l-94 -4 -38 124 c-38 122 -65 175 -51 97z"/>
<path d="M5425 3833 c-1 -60 -5 -133 -9 -165 -8 -50 -6 -60 13 -87 13 -17 27
-29 32 -25 5 3 7 9 4 14 -3 5 0 20 6 32 18 33 28 98 19 122 -7 18 -26 99 -45
189 -12 56 -20 24 -20 -80z"/>
<path d="M5005 3829 c-8 -12 -11 -10 43 -39 23 -13 42 -27 42 -31 0 -4 8 -10
18 -13 9 -4 -5 16 -33 43 -52 53 -60 58 -70 40z"/>
<path d="M1606 3817 c-14 -10 -17 -23 -14 -50 2 -20 1 -37 -3 -37 -4 0 -9 -8
-12 -17 -2 -13 -8 -8 -19 17 l-15 35 -12 -24 c-8 -14 -10 -35 -6 -55 4 -17 9
-68 12 -113 2 -46 9 -83 14 -83 6 0 9 -17 8 -37 -5 -75 1 -193 10 -193 5 0 13
35 18 78 l10 77 3 -75 c1 -41 4 -67 7 -57 4 14 8 16 19 6 19 -16 18 -39 -3
-39 -16 -1 -16 -2 1 -15 10 -8 28 -13 40 -11 17 3 20 9 18 39 -2 19 1 38 7 42
7 4 9 -1 6 -12 -3 -10 0 -7 7 7 25 49 46 61 96 59 26 -1 55 1 65 5 9 5 23 6
31 3 8 -3 20 1 26 8 17 21 33 7 26 -21 -4 -16 -2 -24 6 -24 9 0 8 -3 -2 -10
-11 -7 -7 -10 17 -10 40 0 46 9 28 44 -8 14 -12 33 -8 41 3 8 0 15 -6 15 -6 0
-11 9 -11 20 0 11 -4 20 -10 20 -5 0 -14 10 -21 21 -7 15 -8 19 0 15 7 -5 9
-1 5 8 -3 9 -10 16 -16 16 -5 0 -6 9 -3 20 4 11 2 20 -4 20 -6 0 -11 10 -11
21 0 32 -109 158 -158 183 -18 9 -36 24 -39 32 -5 13 -63 44 -82 44 -4 0 -15
-6 -25 -13z"/>
<path d="M5188 3669 c-11 -6 -18 -22 -18 -42 0 -34 -32 -209 -49 -265 -11 -35
-6 -62 12 -62 14 0 97 91 97 107 0 6 -3 14 -7 16 -12 8 -7 190 5 214 8 14 8
23 0 31 -14 14 -18 14 -40 1z"/>
<path d="M2252 3630 c0 -14 2 -19 5 -12 2 6 2 18 0 25 -3 6 -5 1 -5 -13z"/>
<path d="M4951 3388 c-1 -14 -4 -35 -7 -45 -5 -14 -3 -13 10 4 12 16 14 27 7
45 -10 23 -10 23 -10 -4z"/>
<path d="M2120 3390 c0 -5 7 -10 15 -10 8 0 15 5 15 10 0 6 -7 10 -15 10 -8 0
-15 -4 -15 -10z"/>
<path d="M2005 3290 c3 -5 8 -10 11 -10 2 0 4 5 4 10 0 6 -5 10 -11 10 -5 0
-7 -4 -4 -10z"/>
<path d="M7398 3272 c-18 -3 -42 -57 -64 -140 -19 -72 -18 -87 9 -116 18 -22
28 -25 58 -20 42 7 42 8 42 129 0 99 -16 154 -45 147z"/>
<path d="M1660 3200 c0 -5 6 -10 14 -10 8 0 18 5 21 10 3 6 -3 10 -14 10 -12
0 -21 -4 -21 -10z"/>
<path d="M1600 3160 c0 -5 5 -10 11 -10 5 0 7 -5 3 -12 -4 -7 -3 -8 5 -4 6 4
9 11 6 16 -3 5 5 11 17 13 17 3 14 5 -9 6 -18 0 -33 -3 -33 -9z"/>
<path d="M7290 2563 c-8 -15 -16 -31 -18 -35 -2 -5 6 -8 17 -8 28 0 44 32 28
54 -12 16 -14 15 -27 -11z"/>
<path d="M2616 2287 c3 -10 9 -15 12 -12 3 3 0 11 -7 18 -10 9 -11 8 -5 -6z"/>
<path d="M0 2285 c0 -5 5 -17 10 -25 5 -8 10 -10 10 -5 0 6 -5 17 -10 25 -5 8
-10 11 -10 5z"/>
<path d="M32 2228 c2 -6 10 -14 16 -16 7 -2 10 2 6 12 -7 18 -28 22 -22 4z"/>
<path d="M80 2180 c0 -5 5 -10 11 -10 5 0 7 5 4 10 -3 6 -8 10 -11 10 -2 0 -4
-4 -4 -10z"/>
<path d="M2621 1998 c1 -106 6 -201 12 -227 11 -42 15 -45 67 -61 30 -10 81
-30 112 -44 32 -15 60 -26 63 -26 3 0 22 -10 42 -22 43 -24 131 -50 137 -40 2
4 0 33 -4 65 -6 44 -14 63 -33 77 -30 24 -63 100 -47 110 12 8 -67 100 -87
100 -7 0 -19 14 -28 30 -9 17 -20 30 -25 30 -6 0 -10 5 -10 10 0 6 9 10 20 10
11 0 20 4 20 10 0 5 -10 9 -22 7 -15 -1 -26 5 -32 20 -10 20 -88 68 -113 68
-21 0 -23 11 -1 12 11 1 23 4 26 8 9 8 -31 33 -44 28 -7 -2 -22 0 -33 6 -20
11 -20 9 -20 -171z m53 61 c-3 -5 -14 -9 -25 -9 -10 0 -19 4 -19 9 0 5 11 9
25 9 13 0 22 -4 19 -9z"/>
<path d="M100 2144 c0 -9 5 -12 12 -8 8 5 9 2 5 -10 -4 -10 -7 -22 -7 -28 0
-6 -7 -7 -16 -4 -13 5 -15 2 -11 -15 4 -14 -3 -33 -19 -54 -13 -17 -24 -36
-24 -41 0 -5 -9 -16 -20 -24 -17 -12 -20 -26 -20 -82 0 -61 2 -68 19 -68 11 0
28 13 37 29 10 17 21 28 26 25 4 -3 8 1 8 9 0 16 41 57 58 57 11 0 17 26 13
58 -1 6 3 12 9 12 5 0 10 -4 10 -10 0 -5 9 -10 20 -10 11 0 20 5 20 10 0 6 -4
10 -10 10 -5 0 -10 5 -10 11 0 6 9 9 20 6 11 -3 20 -1 20 4 0 5 -4 9 -8 9 -5
0 -21 18 -38 39 -16 22 -38 42 -49 45 -10 3 -16 8 -13 12 7 6 -15 34 -26 34
-3 0 -6 -7 -6 -16z m40 -74 c0 -5 -2 -10 -4 -10 -3 0 -8 5 -11 10 -3 6 -1 10
4 10 6 0 11 -4 11 -10z"/>
<path d="M1718 1943 c7 -3 16 -2 19 1 4 3 -2 6 -13 5 -11 0 -14 -3 -6 -6z"/>
<path d="M2195 1919 c-5 -14 -1 -27 10 -38 16 -15 16 -15 4 7 -12 21 -12 25 5
38 17 12 17 14 4 14 -9 0 -20 -10 -23 -21z"/>
<path d="M320 1912 c0 -6 7 -12 15 -16 13 -5 13 -9 3 -28 -7 -12 -23 -31 -35
-43 -12 -11 -24 -37 -28 -58 -4 -22 -13 -37 -21 -37 -8 0 -14 -7 -14 -15 0 -9
-9 -28 -20 -43 -10 -15 -24 -56 -29 -91 -6 -36 -15 -69 -21 -75 -7 -7 -10 -6
-10 4 0 12 -2 12 -12 1 -10 -11 -10 -14 0 -18 16 -6 15 -21 -3 -39 -8 -9 -15
-22 -15 -30 0 -8 7 -14 15 -14 9 0 15 9 15 25 0 14 4 25 8 25 5 0 34 24 65 53
39 38 58 65 66 95 8 28 16 39 25 36 9 -3 24 14 42 50 23 45 33 56 54 57 14 0
19 3 13 6 -20 7 -15 21 8 25 20 3 20 5 -12 44 -37 44 -109 101 -109 86z"/>
<path d="M1645 1910 c-3 -5 -2 -10 4 -10 5 0 13 5 16 10 3 6 2 10 -4 10 -5 0
-13 -4 -16 -10z"/>
<path d="M4973 1888 c-29 -5 -53 -13 -53 -18 0 -11 26 -31 45 -34 9 -1 21 -9
26 -17 6 -10 9 -10 9 -1 0 6 6 12 13 12 12 0 22 14 45 63 4 9 -17 8 -85 -5z"/>
<path d="M4730 1880 c0 -5 7 -10 16 -10 8 0 12 5 9 10 -3 6 -10 10 -16 10 -5
0 -9 -4 -9 -10z"/>
<path d="M1545 1860 c-3 -6 1 -7 9 -4 18 7 21 14 7 14 -6 0 -13 -4 -16 -10z"/>
<path d="M2175 1854 c11 -8 28 -21 38 -29 15 -13 17 -13 17 1 0 10 6 14 15 10
10 -4 15 1 15 16 0 19 -1 20 -17 5 -16 -13 -21 -14 -43 -2 -33 19 -50 18 -25
-1z"/>
<path d="M4861 1823 c30 -51 33 -53 24 -18 -4 17 -8 36 -8 43 0 6 -9 12 -19
12 -19 0 -19 -2 3 -37z"/>
<path d="M2160 1836 c0 -2 7 -6 15 -10 8 -3 15 -1 15 4 0 6 -7 10 -15 10 -8 0
-15 -2 -15 -4z"/>
<path d="M1426 1775 c-3 -8 -1 -15 4 -15 6 0 10 7 10 15 0 8 -2 15 -4 15 -2 0
-6 -7 -10 -15z"/>
<path d="M1388 1703 c-12 -12 -24 -20 -28 -18 -11 7 -21 -22 -14 -39 3 -8 -1
-43 -10 -78 -8 -34 -18 -82 -21 -105 -4 -24 -13 -47 -21 -51 -21 -12 -29 -110
-15 -183 9 -44 9 -65 2 -72 -6 -6 -11 -37 -11 -70 0 -33 -4 -56 -9 -52 -14 8
-22 89 -31 325 l-8 215 1 -280 c0 -154 -1 -296 -3 -315 -2 -32 -3 -33 -9 -10
l-7 25 -19 -28 c-14 -22 -16 -30 -6 -37 10 -6 10 -12 2 -29 -15 -27 -27 -27
-42 0 -8 16 -8 23 0 29 14 8 5 36 -15 44 -19 7 -41 -33 -24 -44 9 -6 9 -13 1
-29 -15 -27 -27 -27 -42 0 -8 16 -8 23 1 29 9 6 9 13 -1 31 -7 15 -14 19 -17
11 -2 -7 -20 -12 -43 -12 -28 0 -39 -4 -39 -15 0 -8 7 -15 16 -15 12 0 14 -10
12 -47 -4 -56 -28 -73 -28 -19 0 35 -1 36 -40 36 -29 0 -40 4 -40 15 0 8 7 15
15 15 11 0 15 11 15 40 0 22 -4 40 -9 40 -5 0 -12 8 -14 18 -4 16 -5 16 -6 0
-1 -14 -10 -18 -41 -18 l-40 0 0 -40 c0 -29 -4 -40 -15 -40 -12 0 -15 16 -15
80 0 64 3 80 15 80 8 0 15 5 15 10 0 6 -18 10 -40 10 -39 0 -40 -1 -40 -35 l0
-35 -80 0 c-64 0 -80 -3 -80 -15 0 -8 7 -15 15 -15 18 0 18 -16 0 -55 l-13
-30 -1 28 c-1 25 -4 27 -41 27 l-40 0 0 205 c0 113 -4 205 -8 205 -5 0 -27
-20 -49 -44 -26 -28 -56 -49 -83 -57 -23 -7 -49 -24 -60 -39 -10 -15 -36 -32
-58 -38 -21 -7 -52 -23 -68 -37 -16 -14 -39 -28 -51 -31 -13 -4 -23 -12 -23
-19 0 -7 -11 -12 -25 -12 -57 0 -55 22 -55 -569 l0 -544 1386 0 1385 0 -4 38
c-2 20 -11 71 -20 112 -9 41 -23 118 -32 170 -29 169 -91 469 -105 506 -5 13
-20 26 -34 30 -18 4 -26 15 -31 42 -4 20 -14 50 -23 67 -9 16 -15 33 -14 38 1
4 -3 7 -8 7 -6 0 -10 12 -10 26 0 14 -4 23 -10 19 -5 -3 -10 1 -10 9 0 8 -9
20 -20 26 -11 6 -20 21 -20 33 -1 18 -2 19 -10 7 -12 -21 -14 -129 -5 -217 5
-49 4 -73 -2 -73 -6 0 -14 -15 -17 -32 -4 -18 -16 -44 -27 -58 l-20 -25 4 63
c2 46 0 62 -10 63 -7 1 -18 2 -24 3 -21 2 -28 39 -28 152 -1 82 3 115 14 130
20 27 18 57 -5 72 -12 7 -20 8 -20 2 0 -6 -8 -5 -20 2 -11 7 -20 18 -20 25 0
7 -7 13 -15 13 -11 0 -15 -12 -15 -49 0 -41 -4 -53 -25 -69 -14 -11 -25 -25
-25 -31 0 -6 -11 -11 -25 -11 -22 0 -25 -4 -25 -40 0 -29 -4 -40 -15 -40 -21
0 -21 139 0 180 19 37 30 38 49 3 15 -27 15 -24 16 55 l0 82 30 0 c33 0 37 7
16 35 -12 16 -16 17 -30 6 -11 -9 -16 -10 -16 -2 0 7 -28 11 -80 11 -64 0 -80
3 -80 15 0 42 -34 -6 -45 -64 -5 -26 -24 -43 -38 -34 -13 8 -47 -27 -47 -49 0
-10 -7 -18 -15 -18 -8 0 -15 5 -15 10 0 15 -107 13 -114 -2 -5 -10 -7 -10 -12
0 -3 6 -19 12 -35 12 -27 0 -29 2 -29 40 0 22 -4 40 -10 40 -5 0 -10 18 -10
40 0 22 5 40 10 40 6 0 10 33 10 78 1 52 5 83 15 96 8 11 15 37 15 58 l0 38
-49 0 c-41 0 -53 4 -69 25 -21 27 -67 34 -75 13 -4 -10 -8 -10 -14 -1 -13 18
-62 10 -85 -14z m-8 -69 c0 -8 -4 -14 -10 -14 -5 0 -10 9 -10 21 0 11 5 17 10
14 6 -3 10 -13 10 -21z m234 1 c-4 -8 -8 -15 -10 -15 -2 0 -4 7 -4 15 0 8 4
15 10 15 5 0 7 -7 4 -15z m-4 -185 c0 -38 -2 -40 -30 -40 l-30 0 15 36 c8 20
15 38 15 40 0 2 7 4 15 4 11 0 15 -11 15 -40z m-6 -107 c3 -21 6 -50 6 -65 0
-24 -4 -28 -30 -28 -28 0 -30 2 -30 40 0 29 -4 40 -15 40 -8 0 -15 7 -15 15 0
10 10 15 30 15 17 0 30 5 30 10 0 6 4 10 9 10 4 0 11 -17 15 -37z m-367 -410
c-2 -16 -4 -3 -4 27 0 30 2 43 4 28 2 -16 2 -40 0 -55z m33 70 c0 -5 -5 -15
-10 -23 -8 -12 -10 -11 -10 8 0 12 5 22 10 22 6 0 10 -3 10 -7z m-3 -125 c-2
-13 -4 -5 -4 17 -1 22 1 32 4 23 2 -10 2 -28 0 -40z m1120 -278 c1 -11 -2 -22
-8 -25 -10 -7 -13 28 -2 38 9 9 9 10 10 -13z m-60 -12 c-3 -8 -6 -5 -6 6 -1
11 2 17 5 13 3 -3 4 -12 1 -19z m40 -54 c-3 -3 -12 -4 -19 -1 -8 3 -5 6 6 6
11 1 17 -2 13 -5z m33 -216 c6 -51 15 -106 21 -121 7 -15 9 -30 6 -33 -11 -12
-40 113 -62 271 l-5 40 15 -32 c8 -18 19 -74 25 -125z"/>
<path d="M1222 1670 c0 -14 2 -19 5 -12 2 6 2 18 0 25 -3 6 -5 1 -5 -13z"/>
<path d="M4684 1658 c3 -9 8 -43 12 -76 6 -56 5 -60 -22 -81 -16 -13 -66 -41
-111 -63 -46 -22 -83 -45 -82 -51 0 -8 2 -8 6 1 2 6 9 12 15 12 6 0 6 -6 -2
-15 -7 -8 -17 -15 -23 -15 -5 0 -18 -10 -28 -21 -10 -12 -25 -19 -32 -16 -8 3
-20 1 -28 -5 -11 -8 -10 -8 5 -4 15 5 17 4 7 -8 -6 -8 -27 -17 -46 -20 -19 -4
-35 -11 -35 -15 0 -5 -13 -14 -30 -21 -25 -10 -35 -9 -67 6 -46 23 -63 54 -63
117 0 48 22 107 40 107 6 0 10 5 10 12 0 6 -11 1 -25 -12 -27 -26 -35 -12 -9
15 23 22 6 37 -46 41 -41 4 -70 22 -70 44 0 12 -48 33 -60 25 -9 -6 -73 15
-80 26 -5 6 -154 14 -172 9 -18 -6 -29 -8 -48 -9 -30 -2 -25 -33 10 -56 16
-11 35 -31 42 -45 7 -14 17 -29 23 -33 6 -6 6 -10 -2 -14 -7 -2 -13 -15 -13
-27 0 -28 64 -53 88 -34 10 9 18 6 35 -14 12 -13 43 -33 70 -43 26 -10 47 -24
47 -31 0 -15 27 -25 55 -20 13 2 22 -4 25 -17 4 -14 25 -28 63 -43 31 -12 55
-18 52 -13 -9 13 2 11 28 -5 27 -17 130 -6 156 18 23 21 109 66 125 66 12 0
28 22 30 42 3 25 147 113 171 105 30 -12 40 54 15 108 -36 81 -41 90 -36 73z"/>
<path d="M1680 1530 c0 -22 5 -40 10 -40 6 0 10 18 10 40 0 22 -4 40 -10 40
-5 0 -10 -18 -10 -40z"/>
<path d="M668 1543 c7 -3 16 -2 19 1 4 3 -2 6 -13 5 -11 0 -14 -3 -6 -6z"/>
<path d="M6181 1497 c-6 -6 -11 -28 -11 -48 0 -27 -8 -44 -28 -65 -25 -25 -62
-111 -62 -143 0 -6 12 -11 26 -11 17 0 28 6 31 20 3 11 9 20 14 20 5 0 9 5 9
10 0 6 -7 10 -15 10 -10 0 -1 14 24 40 22 22 46 40 54 40 17 0 27 21 27 56 0
14 5 34 11 46 13 24 13 24 -32 31 -21 3 -41 1 -48 -6z"/>
<path d="M5957 1493 c-11 -10 -8 -53 3 -53 14 0 13 -46 -1 -73 -7 -12 -27 -39
-45 -60 -19 -20 -34 -45 -34 -55 0 -9 -3 -35 -7 -56 l-6 -39 26 19 c15 10 32
35 38 54 6 19 27 55 45 79 19 24 34 50 34 57 0 7 6 19 14 26 18 18 2 63 -19
54 -19 -7 -19 8 0 24 8 7 12 16 9 21 -6 10 -48 12 -57 2z"/>
<path d="M6310 1490 c0 -5 5 -10 11 -10 5 0 7 5 4 10 -3 6 -8 10 -11 10 -2 0
-4 -4 -4 -10z"/>
<path d="M6095 1460 c-10 -11 -16 -22 -14 -24 2 -2 12 7 22 20 22 29 17 32 -8
4z"/>
<path d="M490 1330 c0 -73 2 -80 20 -80 17 0 20 7 20 40 0 22 5 40 10 40 6 0
10 18 10 40 0 38 -2 40 -30 40 l-30 0 0 -80z"/>
<path d="M5768 1392 c-20 -4 -19 -1 -22 -92 -2 -55 -9 -80 -49 -162 -26 -53
-47 -99 -47 -102 0 -10 44 38 56 60 7 12 18 39 24 61 7 21 21 49 31 63 10 14
21 44 25 68 5 35 4 42 -10 42 -20 0 -20 5 0 36 19 27 17 32 -8 26z"/>
<path d="M30 1312 c0 -10 -7 -28 -16 -40 -14 -21 -14 -22 10 -22 18 0 26 5 26
18 0 10 7 28 16 40 14 21 14 22 -10 22 -18 0 -26 -5 -26 -18z"/>
<path d="M1710 1290 c0 -22 5 -40 10 -40 6 0 10 18 10 40 0 22 -4 40 -10 40
-5 0 -10 -18 -10 -40z"/>
<path d="M4810 1309 c0 -30 -13 -48 -58 -79 -49 -33 -32 -35 34 -3 65 32 74
48 45 84 l-20 24 -1 -26z"/>
<path d="M0 1195 c0 -16 6 -25 15 -25 16 0 19 9 9 34 -9 25 -24 19 -24 -9z"/>
<path d="M5511 1162 c-51 -57 -133 -122 -191 -150 -46 -22 -84 -48 -87 -59 -2
-6 8 -14 22 -17 21 -5 39 1 82 30 30 20 57 42 60 50 3 8 9 11 14 8 5 -3 9 2 9
10 0 8 6 16 13 18 24 6 139 137 135 154 -2 13 -18 1 -57 -44z"/>
<path d="M4680 1133 c-58 -44 -62 -56 -11 -35 33 14 70 57 59 67 -2 2 -23 -13
-48 -32z"/>
<path d="M5023 1126 c3 -8 -10 -32 -29 -54 -43 -51 -45 -76 -1 -35 17 17 44
37 59 45 27 13 27 15 12 36 -17 24 -50 31 -41 8z"/>
<path d="M927 1036 c-4 -10 -5 -21 -2 -24 9 -9 17 6 13 25 -3 17 -4 17 -11 -1z"/>
<path d="M4941 977 c-13 -21 -12 -21 5 -5 10 10 16 20 13 22 -3 3 -11 -5 -18
-17z"/>
<path d="M7330 813 c-16 -47 -24 -53 -78 -53 -54 0 -97 -22 -117 -60 -46 -89
18 -150 156 -150 31 0 69 -4 85 -10 51 -17 157 -28 190 -18 68 18 55 69 -34
126 -106 68 -122 85 -141 143 -22 67 -44 75 -61 22z"/>
<path d="M7661 386 c-43 -46 -11 -96 103 -165 64 -38 121 -60 189 -70 l47 -8
0 84 c0 99 -14 130 -70 162 -32 18 -55 21 -142 21 -98 0 -106 -2 -127 -24z"/>
</g>
</svg>
