<?xml version="1.0" standalone="no"?>
<!DOCTYPE svg PUBLIC "-//W3C//DTD SVG 20010904//EN"
 "http://www.w3.org/TR/2001/REC-SVG-20010904/DTD/svg10.dtd">
<svg version="1.0" xmlns="http://www.w3.org/2000/svg"
 width="900.000000pt" height="600.000000pt" viewBox="0 0 900.000000 600.000000"
 preserveAspectRatio="xMidYMid meet">

<g transform="translate(0.000000,600.000000) scale(0.100000,-0.100000)"
fill="#000000" stroke="none">
<path d="M6821 4823 c-8 -9 -16 -11 -20 -5 -7 11 -26 9 -103 -7 -32 -7 -60
-17 -64 -22 -3 -5 -27 -20 -54 -34 -53 -27 -62 -35 -105 -91 -16 -21 -48 -58
-70 -81 -22 -22 -39 -46 -37 -52 2 -7 -2 -18 -8 -27 -7 -8 -11 -17 -8 -19 2
-3 32 27 67 65 56 63 64 69 83 59 12 -6 43 -11 71 -11 45 0 54 -4 87 -39 20
-22 64 -57 98 -78 35 -23 81 -66 110 -103 28 -35 64 -73 81 -85 38 -29 47 -73
27 -130 -8 -24 -13 -43 -9 -43 3 0 0 -7 -7 -15 -9 -11 -10 -18 -1 -29 9 -11 8
-15 -4 -20 -14 -5 -14 -9 0 -36 11 -21 15 -46 11 -75 -3 -33 -1 -45 11 -49 56
-22 193 26 192 68 0 12 5 46 10 76 6 30 13 71 16 90 4 19 14 46 23 59 43 60
51 76 43 85 -4 6 -8 24 -9 39 -1 16 -5 34 -9 40 -5 7 -8 36 -8 65 0 38 -5 57
-16 66 -13 9 -15 21 -9 58 7 49 -11 108 -33 108 -6 0 -3 6 7 13 16 12 16 14 2
26 -18 15 -106 39 -123 34 -7 -3 -13 -11 -13 -19 0 -8 -9 -14 -20 -14 -14 0
-20 6 -18 18 4 23 -30 17 -55 -9 -10 -10 -21 -19 -24 -19 -4 0 6 13 22 30 15
16 29 40 31 54 2 22 0 23 -24 16 -15 -4 -40 -15 -57 -24 -35 -19 -41 -15 -23
16 23 38 17 60 -17 63 -17 1 -36 -4 -44 -12z m299 -157 c0 -2 -9 -6 -20 -9
-11 -3 -20 -1 -20 4 0 5 9 9 20 9 11 0 20 -2 20 -4z m7 -73 c-4 -3 1 -12 11
-19 14 -11 14 -13 2 -14 -8 0 -22 5 -30 10 -13 9 -13 11 0 20 17 11 26 13 17
3z m38 -53 c3 -5 1 -10 -4 -10 -6 0 -11 5 -11 10 0 6 2 10 4 10 3 0 8 -4 11
-10z m-28 -61 c14 -37 5 -36 -29 5 -27 33 -27 33 -5 29 14 -3 28 -16 34 -34z
m-17 -27 c0 -4 12 -15 28 -24 20 -13 22 -18 10 -18 -10 0 -18 -7 -18 -15 0 -8
-3 -15 -7 -15 -5 0 -18 -3 -30 -6 -17 -5 -23 -2 -23 10 0 9 -4 16 -10 16 -5 0
-10 5 -10 11 0 5 4 8 9 4 5 -3 12 -1 15 4 3 5 -1 12 -10 15 -8 3 -12 10 -9 16
7 12 55 14 55 2z m-78 -114 c-7 -7 -12 -8 -12 -2 0 14 12 26 19 19 2 -3 -1
-11 -7 -17z"/>
<path d="M7310 4530 c0 -5 5 -10 11 -10 5 0 7 5 4 10 -3 6 -8 10 -11 10 -2 0
-4 -4 -4 -10z"/>
<path d="M4446 4445 c-3 -9 -6 -22 -5 -28 0 -7 5 -1 10 12 5 13 8 26 5 28 -2
2 -6 -3 -10 -12z"/>
<path d="M4281 4384 c0 -11 3 -14 6 -6 3 7 2 16 -1 19 -3 4 -6 -2 -5 -13z"/>
<path d="M6321 4381 c-19 -12 -7 -41 43 -97 51 -57 71 -52 38 9 -35 65 -65 98
-81 88z"/>
<path d="M4500 4357 c-30 -25 -52 -57 -65 -94 -24 -69 -64 -47 -66 36 -1 31
-4 45 -6 31 -3 -14 -8 -29 -13 -34 -5 -4 -7 -25 -5 -45 4 -34 4 -35 -4 -6 -8
28 -9 26 -11 -20 -3 -49 -3 -50 -11 -15 -7 32 -8 32 -5 -11 2 -26 8 -53 15
-60 44 -54 59 -76 62 -93 3 -17 15 -10 69 42 65 62 69 64 152 65 33 1 36 3 25
16 -11 14 -10 14 6 2 9 -7 23 -25 30 -39 12 -27 29 -38 107 -72 36 -15 39 -18
15 -15 -24 4 -26 4 -10 -4 61 -29 153 3 185 65 29 55 54 50 65 -14 3 -20 13
-48 21 -62 l14 -25 -6 29 c-5 20 -3 27 4 22 6 -3 13 -2 16 3 4 5 20 8 36 6 23
-3 30 0 31 13 0 10 3 12 6 5 2 -7 9 -13 14 -13 4 0 5 7 2 17 -4 11 -3 14 6 9
6 -4 9 -16 6 -26 -3 -10 -1 -21 5 -25 16 -10 12 41 -5 55 -8 7 -15 9 -15 4 0
-5 -7 -1 -15 10 -14 18 -36 19 -77 1 -15 -6 -18 -2 -18 19 0 37 34 48 102 35
29 -6 73 -21 98 -32 42 -21 45 -25 48 -65 2 -32 -3 -54 -23 -88 -14 -24 -30
-44 -36 -44 -6 0 -7 -5 -4 -10 17 -28 101 140 85 170 -5 9 -24 24 -43 35 -20
10 -33 25 -32 34 1 9 0 10 -2 3 -3 -8 -12 -10 -26 -6 -92 30 -140 30 -167 2
l-20 -22 0 22 c0 12 -6 22 -13 22 -7 0 -48 30 -92 66 -73 60 -82 65 -115 60
-21 -3 -30 -2 -21 3 8 5 -34 8 -102 7 -112 -2 -116 -1 -126 21 -12 25 -46 30
-71 10z m298 -69 c35 -9 42 -13 27 -18 -18 -6 -16 -9 12 -24 18 -9 36 -16 40
-16 9 0 23 -47 16 -54 -3 -2 -19 4 -36 15 -41 24 -102 25 -116 2 -9 -16 -10
-16 -11 5 l0 22 -22 -22 -23 -23 -3 42 c-6 80 19 96 116 71z m-139 -67 c-1
-27 -3 -30 -6 -12 -4 19 -7 21 -14 10 -6 -9 -9 0 -7 29 2 39 4 42 15 26 7 -10
12 -34 12 -53z m271 -20 c7 -11 17 -18 22 -15 4 3 8 -2 8 -10 0 -8 -10 -20
-21 -27 -15 -8 -19 -8 -15 0 4 6 1 25 -8 41 -16 34 -8 40 14 11z m-511 -34 c1
-5 -6 -1 -15 7 -8 9 -12 21 -8 28 5 8 10 6 15 -8 4 -10 8 -23 8 -27z m315 -8
c-2 -4 3 -10 12 -13 24 -9 36 -7 28 5 -13 21 40 -12 63 -39 22 -26 24 -27 52
-10 l30 16 -11 -24 c-16 -34 -51 -40 -116 -19 -50 16 -112 61 -112 82 0 4 13
8 29 8 16 0 27 -3 25 -6z m376 -79 c0 -5 -2 -10 -4 -10 -3 0 -8 5 -11 10 -3 6
-1 10 4 10 6 0 11 -4 11 -10z"/>
<path d="M4271 4333 c-1 -17 -5 -35 -11 -38 -5 -3 -10 -23 -10 -43 0 -27 -3
-33 -10 -22 -6 10 -11 -1 -16 -38 -6 -51 -16 -65 -28 -39 -3 6 -4 -1 -1 -17 4
-16 16 -37 28 -48 21 -19 21 -19 -8 0 -17 11 -42 32 -56 46 -24 24 -27 25 -33
9 -12 -32 5 -144 23 -151 9 -3 19 -10 23 -16 5 -8 11 -7 19 1 9 9 9 16 -2 29
-13 16 -12 16 9 5 12 -6 22 -16 22 -22 0 -6 8 -9 18 -8 9 1 25 -1 35 -6 27
-11 29 -3 17 65 -6 34 -9 68 -6 76 3 8 1 14 -4 14 -6 0 -10 -17 -11 -37 -1
-34 -1 -36 -9 -12 -4 14 -4 43 0 65 4 21 8 31 9 22 0 -10 6 -18 11 -18 7 0 7
6 1 19 -7 12 -7 40 0 82 6 43 7 73 0 89 -9 24 -10 24 -10 -7z"/>
<path d="M7410 4300 c0 -5 5 -10 10 -10 6 0 10 5 10 10 0 6 -4 10 -10 10 -5 0
-10 -4 -10 -10z"/>
<path d="M6249 4268 c-7 -23 -4 -38 8 -42 9 -4 12 -13 9 -24 -8 -23 28 -58 67
-68 29 -7 77 11 77 28 0 5 -5 6 -12 2 -6 -4 -8 -3 -4 4 10 17 -12 56 -44 77
-28 19 -48 20 -42 2 1 -5 -8 -1 -20 7 -20 14 -37 20 -39 14z"/>
<path d="M7400 4249 c0 -14 9 -34 20 -44 19 -18 20 -17 20 2 0 12 -9 31 -20
44 l-19 24 -1 -26z"/>
<path d="M7385 4178 c-8 -18 -17 -22 -40 -20 -17 2 -25 -1 -19 -5 27 -20 26
-73 -2 -73 -12 0 -28 -52 -24 -75 5 -25 -1 -45 -14 -45 -19 0 -47 -61 -35 -76
13 -16 -18 -27 -39 -14 -14 9 -12 10 8 5 22 -5 23 -4 7 5 -22 14 -47 6 -47
-15 0 -43 -87 -146 -149 -174 -41 -20 -49 -27 -39 -38 14 -17 -1 -30 -45 -40
-15 -3 -30 -10 -34 -16 -9 -14 67 1 96 20 12 8 32 12 43 10 16 -5 74 8 87 19
2 2 -2 10 -9 19 -7 9 -10 18 -7 22 9 8 37 -16 37 -31 0 -7 9 -22 21 -35 12
-13 19 -30 16 -42 -3 -10 -1 -19 3 -19 5 0 11 -10 13 -22 3 -16 5 -12 6 12 2
54 12 82 25 72 6 -5 28 -12 49 -16 20 -4 37 -10 37 -14 0 -5 29 -9 65 -10 36
-2 65 -1 65 2 0 2 -25 12 -55 21 -58 16 -79 42 -25 30 29 -6 30 -5 30 27 0 19
7 43 15 54 8 10 15 36 15 57 0 20 5 37 10 37 6 0 10 8 10 18 -1 16 -1 16 -14
0 -16 -22 -32 -23 -40 -2 -10 25 3 36 35 29 24 -5 29 -3 29 12 0 33 15 46 39
34 15 -9 21 -21 21 -47 0 -21 4 -33 10 -29 6 3 10 15 10 27 0 13 5 18 14 15
16 -6 26 13 26 51 0 24 -1 24 -13 8 -11 -15 -15 -16 -25 -3 -7 7 -15 29 -19
48 l-6 34 26 -30 c37 -42 33 -19 -13 78 -39 81 -64 107 -105 107 -7 0 -17 9
-20 20 -8 26 -18 25 -30 -2z m91 -103 c15 -11 16 -14 3 -15 -8 0 -24 7 -35 15
-15 11 -16 14 -3 15 8 0 24 -7 35 -15z m-96 -411 c0 -8 -4 -12 -10 -9 -5 3
-10 13 -10 21 0 8 5 12 10 9 6 -3 10 -13 10 -21z"/>
<path d="M4172 4165 c0 -16 2 -22 5 -12 2 9 2 23 0 30 -3 6 -5 -1 -5 -18z"/>
<path d="M6555 4140 c17 -19 181 -77 191 -67 25 25 -89 87 -162 87 -47 0 -47
0 -29 -20z"/>
<path d="M7285 4140 c3 -5 8 -10 11 -10 2 0 4 5 4 10 0 6 -5 10 -11 10 -5 0
-7 -4 -4 -10z"/>
<path d="M5237 4076 c-4 -15 -6 -31 -2 -34 10 -10 16 6 13 35 l-3 28 -8 -29z"/>
<path d="M6510 4085 c-23 -28 30 -135 67 -135 7 0 13 -4 13 -10 0 -5 5 -10 11
-10 5 0 7 5 4 10 -8 13 8 13 22 -1 8 -8 17 -8 33 1 16 9 25 9 33 1 17 -17 27
-13 27 10 0 11 -5 17 -10 14 -6 -3 -23 4 -38 16 -26 21 -23 21 23 3 12 -5 3 9
-21 34 -23 22 -39 43 -37 46 9 9 -56 36 -85 36 -16 0 -35 -7 -42 -15z"/>
<path d="M4301 4073 c-1 -12 4 -25 9 -28 12 -7 12 2 0 30 -8 19 -9 19 -9 -2z"/>
<path d="M4360 4041 c0 -6 5 -13 10 -16 6 -3 10 1 10 9 0 9 -4 16 -10 16 -5 0
-10 -4 -10 -9z"/>
<path d="M6210 4000 c0 -5 7 -7 15 -4 8 4 15 8 15 10 0 2 -7 4 -15 4 -8 0 -15
-4 -15 -10z"/>
<path d="M4843 3974 c-36 -28 -42 -44 -17 -44 8 0 13 -4 9 -10 -8 -14 34 -38
80 -45 33 -5 42 -3 52 13 11 19 9 21 -27 27 -22 4 -43 4 -49 1 -16 -11 -22 26
-7 49 14 21 12 35 -3 35 -3 0 -21 -12 -38 -26z"/>
<path d="M4910 3993 c0 -5 5 -15 10 -23 7 -11 12 -12 21 -3 6 6 8 16 5 22 -8
12 -36 15 -36 4z"/>
<path d="M5075 3989 c7 -19 88 -59 118 -59 12 1 -1 9 -31 19 -28 10 -61 26
-72 36 -16 14 -19 15 -15 4z"/>
<path d="M6178 3955 c-3 -6 -6 -39 -6 -75 0 -36 -3 -84 -7 -107 -6 -37 -3 -46
18 -67 43 -43 97 -53 186 -33 42 10 84 18 94 18 27 0 20 27 -13 44 -19 10 -30
23 -30 36 0 15 -4 19 -16 15 -14 -5 -16 -1 -11 21 5 27 2 29 -66 55 -39 15
-74 23 -77 19 -10 -17 -49 8 -56 36 -3 15 -7 32 -8 38 -1 6 -4 6 -8 0z m67
-125 c15 -16 52 -41 81 -55 30 -15 54 -30 54 -35 0 -12 -34 -23 -38 -11 -2 5
-9 8 -17 5 -7 -3 -37 5 -65 18 -39 18 -52 30 -59 53 -8 31 -4 55 8 55 4 0 20
-13 36 -30z"/>
<path d="M6440 3863 c0 -22 2 -25 10 -13 13 20 13 40 0 40 -5 0 -10 -12 -10
-27z"/>
<path d="M7077 3883 c-16 -15 -5 -24 22 -18 23 5 30 2 34 -12 3 -12 5 -9 6 10
1 23 -3 27 -27 27 -16 0 -32 -3 -35 -7z"/>
<path d="M4320 3871 c0 -11 -43 -55 -58 -58 -7 -2 -12 2 -12 8 0 5 -5 7 -11 3
-8 -5 -8 -9 1 -14 9 -6 9 -23 1 -71 -17 -101 -20 -129 -11 -129 4 0 15 30 24
68 31 119 51 156 68 129 4 -7 8 7 8 31 0 23 -2 42 -5 42 -3 0 -5 -4 -5 -9z"/>
<path d="M5080 3873 c0 -5 7 -18 15 -29 13 -18 14 -18 8 4 -5 22 -23 41 -23
25z"/>
<path d="M7032 3858 c-16 -16 -15 -28 2 -28 19 0 27 13 17 28 -5 9 -10 9 -19
0z"/>
<path d="M6410 3825 c0 -8 5 -15 10 -15 6 0 10 7 10 15 0 8 -4 15 -10 15 -5 0
-10 -7 -10 -15z"/>
<path d="M4704 3803 c-23 -27 -21 -63 2 -63 8 0 14 -5 14 -12 0 -6 3 -8 7 -5
3 4 13 1 22 -7 23 -19 107 -49 123 -43 9 4 7 6 -4 6 -22 1 -24 21 -3 21 40 0
-2 33 -44 34 -8 1 -16 7 -19 15 -4 11 5 13 44 8 27 -3 57 -9 67 -12 12 -5 17
-2 17 9 0 25 -60 46 -130 46 -47 0 -60 3 -60 15 0 22 -12 18 -36 -12z m81 -42
c3 -5 1 -12 -5 -16 -5 -3 -10 1 -10 9 0 18 6 21 15 7z"/>
<path d="M6988 3785 c-6 -28 6 -34 16 -9 8 22 7 34 -3 34 -5 0 -11 -11 -13
-25z"/>
<path d="M7042 3780 c-20 -18 -27 -30 -18 -30 16 0 56 38 56 52 0 11 -1 11
-38 -22z"/>
<path d="M4221 3744 c0 -11 3 -14 6 -6 3 7 2 16 -1 19 -3 4 -6 -2 -5 -13z"/>
<path d="M5691 3714 c-11 -14 -25 -23 -30 -20 -5 4 -13 1 -16 -5 -4 -6 2 -13
14 -16 21 -5 30 -43 11 -43 -5 0 -10 5 -10 10 0 6 -7 10 -15 10 -8 0 -15 -4
-15 -10 0 -15 -19 -12 -36 5 -9 8 -25 15 -36 15 -20 0 -21 -1 -3 -20 18 -19
17 -20 -4 -20 -14 0 -25 -9 -32 -27 -6 -16 -15 -36 -20 -45 -12 -24 -11 -28 6
-28 15 0 21 -31 8 -43 -11 -12 -12 -61 -1 -68 6 -4 12 -17 13 -30 4 -37 4 -39
15 -39 6 0 10 7 10 16 0 8 4 13 9 10 4 -3 6 -17 3 -31 -3 -20 -7 -23 -17 -15
-10 8 -19 8 -32 0 -15 -10 -18 -24 -18 -74 1 -33 5 -71 9 -83 5 -15 1 -27 -15
-42 -24 -22 -32 -58 -16 -68 5 -3 5 -8 1 -12 -17 -12 -57 -98 -51 -108 4 -6 0
-14 -9 -17 -27 -10 -36 -7 -29 12 10 22 24 84 35 147 5 28 16 83 25 123 17 82
13 118 -17 125 -16 5 -19 11 -14 31 3 14 2 28 -4 31 -5 3 -10 14 -10 23 1 16
2 16 14 0 18 -24 23 -23 30 7 4 15 14 25 24 25 13 0 18 9 20 30 1 17 -3 30 -9
30 -6 0 -9 -9 -6 -20 3 -13 -1 -24 -13 -30 -27 -15 -40 -12 -33 6 3 9 1 19 -5
23 -14 8 -24 61 -11 61 5 0 9 -4 9 -8 0 -5 7 -9 15 -9 18 0 18 2 5 27 -8 15
-7 17 13 12 19 -5 20 -4 9 11 -8 9 -22 19 -33 22 -10 4 -19 12 -19 20 0 18
-50 28 -135 27 -95 -1 -97 -1 -124 -47 -45 -74 -193 -208 -277 -250 -43 -22
-55 -33 -69 -72 -19 -49 -21 -44 37 -80 15 -9 32 -29 38 -43 8 -20 23 -29 62
-40 28 -7 80 -31 115 -53 35 -22 65 -38 66 -36 22 40 24 47 15 62 -8 16 -5 17
34 11 24 -4 45 -8 46 -10 2 -1 1 -16 -3 -33 -4 -20 -11 -28 -21 -24 -9 3 -14
-2 -14 -16 0 -12 -4 -21 -10 -21 -5 0 17 -35 49 -77 31 -43 62 -85 67 -95 5
-9 23 -32 39 -50 33 -38 49 -61 68 -98 14 -28 39 -60 47 -60 3 0 13 15 22 33
48 98 78 166 78 179 0 8 4 18 9 23 4 6 14 33 20 60 7 28 26 93 41 145 16 52
36 130 46 172 9 43 20 75 25 73 4 -3 10 14 14 37 4 24 11 48 15 53 4 6 11 30
15 55 4 24 16 69 27 100 11 30 22 66 24 80 2 14 8 44 13 68 9 47 -3 67 -25 37
-12 -16 -14 -17 -20 -2 -9 24 -30 21 -53 -9z m49 -12 c0 -13 -12 -22 -22 -16
-10 6 -1 24 13 24 5 0 9 -4 9 -8z m-50 -100 c0 -11 -41 -34 -48 -27 -4 4 2 13
12 21 22 15 36 18 36 6z m-530 -52 c0 -5 -4 -10 -10 -10 -5 0 -10 5 -10 10 0
6 5 10 10 10 6 0 10 -4 10 -10z m164 -16 c8 -3 12 -12 9 -20 -4 -10 -10 -11
-24 -3 -34 18 -22 37 15 23z m343 -20 c-9 -9 -28 6 -21 18 4 6 10 6 17 -1 6
-6 8 -13 4 -17z m-467 -24 c0 -5 -4 -10 -9 -10 -6 0 -13 5 -16 10 -3 6 1 10 9
10 9 0 16 -4 16 -10z m354 -5 c-4 -8 -8 -15 -10 -15 -2 0 -4 7 -4 15 0 8 4 15
10 15 5 0 7 -7 4 -15z m-234 -55 c0 -5 -4 -12 -10 -15 -5 -3 -10 -4 -10 -1 0
2 -3 12 -6 20 -5 12 -2 15 10 10 9 -3 16 -10 16 -14z m236 -15 c-1 -19 -4 -21
-16 -12 -34 27 -35 49 -1 40 12 -3 18 -13 17 -28z m101 29 c-3 -3 -12 -4 -19
-1 -8 3 -5 6 6 6 11 1 17 -2 13 -5z m-367 -64 c0 -5 -4 -10 -10 -10 -5 0 -10
5 -10 10 0 6 5 10 10 10 6 0 10 -4 10 -10z m330 -20 c8 -5 11 -10 5 -10 -5 0
-17 5 -25 10 -8 5 -10 10 -5 10 6 0 17 -5 25 -10z m-253 -36 c4 -10 0 -20 -10
-25 -10 -6 -13 -17 -10 -31 5 -19 3 -21 -8 -10 -19 17 -42 15 -35 -4 3 -9 -4
-25 -21 -40 -15 -14 -20 -24 -12 -24 10 0 10 -3 1 -12 -8 -8 -8 -15 -1 -24 7
-8 7 -14 -1 -19 -5 -3 -10 0 -10 7 -1 17 -39 67 -40 50 0 -7 -4 -10 -10 -7
-15 9 -12 25 4 25 7 0 16 10 20 22 4 18 8 20 18 10 18 -18 27 -15 21 9 -3 11
-11 18 -18 15 -8 -3 -16 2 -19 10 -11 29 -6 34 19 18 25 -16 25 -16 23 7 -2
13 2 24 9 24 6 0 15 3 19 8 13 13 55 7 61 -9z m237 -29 c-6 -16 -24 -21 -24
-7 0 11 11 22 21 22 5 0 6 -7 3 -15z m-659 -5 c3 -5 1 -10 -4 -10 -6 0 -11 5
-11 10 0 6 2 10 4 10 3 0 8 -4 11 -10z m235 -40 c0 -5 -4 -10 -10 -10 -5 0
-10 5 -10 10 0 6 5 10 10 10 6 0 10 -4 10 -10z m-253 -6 c-3 -3 -12 -4 -19 -1
-8 3 -5 6 6 6 11 1 17 -2 13 -5z m648 -34 c3 -5 1 -10 -4 -10 -6 0 -11 5 -11
10 0 6 2 10 4 10 3 0 8 -4 11 -10z m-385 -15 c0 -8 -4 -15 -10 -15 -5 0 -10 7
-10 15 0 8 5 15 10 15 6 0 10 -7 10 -15z m390 -41 c0 -8 -4 -12 -10 -9 -5 3
-10 10 -10 16 0 5 5 9 10 9 6 0 10 -7 10 -16z m-367 -11 c15 -3 27 -10 27 -15
0 -6 -7 -8 -15 -4 -8 3 -15 1 -15 -5 0 -6 -12 -9 -27 -7 -21 2 -29 9 -31 27
-3 20 -1 23 15 17 10 -4 30 -10 46 -13z m181 -268 c-7 -16 -24 -21 -24 -6 0 8
7 13 27 20 1 1 0 -6 -3 -14z"/>
<path d="M5008 3702 c-4 -15 -1 -18 19 -14 19 3 21 7 12 18 -16 19 -26 18 -31
-4z"/>
<path d="M6895 3650 c3 -5 15 -10 25 -10 10 0 22 5 25 10 4 6 -7 10 -25 10
-18 0 -29 -4 -25 -10z"/>
<path d="M6062 3630 c0 -14 2 -19 5 -12 2 6 2 18 0 25 -3 6 -5 1 -5 -13z"/>
<path d="M4130 3424 c2 -31 28 -118 37 -121 13 -5 25 35 12 42 -4 3 -6 12 -3
19 3 8 -6 26 -20 41 -14 15 -26 24 -26 19z"/>
<path d="M6214 3376 c37 -34 143 -83 154 -71 3 3 3 6 1 8 -2 1 -25 19 -50 39
-25 20 -59 40 -75 43 -16 4 -38 9 -49 11 -14 4 -9 -5 19 -30z"/>
<path d="M4560 3375 c0 -6 -10 -15 -22 -20 -35 -16 -42 -37 -32 -96 l10 -54
20 45 c33 72 42 107 33 121 -5 8 -9 9 -9 4z"/>
<path d="M5457 3363 c-10 -10 -8 -23 4 -23 5 0 8 4 5 9 -4 5 0 12 6 14 7 3 8
6 2 6 -6 1 -14 -2 -17 -6z"/>
<path d="M3290 3019 c-14 -10 -37 -18 -53 -16 -27 2 -28 0 -32 -50 -4 -49 -2
-53 18 -53 15 0 26 10 35 30 10 22 24 32 53 40 38 10 79 41 79 58 0 17 -76 10
-100 -9z"/>
<path d="M6801 2948 c0 -9 -4 -25 -7 -35 -5 -17 -5 -17 6 0 6 10 9 25 7 35 -4
15 -5 15 -6 0z"/>
<path d="M6887 2934 c-12 -15 -16 -32 -11 -42 6 -15 8 -14 13 6 3 13 11 23 16
22 6 0 11 8 13 20 5 27 -9 25 -31 -6z"/>
<path d="M6900 2884 c0 -8 5 -12 10 -9 6 3 10 10 10 16 0 5 -4 9 -10 9 -5 0
-10 -7 -10 -16z"/>
<path d="M6990 2870 c0 -32 9 -37 28 -18 17 17 15 31 -4 24 -12 -4 -15 -2 -10
9 3 8 1 15 -4 15 -6 0 -10 -13 -10 -30z"/>
<path d="M6870 2851 c0 -10 -7 -24 -15 -31 -8 -7 -15 -19 -15 -26 0 -8 -5 -14
-11 -14 -5 0 -7 -4 -4 -10 10 -15 25 -12 32 8 4 9 14 22 22 29 13 10 14 12 2
13 -12 0 -13 2 -2 13 10 10 14 8 23 -7 10 -19 11 -19 24 -1 11 15 16 16 29 5
8 -7 18 -10 22 -6 3 3 1 6 -5 6 -7 0 -12 7 -12 16 0 13 -7 15 -30 11 -16 -4
-32 -2 -35 3 -10 17 -25 11 -25 -9z"/>
<path d="M6761 2829 c-13 -39 -14 -46 -2 -33 9 10 24 64 17 64 -2 0 -9 -14
-15 -31z"/>
<path d="M7056 2802 c-4 -9 -13 -35 -21 -57 -11 -33 -14 -36 -15 -15 -1 23 -2
23 -15 -9 -8 -18 -12 -37 -9 -42 3 -5 -4 -29 -15 -52 -56 -115 -79 -251 -46
-263 24 -10 10 -51 -90 -259 -28 -60 -58 -137 -64 -170 -7 -33 -17 -70 -22
-83 -5 -13 -9 -32 -9 -43 0 -10 -4 -27 -9 -37 -5 -9 -19 -50 -31 -91 -12 -41
-42 -115 -66 -164 -54 -111 -55 -121 -12 -112 55 12 139 11 157 -2 9 -7 21
-13 28 -13 20 0 93 -53 93 -67 0 -7 4 -13 10 -13 5 0 19 -19 30 -43 27 -53 30
-140 6 -166 -9 -9 -16 -22 -16 -27 0 -5 -22 -25 -50 -44 -27 -19 -49 -38 -50
-42 0 -5 15 -8 34 -8 25 0 45 10 76 37 70 63 73 155 9 272 -16 30 -27 56 -25
58 6 7 83 -99 95 -130 17 -43 13 -117 -8 -164 -23 -50 -3 -50 24 1 23 42 17
164 -9 219 -26 52 -98 123 -157 152 -47 24 -68 51 -31 42 108 -30 165 -51 189
-70 41 -34 63 -40 63 -18 0 21 -40 61 -61 61 -29 0 -164 52 -183 71 -30 28
-12 34 33 11 21 -11 63 -25 93 -31 29 -5 67 -13 83 -17 27 -7 29 -6 16 9 -7
10 -19 17 -27 17 -12 0 -45 13 -111 43 -11 5 -26 7 -31 3 -14 -9 -63 15 -56
26 4 6 35 7 75 3 71 -7 82 -2 52 21 -11 8 -13 13 -5 14 6 0 12 9 12 20 0 11 7
20 15 20 8 0 15 8 15 18 1 16 1 16 11 -1 7 -12 15 -15 22 -9 7 5 24 12 38 16
20 4 28 13 31 37 5 31 5 31 -34 26 -21 -3 -40 -1 -43 3 -3 4 -13 6 -24 3 -16
-4 -18 0 -15 26 2 17 -1 31 -6 31 -6 0 -10 -9 -10 -19 0 -23 -55 -54 -81 -46
-10 4 -28 1 -40 -6 -19 -10 -21 -9 -16 6 4 9 7 21 7 26 0 6 5 7 10 4 6 -4 8
-11 5 -16 -3 -5 1 -6 9 -3 9 3 13 10 10 15 -3 5 -1 9 5 9 5 0 13 -5 16 -10 10
-17 24 -2 18 20 -3 11 -1 20 4 20 6 0 8 11 5 25 -4 25 12 35 21 13 4 -8 6 -7
6 4 1 9 -6 23 -14 32 -25 25 -20 35 48 109 15 17 37 51 50 76 12 25 27 50 34
54 7 4 15 30 19 57 4 27 10 48 14 45 11 -7 52 74 46 90 -7 19 -30 19 -46 0 -7
-9 -19 -14 -25 -11 -10 4 -55 -43 -55 -58 0 -3 -28 -52 -90 -156 -5 -8 -33
-53 -62 -99 -29 -46 -59 -93 -65 -106 -15 -27 -43 -51 -43 -38 0 6 8 21 19 34
10 13 24 42 31 64 18 57 32 85 40 80 6 -3 41 58 99 172 8 16 17 30 21 33 4 3
18 28 31 55 12 28 26 52 30 55 13 10 36 65 32 77 -2 6 5 14 16 18 12 4 18 12
14 21 -3 8 3 26 13 42 30 44 44 73 44 91 0 9 7 29 15 45 16 30 10 79 -9 73
-22 -7 -126 -153 -168 -234 -22 -45 -44 -80 -48 -78 -9 6 0 54 11 61 5 3 9 16
9 30 0 13 5 24 10 24 6 0 10 4 10 9 0 5 14 39 31 76 26 56 28 69 17 83 -11 13
-11 15 4 9 23 -8 27 1 33 63 3 36 1 56 -9 65 -12 12 -15 12 -20 -3z"/>
<path d="M3120 2791 c0 -23 222 -105 315 -116 46 -6 55 -5 55 8 0 29 -57 49
-260 90 -41 9 -83 19 -92 22 -11 4 -18 2 -18 -4z"/>
<path d="M7111 2784 c0 -11 3 -14 6 -6 3 7 2 16 -1 19 -3 4 -6 -2 -5 -13z"/>
<path d="M6945 2782 c-3 -3 -15 -6 -27 -7 -12 -1 -24 -8 -26 -15 -4 -10 3 -11
27 -7 24 5 31 3 31 -9 0 -12 -6 -15 -21 -11 -15 4 -23 0 -26 -14 -3 -12 -14
-19 -29 -19 -15 0 -24 -6 -24 -16 0 -8 5 -12 11 -8 14 8 29 -14 22 -33 -5 -11
-9 -11 -29 2 -13 8 -24 11 -24 5 0 -5 4 -10 9 -10 4 0 6 -11 3 -25 -4 -21 -1
-25 18 -23 13 2 25 -3 27 -9 3 -9 -5 -13 -22 -13 -25 0 -27 -3 -23 -35 2 -19
0 -35 -4 -35 -4 0 -8 -15 -8 -33 0 -18 -7 -43 -16 -55 -9 -14 -12 -27 -6 -37
13 -23 45 50 37 85 -5 21 -2 29 12 32 21 6 60 128 47 150 -4 7 -4 10 1 6 10
-10 38 29 30 42 -3 5 3 18 14 29 28 28 37 68 17 68 -9 0 -18 -3 -21 -5z m-35
-102 c0 -5 -4 -10 -10 -10 -5 0 -10 5 -10 10 0 6 5 10 10 10 6 0 10 -4 10 -10z"/>
<path d="M6716 2712 c-10 -29 -16 -55 -13 -58 7 -7 39 84 34 99 -2 6 -12 -12
-21 -41z"/>
<path d="M6833 2735 c-3 -9 -2 -19 2 -23 4 -4 10 -1 12 6 3 6 9 10 14 6 5 -3
9 2 9 10 0 21 -29 21 -37 1z"/>
<path d="M6788 2665 c-20 -26 -24 -60 -8 -70 6 -3 10 3 10 15 0 11 7 23 15 26
15 6 21 39 8 47 -5 3 -16 -6 -25 -18z"/>
<path d="M3095 2646 c78 -49 96 -57 193 -82 53 -14 103 -32 110 -41 11 -16 12
-16 12 0 0 13 9 17 39 17 22 0 43 5 46 10 4 6 -6 10 -22 10 -20 0 -24 3 -14 9
9 6 -2 11 -35 14 -112 13 -187 27 -256 51 -40 13 -82 27 -93 31 -11 4 -2 -5
20 -19z"/>
<path d="M6675 2606 c-3 -9 -7 -23 -10 -31 -2 -8 -1 -15 4 -15 5 0 11 12 14
28 6 30 0 44 -8 18z"/>
<path d="M3040 2541 c0 -20 40 -101 50 -101 17 0 11 66 -7 82 -27 23 -43 30
-43 19z"/>
<path d="M6657 2543 c-7 -12 -20 -79 -14 -73 6 6 27 80 22 80 -2 0 -6 -3 -8
-7z"/>
<path d="M3140 2486 c9 -9 47 -23 85 -31 134 -30 134 -30 155 -5 22 25 28 42
8 22 -14 -14 -42 -16 -33 -2 3 6 0 10 -9 10 -8 0 -22 3 -32 7 -11 4 -15 3 -11
-4 10 -16 -14 -22 -36 -11 -10 5 -35 11 -55 12 -21 2 -48 6 -62 11 -23 6 -24
6 -10 -9z"/>
<path d="M6796 2335 c-9 -26 -7 -32 5 -12 6 10 9 21 6 23 -2 3 -7 -2 -11 -11z"/>
<path d="M7152 2338 c6 -18 28 -21 28 -4 0 9 -7 16 -16 16 -9 0 -14 -5 -12
-12z"/>
<path d="M6771 2274 c0 -11 3 -14 6 -6 3 7 2 16 -1 19 -3 4 -6 -2 -5 -13z"/>
<path d="M3749 2235 c-4 -5 -10 -41 -13 -80 l-5 -70 14 55 c15 53 17 115 4 95z"/>
<path d="M6561 2174 c0 -11 3 -14 6 -6 3 7 2 16 -1 19 -3 4 -6 -2 -5 -13z"/>
<path d="M3805 2108 c-42 -23 -86 -74 -96 -111 -5 -21 -13 -45 -16 -53 -4 -11
4 -14 34 -14 53 0 57 7 21 39 l-31 27 47 39 c26 21 44 40 41 43 -3 3 7 14 22
24 30 19 12 25 -22 6z"/>
<path d="M312 2018 c-23 -23 -14 -55 19 -67 54 -19 79 19 39 59 -23 23 -41 25
-58 8z"/>
<path d="M437 2023 c-4 -3 -7 -11 -7 -17 0 -6 5 -5 12 2 6 6 9 14 7 17 -3 3
-9 2 -12 -2z"/>
<path d="M6462 1926 c-48 -94 -88 -137 -130 -140 -50 -4 -55 -12 -47 -81 7
-68 -12 -129 -38 -120 -24 9 -38 -10 -28 -38 7 -17 7 -52 2 -94 -5 -37 -7 -70
-5 -72 5 -5 4 -7 37 59 30 61 54 104 82 147 52 78 187 405 173 418 -2 2 -22
-33 -46 -79z"/>
<path d="M5370 1934 c0 -8 5 -12 10 -9 6 3 10 10 10 16 0 5 -4 9 -10 9 -5 0
-10 -7 -10 -16z"/>
<path d="M3627 1866 c-41 -44 -49 -57 -95 -156 -34 -72 -46 -140 -25 -140 7 0
10 6 7 14 -4 10 5 13 35 11 35 -2 41 0 41 18 0 11 -6 28 -14 36 -13 15 -30 81
-21 81 2 0 27 -9 54 -20 32 -12 62 -17 81 -14 38 8 38 18 0 34 -45 19 -58 39
-36 56 11 7 23 11 28 8 5 -3 6 6 2 20 -8 33 2 33 60 0 81 -45 70 -21 -28 64
-21 17 -41 31 -44 31 -4 -1 -24 -20 -45 -43z"/>
<path d="M5393 1895 c-32 -14 -41 -29 -25 -39 10 -6 72 33 72 45 0 12 -9 11
-47 -6z"/>
<path d="M7010 1870 c0 -5 5 -10 11 -10 5 0 7 5 4 10 -3 6 -8 10 -11 10 -2 0
-4 -4 -4 -10z"/>
<path d="M5360 1773 c0 -28 3 -34 10 -23 13 20 13 60 0 60 -5 0 -10 -17 -10
-37z"/>
<path d="M5448 1789 c-10 -5 -34 -31 -53 -56 -33 -43 -35 -51 -35 -118 0 -71
1 -74 35 -104 40 -35 57 -41 30 -11 -10 11 -13 20 -7 20 6 0 9 7 6 15 -4 8 -1
21 5 29 6 7 10 22 9 32 -1 11 1 39 6 63 6 33 5 46 -5 52 -11 7 -10 16 8 49 12
22 21 40 20 40 -1 0 -10 -5 -19 -11z"/>
<path d="M7035 1770 c-3 -6 1 -7 9 -4 18 7 21 14 7 14 -6 0 -13 -4 -16 -10z"/>
<path d="M4927 1721 c-4 -18 -7 -43 -6 -55 1 -11 5 -1 10 24 5 25 7 49 6 55
-2 5 -7 -5 -10 -24z"/>
<path d="M5582 1607 c-13 -27 -20 -57 -17 -67 3 -11 -1 -33 -10 -50 -11 -22
-14 -44 -9 -80 4 -28 8 -49 9 -48 4 3 35 143 39 171 1 9 12 29 24 44 23 29 29
53 12 53 -5 0 -11 -10 -11 -22 -1 -14 -4 -9 -8 12 l-6 35 -23 -48z"/>
<path d="M3040 1584 l-35 -14 35 5 c19 3 53 9 75 14 l40 9 -40 0 c-22 0 -56
-6 -75 -14z"/>
<path d="M6532 1528 c-17 -29 -54 -80 -81 -113 -27 -33 -48 -61 -46 -64 7 -6
176 22 181 31 3 4 -7 8 -23 8 -15 0 -35 5 -43 10 -12 7 -8 10 15 10 20 0 26 3
17 9 -11 7 -10 9 3 15 9 3 14 10 11 15 -10 16 13 61 31 61 14 0 13 3 -6 16
-21 15 -22 18 -7 26 9 5 14 13 11 19 -13 20 -32 7 -63 -43z"/>
<path d="M3550 1538 c21 -21 94 -48 108 -39 7 4 -10 13 -40 20 -29 8 -60 18
-68 24 -13 10 -13 9 0 -5z"/>
<path d="M6435 1510 c-3 -5 -2 -10 4 -10 5 0 13 5 16 10 3 6 2 10 -4 10 -5 0
-13 -4 -16 -10z"/>
<path d="M5358 1313 c-3 -220 0 -247 28 -251 10 -2 24 -5 29 -6 6 -2 12 -4 15
-5 36 -11 132 -30 155 -30 50 -1 59 12 31 42 -14 15 -29 27 -34 27 -10 0 -42
33 -42 43 0 4 20 7 45 7 25 0 44 3 43 8 -1 4 2 20 7 35 6 22 2 39 -18 75 -13
26 -22 54 -20 62 3 12 2 12 -5 2 -14 -21 -61 6 -82 48 -24 46 -120 140 -144
140 -3 0 -6 -89 -8 -197z"/>
<path d="M6307 1457 c-32 -30 -47 -51 -39 -54 6 -3 12 -11 12 -19 0 -8 5 -14
11 -14 15 0 39 26 32 34 -10 9 19 56 34 56 8 0 11 -5 7 -11 -6 -11 6 -9 56 9
13 5 13 2 -1 -14 -9 -10 -19 -27 -22 -36 -4 -10 -11 -18 -17 -18 -18 0 -42
-28 -30 -35 13 -8 99 84 100 108 0 9 -7 17 -15 17 -8 0 -15 4 -15 9 0 5 -14
11 -31 13 -26 4 -38 -3 -82 -45z m-1 -44 c-10 -10 -19 5 -10 18 6 11 8 11 12
0 2 -7 1 -15 -2 -18z"/>
<path d="M3009 1481 c-13 -11 -19 -20 -14 -20 14 0 50 28 43 34 -3 3 -16 -3
-29 -14z"/>
<path d="M5707 1468 c-3 -12 -2 -28 2 -36 6 -11 10 -6 13 17 5 37 -7 52 -15
19z"/>
<path d="M5769 1423 c0 -5 0 -44 0 -87 0 -67 -5 -87 -26 -125 -15 -25 -33 -51
-41 -58 -8 -6 -11 -16 -8 -22 8 -12 50 1 70 22 12 12 35 89 35 117 -1 8 2 36
6 62 9 56 0 98 -20 98 -8 0 -15 -3 -16 -7z"/>
<path d="M5951 1374 c0 -11 3 -14 6 -6 3 7 2 16 -1 19 -3 4 -6 -2 -5 -13z"/>
<path d="M5658 1324 c-4 -55 7 -81 28 -63 17 14 18 49 2 84 -17 37 -26 31 -30
-21z"/>
<path d="M5942 1315 c-1 -16 -13 -52 -25 -80 -13 -27 -26 -66 -29 -86 -4 -20
-16 -58 -28 -85 -42 -92 -36 -172 6 -84 10 22 24 40 30 40 7 0 12 19 12 48 0
43 23 119 40 132 4 3 4 37 1 75 -3 39 -6 57 -7 40z"/>
<path d="M6036 1186 c-8 -14 -27 -49 -40 -79 -13 -30 -40 -78 -60 -107 -45
-65 -35 -89 18 -42 20 17 31 34 26 37 -6 4 -2 21 9 43 27 54 72 165 67 169 -2
2 -11 -8 -20 -21z"/>
<path d="M4340 1127 c-8 -8 -44 -25 -80 -37 -76 -27 -140 -65 -140 -83 0 -24
60 -107 86 -119 20 -10 34 -9 70 5 38 14 44 14 44 1 0 -26 32 -64 54 -64 28 0
41 10 71 50 18 24 25 29 25 16 0 -9 4 -15 9 -12 4 3 24 -10 43 -29 21 -19 51
-36 72 -40 21 -4 36 -13 36 -21 0 -8 8 -14 18 -15 13 0 14 -2 2 -6 -8 -4 8
-13 40 -23 55 -17 55 -17 58 -61 1 -24 -4 -87 -12 -139 -14 -92 -14 -96 6
-112 l20 -18 -22 -177 c-11 -98 -23 -193 -27 -210 l-5 -33 61 0 c42 0 61 4 61
13 0 6 9 98 21 202 15 128 26 194 35 201 8 6 12 18 9 25 -5 12 6 118 21 221 6
36 5 37 -28 40 -28 3 -33 7 -36 33 -2 17 0 27 4 23 9 -9 54 38 54 57 0 8 -4
17 -10 20 -5 3 -10 18 -10 32 0 25 -1 25 -25 9 -22 -14 -25 -15 -25 -1 0 8 -9
15 -20 15 -11 0 -20 5 -20 11 0 8 -4 8 -15 -1 -12 -10 -11 -15 10 -36 31 -31
31 -35 -1 -73 -25 -30 -52 -43 -38 -18 6 9 4 9 -7 0 -22 -21 -34 -15 -14 7 17
18 17 20 2 14 -25 -9 -21 8 14 67 30 52 30 53 16 103 l-14 51 -12 -41 c-14
-52 -30 -59 -69 -31 -23 16 -33 34 -40 67 l-9 45 -11 -27 c-13 -32 -23 -34
-60 -14 -15 8 -35 17 -44 20 -10 3 -18 13 -18 23 -1 22 -29 74 -30 54 0 -11
-4 -11 -19 3 -26 24 -82 31 -101 13z m220 -188 c0 -9 -9 -24 -20 -34 -18 -16
-20 -16 -20 -2 0 10 -7 17 -16 17 -11 0 -14 5 -10 16 3 9 6 22 6 29 0 11 6 11
30 2 17 -6 30 -19 30 -28z m80 -37 c0 -4 -6 -14 -12 -21 -10 -11 -10 -13 0 -7
6 4 12 2 12 -3 0 -6 -6 -11 -14 -11 -8 0 -17 -6 -19 -12 -3 -7 -6 -2 -7 12 0
22 -2 23 -11 8 -5 -10 -15 -18 -21 -18 -6 0 -3 9 7 20 10 11 24 20 32 20 7 0
13 5 13 10 0 6 5 10 10 10 6 0 10 -4 10 -8z"/>
<path d="M6795 1118 c-22 -73 -121 -119 -257 -119 -62 -1 -82 4 -223 56 -142
52 -129 51 -158 2 -26 -45 -85 -97 -109 -97 -10 0 -10 -2 1 -9 8 -5 15 -20 16
-33 2 -23 20 -78 36 -110 7 -14 -6 -21 -81 -45 -59 -18 -83 -30 -72 -34 10 -4
24 -20 32 -35 8 -16 18 -31 21 -34 4 -3 20 -28 35 -56 16 -28 52 -86 81 -128
64 -94 119 -252 128 -371 7 -91 11 -108 23 -101 21 13 -28 260 -67 343 -39 82
-33 104 25 101 42 -1 43 -2 42 -33 -2 -44 36 -92 78 -100 20 -3 41 -16 50 -30
9 -14 20 -23 24 -20 14 8 50 -36 51 -63 1 -26 1 -26 10 6 11 37 29 43 29 10 0
-13 7 -41 15 -63 l15 -40 -3 67 c-1 38 -5 68 -9 68 -5 0 -8 7 -8 15 0 8 -23
29 -50 46 -28 17 -48 35 -44 40 3 5 0 9 -6 9 -21 0 -49 44 -50 78 0 26 -4 32
-22 33 -21 1 -20 2 5 11 35 12 34 19 -4 41 -33 19 -94 23 -104 7 -3 -5 -13
-10 -21 -10 -12 0 -11 5 5 26 30 38 27 97 -14 267 -19 80 -35 160 -34 179 l1
33 11 -42 c15 -54 21 -58 37 -29 21 40 35 37 65 -10 29 -46 57 -56 74 -26 9
16 11 16 24 -2 19 -26 43 -15 52 23 9 41 19 46 95 43 129 -5 237 42 260 114 7
20 10 38 7 40 -3 3 -8 -5 -12 -18z m-505 -87 c0 -6 -4 -13 -10 -16 -5 -3 -10
1 -10 9 0 9 5 16 10 16 6 0 10 -4 10 -9z"/>
<path d="M5777 1113 c-4 -3 -7 -11 -7 -17 0 -6 5 -5 12 2 6 6 9 14 7 17 -3 3
-9 2 -12 -2z"/>
<path d="M3847 1083 c-4 -3 -7 -16 -6 -27 0 -19 1 -19 10 3 10 24 8 36 -4 24z"/>
<path d="M3185 1050 c-3 -5 -1 -10 4 -10 6 0 11 -9 11 -20 0 -11 4 -20 8 -20
4 0 13 -14 19 -31 7 -17 21 -33 32 -36 10 -3 22 -16 26 -30 4 -19 11 -24 25
-20 13 3 20 0 20 -9 0 -17 12 -18 29 -1 11 10 14 10 18 0 3 -7 10 -13 18 -13
7 0 18 -7 25 -15 11 -13 15 -13 21 -3 7 10 9 9 9 -4 0 -10 8 -18 18 -18 21 -1
52 -23 52 -39 0 -7 8 -11 18 -10 20 3 52 -10 70 -28 8 -8 19 -10 29 -5 8 5 36
5 61 1 26 -4 51 -5 55 -2 4 3 14 0 22 -7 10 -8 19 -8 37 2 13 7 24 13 26 14 1
1 -24 28 -55 61 -50 52 -65 62 -113 72 -78 17 -405 140 -472 177 -4 3 -9 0
-13 -6z"/>
<path d="M3815 1020 c-3 -5 1 -10 9 -10 9 0 16 5 16 10 0 6 -4 10 -9 10 -6 0
-13 -4 -16 -10z"/>
<path d="M4870 992 c0 -38 9 -64 21 -56 15 9 10 60 -6 74 -13 11 -15 8 -15
-18z"/>
<path d="M5094 989 c-3 -6 -26 -20 -50 -31 -24 -10 -44 -20 -44 -22 0 -9 -39
-153 -46 -170 -6 -16 0 -14 31 10 30 22 48 29 82 28 33 -1 43 3 44 15 1 44 10
139 14 159 6 23 -18 32 -31 11z"/>
<path d="M3985 960 c-3 -5 -1 -10 4 -10 6 0 11 5 11 10 0 6 -2 10 -4 10 -3 0
-8 -4 -11 -10z"/>
<path d="M3722 938 c3 -7 15 -14 29 -16 23 -2 23 -2 5 13 -24 18 -39 20 -34 3z"/>
<path d="M3330 841 c0 -9 24 -21 41 -21 5 0 9 7 9 15 0 9 -9 15 -25 15 -14 0
-25 -4 -25 -9z"/>
<path d="M5340 718 c0 -54 11 -78 41 -94 16 -8 29 -23 29 -33 0 -10 7 -24 16
-32 8 -7 13 -21 11 -31 -3 -10 -1 -16 3 -13 5 3 11 -4 15 -15 18 -57 66 29 72
129 2 30 8 60 14 68 7 7 10 15 8 17 -6 5 -172 36 -191 36 -14 0 -18 -8 -18
-32z"/>
<path d="M5630 704 c39 -18 154 -14 173 5 8 8 -18 11 -98 11 -108 -1 -109 -1
-75 -16z"/>
<path d="M5332 640 c0 -14 2 -19 5 -12 2 6 2 18 0 25 -3 6 -5 1 -5 -13z"/>
<path d="M4920 567 c0 -8 7 -17 15 -21 17 -6 20 -42 4 -52 -6 -3 -15 -1 -19 6
-5 9 -9 8 -13 -3 -9 -24 10 -44 30 -31 23 14 33 57 19 85 -13 27 -36 37 -36
16z"/>
<path d="M6417 513 c-4 -3 -7 -11 -7 -17 0 -6 5 -5 12 2 6 6 9 14 7 17 -3 3
-9 2 -12 -2z"/>
<path d="M6566 195 c14 -123 23 -153 18 -61 -3 50 -10 97 -15 105 -7 11 -8 -2
-3 -44z"/>
<path d="M6358 118 c-49 -17 -27 -61 25 -51 28 6 30 4 25 -20 -4 -21 -1 -27
13 -27 15 0 19 8 19 34 0 30 -2 33 -25 28 -24 -4 -30 3 -26 36 1 6 1 12 -1 11
-2 0 -15 -5 -30 -11z"/>
<path d="M6530 100 c0 -5 5 -10 11 -10 5 0 7 5 4 10 -3 6 -8 10 -11 10 -2 0
-4 -4 -4 -10z"/>
</g>
</svg>
