<?xml version="1.0" standalone="no"?>
<!DOCTYPE svg PUBLIC "-//W3C//DTD SVG 20010904//EN"
 "http://www.w3.org/TR/2001/REC-SVG-20010904/DTD/svg10.dtd">
<svg version="1.0" xmlns="http://www.w3.org/2000/svg"
 width="630.000000pt" height="300.000000pt" viewBox="0 0 630.000000 300.000000"
 preserveAspectRatio="xMidYMid meet">

<g transform="translate(0.000000,300.000000) scale(0.100000,-0.100000)"
fill="#000000" stroke="none">
<path d="M134 2858 c14 -315 25 -933 31 -1672 l6 -779 53 -48 c68 -62 92 -118
108 -250 l13 -104 277 -3 276 -2 -4 37 c-8 84 -13 339 -6 350 9 14 42 18 65 8
10 -4 29 -3 43 4 14 6 46 12 72 13 39 1 36 2 -23 8 -38 3 -97 3 -130 -2 -94
-12 -136 -10 -157 9 -17 15 -21 15 -29 3 -9 -13 -10 -13 -7 0 1 8 -6 30 -16
49 -14 26 -20 31 -27 20 -7 -11 -9 -11 -9 4 0 9 -4 17 -10 17 -5 0 -10 11 -10
25 0 14 -4 25 -9 25 -5 0 -11 18 -15 40 -3 23 -13 43 -20 46 -14 5 -32 91 -27
127 1 9 -2 17 -8 17 -6 0 -10 10 -9 23 0 12 -2 57 -7 100 -5 51 -4 77 3 77 6
0 8 9 5 20 -3 11 -9 20 -14 20 -5 0 -9 9 -9 20 0 11 5 20 10 20 6 0 10 18 10
40 0 22 -4 40 -10 40 -14 0 -12 43 3 59 10 11 10 14 0 18 -18 7 -18 189 -1
196 9 4 10 8 2 14 -6 4 -14 40 -17 78 -3 39 -9 98 -13 133 -5 42 -3 62 4 62 6
0 12 -19 14 -42 4 -45 0 187 -5 307 -2 39 -7 103 -11 143 -6 50 -5 72 2 72 6
0 13 -25 15 -57 l3 -58 2 67 c2 56 0 66 -13 62 -12 -5 -15 4 -15 44 0 69 12
99 21 52 4 -19 7 38 8 128 1 107 -2 161 -9 157 -13 -8 -13 24 2 142 9 73 9 98
0 101 -12 4 -8 40 10 100 18 60 11 62 -220 62 l-205 0 7 -142z m405 -440 l-2
-63 -7 50 c-6 46 -4 75 6 75 2 0 3 -28 3 -62z m1 -578 c0 -22 -4 -40 -10 -40
-5 0 -10 18 -10 40 0 22 5 40 10 40 6 0 10 -18 10 -40z m230 -1450 c0 -5 -4
-10 -9 -10 -6 0 -13 5 -16 10 -3 6 1 10 9 10 9 0 16 -4 16 -10z"/>
<path d="M2212 2958 c-26 -56 -37 -198 -21 -264 18 -75 68 -163 129 -224 62
-62 96 -90 110 -90 18 0 79 33 75 41 -3 4 4 5 15 2 11 -3 26 -1 33 5 6 6 35
13 62 17 28 4 65 14 84 21 18 8 48 14 67 14 18 0 35 4 38 9 5 8 20 12 91 24
38 7 65 18 65 28 0 5 -10 9 -22 9 -18 0 -20 2 -8 10 8 5 24 7 36 4 13 -4 37 6
66 25 52 35 66 38 74 16 5 -13 9 -13 21 -3 12 10 18 9 28 -5 26 -37 68 -9 70
47 4 91 5 97 28 106 l22 9 -22 0 c-13 1 -23 -3 -23 -9 0 -8 -66 16 -80 30 -3
3 -14 10 -25 16 -16 9 -21 23 -23 70 l-3 59 25 -34 c15 -19 26 -40 26 -46 0
-5 9 -16 20 -23 13 -8 20 -8 20 -1 0 5 5 7 11 3 8 -4 9 1 4 16 -5 15 -4 20 4
16 13 -8 34 41 27 61 -5 11 -1 11 15 2 23 -12 42 3 33 26 -3 7 16 21 43 33
l48 21 -117 1 c-96 0 -120 -3 -133 -17 -16 -16 -18 -16 -27 0 -8 16 -47 17
-438 17 l-428 0 -20 -42z m918 -212 c0 -3 -4 -8 -10 -11 -5 -3 -10 -1 -10 4 0
6 5 11 10 11 6 0 10 -2 10 -4z m-10 -47 c0 -6 -4 -7 -10 -4 -5 3 -10 11 -10
16 0 6 5 7 10 4 6 -3 10 -11 10 -16z m-30 -31 c0 -12 -3 -18 -7 -14 -11 10
-12 36 -2 36 5 0 9 -10 9 -22z"/>
<path d="M3439 2987 c-9 -7 -14 -17 -12 -24 2 -6 -7 -22 -21 -36 -17 -17 -23
-32 -19 -46 5 -19 2 -20 -28 -14 -27 5 -31 4 -26 -10 6 -16 -2 -20 -38 -20 -6
0 -10 -17 -10 -38 0 -26 4 -39 13 -39 24 0 61 -48 73 -94 12 -49 27 -66 75
-85 27 -11 37 -10 62 3 17 9 49 16 70 16 44 0 90 15 171 54 30 14 66 26 80 26
41 0 71 -11 71 -26 0 -8 5 -14 11 -14 7 0 9 -10 5 -25 -4 -15 -2 -25 4 -25 6
0 8 -5 5 -11 -5 -6 -23 -8 -49 -4 l-41 7 23 -24 c12 -13 22 -32 22 -41 0 -10
8 -17 20 -17 11 0 20 -5 20 -10 0 -10 -78 -8 -130 3 -14 3 -45 8 -69 12 -38 5
-43 3 -37 -11 5 -14 1 -16 -26 -12 -49 8 -63 0 -43 -22 9 -10 24 -33 33 -51
10 -18 29 -41 43 -52 26 -19 27 -19 80 7 29 14 54 24 55 23 1 -1 -2 -29 -6
-62 -4 -33 -5 -62 -3 -65 7 -8 421 -6 713 4 146 5 276 9 290 9 14 0 97 -5 185
-12 167 -12 262 -28 272 -44 3 -6 1 -7 -5 -3 -7 4 -12 4 -12 -1 0 -8 81 -45
110 -50 8 -2 78 -2 155 -2 208 2 248 0 259 -11 6 -6 13 -34 16 -63 4 -37 9
-52 20 -52 12 0 15 17 14 95 0 52 -4 115 -9 139 l-8 44 -456 -6 c-251 -4 -487
-11 -524 -16 -39 -5 -81 -6 -98 -1 -17 5 -220 9 -451 10 -232 0 -424 2 -426 5
-3 3 -1 24 4 47 l9 43 130 5 130 5 12 55 c6 30 17 94 24 142 12 88 17 96 52
82 9 -3 13 -13 9 -26 -4 -17 -2 -19 17 -13 18 5 21 2 21 -18 0 -14 7 -38 15
-53 9 -17 15 -56 15 -95 0 -64 1 -67 26 -73 36 -10 47 4 33 43 -10 30 -9 70 5
159 3 18 8 37 11 42 7 12 75 13 93 2 16 -11 26 -165 13 -209 -8 -27 -6 -32 12
-37 12 -3 39 -6 60 -6 29 0 39 5 47 23 7 18 30 188 30 226 0 24 38 31 81 17
24 -8 46 -13 51 -10 16 10 8 34 -11 34 -11 0 -23 5 -26 10 -4 6 -12 10 -18 9
-7 -1 -18 -1 -25 0 -20 2 8 39 35 46 14 3 23 13 23 25 0 20 -9 24 -44 20 -14
-1 -17 3 -12 15 23 60 21 65 -25 67 -24 1 -57 1 -72 0 -21 -2 -30 3 -34 17 -8
32 -32 33 -59 3 -24 -25 -27 -26 -38 -9 -17 23 -33 22 -46 -4 -9 -16 -14 -18
-25 -9 -10 8 -19 8 -34 1 -12 -7 -38 -9 -60 -5 -37 6 -40 4 -47 -20 -6 -27
-20 -31 -62 -20 -14 4 -21 12 -18 20 3 7 1 14 -4 16 -5 2 -11 17 -13 33 -3 26
-8 30 -33 29 -16 -1 -43 -5 -61 -9 -30 -7 -33 -5 -39 21 -4 16 -11 35 -17 42
-14 17 -535 17 -558 -1z"/>
<path d="M556 2904 c-9 -25 -7 -64 4 -64 6 0 10 18 10 40 0 43 -4 50 -14 24z"/>
<path d="M3256 2704 c-9 -24 -7 -28 9 -14 17 14 20 30 6 30 -5 0 -12 -7 -15
-16z"/>
<path d="M3283 2653 c-18 -7 -16 -32 2 -39 8 -3 17 -15 21 -26 6 -19 6 -19 18
3 8 15 9 28 4 36 -6 7 -7 17 -3 23 6 10 -20 13 -42 3z"/>
<path d="M5179 2585 c-24 -13 -27 -20 -25 -62 1 -41 4 -48 22 -51 35 -5 73 37
76 83 3 36 1 40 -22 42 -14 2 -37 -4 -51 -12z"/>
<path d="M5780 2481 c-42 -6 -45 -8 -45 -36 0 -29 1 -30 50 -30 l50 0 3 38 c2
20 0 36 -5 35 -4 0 -28 -4 -53 -7z"/>
<path d="M6158 2341 c-61 -9 -73 -21 -21 -21 22 0 68 -3 102 -6 58 -7 61 -6
61 15 0 19 -5 21 -47 20 -27 -1 -69 -5 -95 -8z"/>
<path d="M3670 2319 c0 -5 -5 -9 -10 -9 -10 0 -78 -28 -139 -58 -18 -9 -40
-26 -48 -38 -13 -20 -12 -27 6 -62 11 -22 17 -42 14 -46 -4 -3 -1 -6 5 -6 6 0
14 -9 17 -20 4 -14 15 -20 36 -20 18 0 28 -4 24 -10 -3 -5 -28 -10 -55 -10
l-49 0 -3 -37 c-2 -21 1 -53 5 -72 6 -21 5 -37 -2 -44 -20 -20 -13 -47 12 -47
20 0 26 9 41 60 17 56 20 60 47 60 l30 0 -21 -22 c-11 -12 -20 -26 -20 -32 0
-5 -7 -18 -17 -28 -15 -17 -15 -18 3 -18 23 1 56 24 47 34 -4 3 0 12 9 19 28
23 28 44 -3 78 -30 34 -37 53 -17 47 7 -3 16 -15 19 -29 5 -14 7 3 6 43 -1 59
2 69 23 86 22 18 23 22 10 38 -8 10 -10 15 -3 11 15 -9 83 18 83 33 0 5 -11
20 -25 32 -23 20 -24 23 -9 39 9 10 22 15 30 12 8 -3 14 0 14 6 0 6 -3 12 -7
12 -34 6 -53 5 -53 -2z"/>
<path d="M3013 2275 c5 -28 22 -54 72 -105 71 -74 71 -78 28 -136 l-23 -31 13
-159 13 -159 73 145 c82 161 106 201 124 197 6 -1 19 13 27 30 8 18 20 33 27
33 6 0 13 6 16 13 2 6 8 0 12 -15 4 -17 1 -34 -9 -50 -15 -23 -33 -108 -23
-108 3 0 14 16 23 35 9 19 20 35 25 35 5 0 15 13 23 28 15 28 14 30 -33 79
-48 51 -48 51 -127 57 -180 15 -161 7 -208 81 -46 71 -61 80 -53 30z"/>
<path d="M6287 2243 c-11 -10 -8 -81 3 -88 6 -4 10 13 10 44 0 52 -1 56 -13
44z"/>
<path d="M6043 2012 c-20 -16 -22 -29 -28 -182 -4 -91 -11 -169 -16 -175 -5
-5 -9 -18 -9 -28 0 -10 -15 -34 -34 -53 l-33 -33 36 -12 c41 -14 51 -24 51
-57 0 -21 4 -23 38 -20 34 3 37 6 38 33 2 56 4 62 27 91 18 24 22 42 22 99 0
64 2 70 21 71 12 1 26 4 33 8 6 4 11 2 11 -3 0 -6 5 -11 11 -11 5 0 7 5 4 11
-4 6 -2 31 5 55 12 41 11 48 -6 71 -11 14 -30 30 -42 34 -20 8 -22 5 -22 -25
0 -46 -30 -79 -64 -70 -36 9 -39 53 -5 90 17 18 18 25 7 72 -7 29 -15 52 -18
52 -3 0 -15 -8 -27 -18z"/>
<path d="M3325 1986 c-13 -13 -33 -56 -45 -95 -31 -106 -21 -116 19 -18 6 15
16 25 21 22 6 -3 10 4 10 17 0 13 4 28 9 34 10 11 24 64 16 64 -3 0 -17 -11
-30 -24z"/>
<path d="M5820 1950 c0 -5 -9 -19 -20 -30 -16 -16 -18 -25 -10 -40 5 -10 10
-85 10 -168 0 -188 8 -272 26 -272 16 0 18 51 15 278 -1 74 3 151 9 172 6 21
7 45 4 54 -7 17 -34 22 -34 6z"/>
<path d="M3396 1895 c-3 -8 -1 -15 4 -15 6 0 10 7 10 15 0 8 -2 15 -4 15 -2 0
-6 -7 -10 -15z"/>
<path d="M6282 1838 c-16 -16 -15 -87 3 -118 13 -23 14 -20 15 53 0 42 -1 77
-3 77 -2 0 -8 -5 -15 -12z"/>
<path d="M4856 1830 c12 -5 25 -14 30 -21 5 -9 2 -10 -12 -5 -10 5 -38 9 -61
10 -33 2 -44 -1 -48 -15 -3 -9 -12 -20 -20 -23 -25 -9 -19 -73 10 -101 28 -29
47 -33 38 -7 -4 11 3 7 20 -10 14 -16 30 -28 35 -28 4 0 17 -9 29 -19 11 -11
38 -28 59 -39 21 -11 64 -42 94 -67 30 -26 66 -55 80 -64 28 -18 59 -52 60
-65 0 -4 -13 -24 -30 -43 -16 -18 -30 -39 -30 -44 0 -6 -7 -9 -15 -5 -25 9
-18 -41 8 -59 13 -8 29 -30 37 -50 l14 -34 33 20 c27 17 33 18 33 5 0 -8 -5
-18 -10 -21 -20 -12 -1 -21 42 -20 24 1 49 5 56 9 21 13 25 0 6 -18 -9 -9 -29
-19 -44 -22 -35 -7 -36 -32 -1 -26 l26 4 -23 -17 c-31 -22 -88 -31 -107 -15
-22 18 -18 55 8 73 12 9 16 16 9 16 -7 1 -25 -11 -39 -25 l-26 -26 7 26 c6 26
-8 37 -17 14 -3 -7 -6 -3 -6 9 -1 30 -17 38 -24 11 -5 -17 -9 -19 -20 -10 -17
14 -43 -3 -49 -33 -4 -21 -6 -21 -51 -11 -16 4 -27 3 -24 -1 2 -4 -10 -19 -27
-33 -17 -13 -25 -17 -17 -7 7 9 9 17 3 17 -12 0 -24 -29 -16 -41 3 -5 14 -9
25 -9 10 0 19 -7 19 -15 0 -8 9 -15 21 -15 11 0 18 -4 15 -8 -2 -4 -1 -14 5
-22 7 -12 9 -9 9 9 0 25 0 25 31 -7 33 -34 44 -38 54 -22 10 15 42 12 60 -7
21 -20 45 -20 198 0 133 18 151 15 186 -34 l24 -34 -25 23 -25 23 -7 -23 c-3
-13 -6 -33 -6 -45 0 -43 -58 -36 -67 8 -8 40 -23 26 -23 -22 0 -28 -4 -39 -15
-39 -18 0 -20 21 -3 38 7 7 10 12 7 13 -42 5 -89 3 -89 -3 0 -4 -6 -8 -14 -8
-8 0 -16 -7 -20 -15 -4 -12 0 -14 19 -9 20 5 25 2 25 -14 0 -18 -18 -32 -41
-32 -5 0 -14 11 -21 24 -14 32 -42 45 -33 15 5 -15 1 -25 -14 -35 -12 -9 -21
-25 -21 -37 0 -18 -5 -14 -26 18 -34 51 -52 65 -83 65 -24 0 -26 -4 -27 -43 0
-24 -6 -52 -12 -63 -10 -15 -11 -7 -7 41 3 43 2 52 -4 30 -5 -16 -9 -46 -10
-66 -1 -33 2 -37 31 -45 44 -13 51 -44 9 -44 -93 0 8 -66 112 -73 10 -1 17 -9
17 -22 0 -37 10 -289 16 -402 l6 -113 49 0 49 0 -6 53 c-8 75 -22 461 -17 470
9 16 137 -16 161 -40 8 -7 17 -11 22 -8 5 3 23 -11 41 -30 39 -40 45 -42 54
-15 3 11 13 20 21 20 20 0 61 28 68 47 4 9 0 23 -8 32 -7 9 -16 39 -19 66 -3
28 -8 58 -12 68 -5 13 -2 17 12 17 15 0 23 13 36 59 l17 60 40 -16 c70 -28
109 -70 135 -146 14 -41 24 -61 27 -50 2 10 4 88 3 174 -1 136 -3 160 -20 185
-22 33 -21 54 6 98 12 20 19 49 19 84 0 47 4 56 35 88 41 40 40 64 -1 102 -33
29 -37 28 -56 -12 -11 -23 -25 -35 -45 -39 -38 -7 -50 6 -36 43 10 28 9 31
-13 36 -13 3 -37 4 -53 2 -32 -5 -40 9 -41 62 0 39 -24 97 -50 125 -13 14 -25
23 -28 20 -2 -2 -18 3 -34 11 -17 9 -42 18 -57 20 -14 3 -36 17 -48 32 -13 15
-23 21 -23 14 0 -7 -4 -11 -9 -8 -13 8 -8 71 6 71 6 0 26 -13 45 -30 18 -16
48 -43 66 -59 l32 -28 -10 28 c-14 36 -40 65 -51 58 -5 -3 -9 0 -9 6 0 11 -65
80 -76 80 -3 0 -2 -9 1 -20 9 -27 -9 -25 -23 3 -6 12 -11 16 -11 10 -1 -7 -5
-13 -10 -13 -5 0 -7 8 -4 18 10 41 -55 60 -167 50 -19 -2 -41 -7 -47 -11 -7
-5 -13 -4 -13 0 0 5 -19 10 -42 11 -66 2 -160 18 -191 30 -16 7 -34 12 -40 11
-7 0 -2 -4 9 -9z m339 -110 c7 -24 7 -24 -9 -5 -8 11 -15 29 -15 40 0 16 1 17
8 5 5 -8 12 -26 16 -40z m-239 15 c-23 -17 -36 -19 -36 -6 0 11 18 19 40 20
11 0 10 -3 -4 -14z m372 -47 c27 -59 35 -88 24 -88 -5 0 -15 11 -22 25 -7 14
-19 25 -26 25 -12 0 -24 21 -24 42 0 6 7 8 15 4 18 -7 20 5 3 22 -8 8 -8 12
-1 12 6 0 20 -19 31 -42z m-318 20 c0 6 5 12 10 12 11 0 13 -30 4 -55 -5 -13
-9 -11 -20 11 -16 30 -19 57 -4 34 6 -10 10 -11 10 -2z m707 -591 c4 -27 1
-40 -15 -57 -12 -13 -22 -18 -26 -11 -10 16 5 82 17 74 6 -4 8 4 5 21 -3 17
-2 24 4 18 5 -5 11 -25 15 -45z m-670 -9 c-3 -8 -6 -5 -6 6 -1 11 2 17 5 13 3
-3 4 -12 1 -19z m323 17 c0 -2 -10 -10 -22 -16 -21 -11 -22 -11 -9 4 13 16 31
23 31 12z m371 -38 c-8 -8 -11 -7 -11 4 0 20 13 34 18 19 3 -7 -1 -17 -7 -23z
m-611 -43 c0 -14 -27 -31 -35 -22 -2 2 -2 13 1 25 7 24 34 21 34 -3z m-105
-74 c3 -5 1 -10 -4 -10 -6 0 -11 5 -11 10 0 6 2 10 4 10 3 0 8 -4 11 -10z
m585 -161 c0 -14 -5 -19 -17 -17 -23 4 -28 25 -6 31 10 3 19 5 21 6 1 0 2 -8
2 -20z m-406 -98 c8 -12 -21 -34 -34 -26 -17 11 -11 35 9 35 11 0 22 -4 25 -9z"/>
<path d="M3497 1809 c-17 -10 -23 -29 -9 -29 5 0 16 6 27 13 22 17 7 29 -18
16z"/>
<path d="M4310 1740 c-11 -11 -20 -24 -20 -30 0 -19 -63 -11 -86 11 l-23 21
-45 -38 c-34 -29 -45 -46 -46 -67 0 -22 4 -28 18 -25 11 3 16 12 15 26 -2 14
3 22 12 22 17 0 21 -25 6 -35 -6 -3 -2 -19 8 -38 36 -64 7 -96 -56 -63 -20 10
-44 13 -72 9 -40 -5 -42 -7 -36 -32 3 -14 13 -36 20 -48 14 -21 16 -21 294
-18 154 2 285 6 291 10 7 4 4 13 -10 25 -20 18 -21 20 -6 42 21 30 20 49 -5
102 l-22 44 22 35 c30 49 28 60 -11 52 -18 -4 -43 -13 -55 -21 -31 -20 -52
-17 -98 11 -49 30 -69 31 -95 5z m194 -91 c-3 -5 -10 -7 -15 -3 -5 3 -7 10 -3
15 3 5 10 7 15 3 5 -3 7 -10 3 -15z m-174 7 c0 -3 -4 -8 -10 -11 -5 -3 -10 -1
-10 4 0 6 5 11 10 11 6 0 10 -2 10 -4z m60 -71 c0 -8 -6 -15 -14 -15 -17 0
-28 14 -19 24 12 12 33 6 33 -9z m-131 -59 c7 -9 8 -17 2 -20 -5 -3 -7 -16 -3
-29 5 -19 3 -20 -10 -10 -8 7 -18 10 -21 7 -3 -4 -9 6 -13 21 -5 18 -2 30 7
36 19 12 25 11 38 -5z m148 -10 c-4 -10 -13 -13 -23 -9 -15 6 -15 7 1 20 21
15 30 10 22 -11z"/>
<path d="M2551 1709 c-13 -39 -13 -39 -2 -39 10 0 26 58 18 66 -3 3 -10 -9
-16 -27z"/>
<path d="M2549 1555 c-4 -5 -5 -21 -4 -35 2 -14 4 -36 5 -50 l1 -25 15 29 c10
18 12 31 6 35 -5 3 -12 17 -14 31 -1 14 -6 21 -9 15z"/>
<path d="M4725 1550 c-3 -5 -2 -10 4 -10 5 0 13 5 16 10 3 6 2 10 -4 10 -5 0
-13 -4 -16 -10z"/>
<path d="M4726 1504 c-22 -22 -20 -27 7 -13 29 16 30 16 18 23 -5 3 -17 -1
-25 -10z"/>
<path d="M4887 1496 c-11 -8 -14 -17 -8 -20 5 -4 12 -2 16 4 12 19 26 10 19
-12 -6 -21 -5 -22 12 -8 10 8 20 15 22 16 1 1 0 9 -4 18 -7 19 -32 20 -57 2z"/>
<path d="M3600 1365 c7 -8 9 -15 6 -15 -4 0 5 -13 21 -29 15 -16 31 -27 36
-24 4 2 7 -4 7 -13 0 -10 3 -15 6 -11 12 12 -8 67 -24 67 -14 0 -15 2 -2 10
11 7 9 11 -13 19 -40 15 -52 14 -37 -4z"/>
<path d="M4684 1369 c-9 -15 1 -21 43 -26 34 -4 37 -2 22 12 -19 19 -56 27
-65 14z"/>
<path d="M6023 1188 l2 -164 -27 -33 c-33 -38 -35 -57 -9 -64 22 -5 34 -58 25
-105 -7 -36 15 -53 41 -32 11 10 19 7 40 -16 43 -46 27 -93 -38 -109 -40 -10
-48 -34 -45 -133 l3 -87 60 -2 c33 -2 97 -6 143 -9 l82 -6 0 306 0 306 -52 1
c-103 3 -115 2 -125 -4 -17 -11 -43 3 -43 23 0 11 5 22 10 25 6 4 10 23 9 43
0 20 4 52 10 70 7 23 7 42 0 60 -6 14 -9 40 -7 57 3 29 1 30 -39 33 l-43 3 3
-163z"/>
<path d="M6127 1338 c-17 -11 23 -9 48 2 17 7 16 8 -8 7 -15 -1 -33 -5 -40 -9z"/>
<path d="M4080 1328 c0 -27 61 -117 106 -157 26 -23 67 -50 90 -61 48 -21 125
-71 164 -107 14 -13 30 -23 37 -23 7 0 13 -7 13 -15 0 -9 -6 -12 -17 -8 -15 6
-16 5 -3 -9 8 -9 18 -14 23 -11 4 2 7 0 7 -6 0 -5 -8 -12 -17 -14 -10 -3 -2
-6 17 -7 33 -2 33 -3 10 -10 l-25 -8 23 -7 c18 -6 21 -10 10 -17 -9 -7 -8 -8
5 -4 10 3 23 6 28 6 6 0 7 5 3 12 -5 7 -3 8 5 4 22 -14 82 -8 102 10 10 9 19
28 19 41 0 33 -38 88 -77 108 -36 20 -51 62 -33 95 6 11 12 60 13 108 l2 87
-252 3 c-199 2 -253 0 -253 -10z m495 -426 c-3 -3 -11 0 -18 7 -9 10 -8 11 6
5 10 -3 15 -9 12 -12z"/>
<path d="M3591 1304 c0 -11 3 -14 6 -6 3 7 2 16 -1 19 -3 4 -6 -2 -5 -13z"/>
<path d="M3592 1255 c0 -16 2 -22 5 -12 2 9 2 23 0 30 -3 6 -5 -1 -5 -18z"/>
<path d="M4740 1235 c0 -8 2 -15 4 -15 2 0 6 7 10 15 3 8 1 15 -4 15 -6 0 -10
-7 -10 -15z"/>
<path d="M4770 1224 c0 -8 5 -12 10 -9 6 4 8 11 5 16 -9 14 -15 11 -15 -7z"/>
<path d="M5105 1183 c2 -16 4 -32 4 -37 1 -6 4 -6 10 0 11 10 3 64 -9 64 -5 0
-7 -12 -5 -27z"/>
<path d="M3591 1164 c0 -11 3 -14 6 -6 3 7 2 16 -1 19 -3 4 -6 -2 -5 -13z"/>
<path d="M6120 1111 c0 -6 5 -13 10 -16 6 -3 10 1 10 9 0 9 -4 16 -10 16 -5 0
-10 -4 -10 -9z"/>
<path d="M6160 1058 c0 -4 4 -8 9 -8 6 0 12 4 15 8 3 5 -1 9 -9 9 -8 0 -15 -4
-15 -9z"/>
<path d="M3593 990 c0 -41 2 -58 4 -37 2 20 2 54 0 75 -2 20 -4 3 -4 -38z"/>
<path d="M4802 1015 c-31 -14 -22 -29 19 -31 50 -3 63 8 31 26 -20 11 -33 13
-50 5z"/>
<path d="M3745 1001 l-30 -6 -3 -349 c-2 -192 0 -356 3 -364 8 -21 22 -6 115
112 43 56 93 117 110 136 69 77 97 117 113 161 13 35 26 49 53 63 l36 17 -24
18 c-12 10 -39 25 -58 35 -19 9 -74 54 -123 101 -93 91 -104 95 -192 76z"/>
<path d="M4930 910 c0 -5 5 -10 10 -10 6 0 10 5 10 10 0 6 -4 10 -10 10 -5 0
-10 -4 -10 -10z"/>
<path d="M5062 911 c-10 -6 -9 -11 4 -22 16 -12 17 -12 11 3 -3 9 -1 19 6 22
7 2 8 5 2 5 -5 0 -16 -3 -23 -8z"/>
<path d="M1271 744 c0 -11 3 -14 6 -6 3 7 2 16 -1 19 -3 4 -6 -2 -5 -13z"/>
<path d="M1290 748 c0 -23 11 -48 21 -48 14 0 11 24 -6 46 -12 16 -14 17 -15
2z"/>
<path d="M1282 685 c3 -11 -4 -35 -14 -52 -16 -27 -17 -33 -5 -33 32 0 55 71
29 92 -12 10 -14 9 -10 -7z"/>
<path d="M1441 664 c0 -11 3 -14 6 -6 3 7 2 16 -1 19 -3 4 -6 -2 -5 -13z"/>
<path d="M5610 461 c0 -5 7 -12 16 -15 14 -5 15 -4 4 9 -14 17 -20 19 -20 6z"/>
<path d="M5573 423 c-3 -7 -12 -13 -19 -13 -8 0 -17 -7 -20 -15 -4 -8 -10 -15
-15 -15 -5 0 -17 -8 -27 -18 -17 -17 -17 -19 6 -36 24 -18 24 -18 12 4 -11 20
-10 21 12 9 13 -7 28 -19 35 -28 10 -13 10 -9 3 19 -6 19 -10 37 -10 39 0 3
16 -11 36 -30 22 -21 33 -41 30 -51 -2 -10 5 -30 17 -45 17 -23 14 -22 -18 7
l-38 35 19 -34 c10 -18 25 -35 32 -38 6 -3 12 -11 12 -18 0 -7 14 -25 31 -39
25 -22 34 -24 51 -15 17 9 24 8 32 -3 6 -8 19 -17 29 -21 9 -3 17 -11 17 -17
0 -9 -35 5 -50 20 -8 8 -70 6 -70 -2 0 -5 5 -8 11 -8 5 0 7 -5 4 -11 -4 -6 -2
-30 5 -55 l13 -44 118 0 c66 0 119 4 119 8 0 5 -8 17 -19 28 -11 12 -17 32
-16 51 1 24 -4 34 -22 44 -12 7 -23 18 -23 24 0 7 -11 17 -25 23 -17 8 -25 20
-25 37 0 17 -9 29 -30 40 -16 9 -30 12 -30 9 0 -7 -86 79 -132 133 -14 17 -25
33 -22 35 2 3 -3 5 -12 5 -9 0 -18 -6 -21 -14z m127 -145 c0 -7 -11 1 -24 17
-13 17 -27 27 -31 23 -10 -9 -38 19 -31 31 7 11 -18 33 -27 24 -4 -3 -7 5 -7
18 0 21 7 17 60 -38 33 -33 60 -67 60 -75z m50 -207 c5 -11 10 -22 10 -25 0
-11 -26 5 -38 24 -10 17 -10 20 3 20 8 0 19 -9 25 -19z"/>
<path d="M1776 368 c9 -82 14 -86 14 -10 0 33 -5 64 -11 67 -7 5 -8 -13 -3
-57z"/>
<path d="M5410 411 c0 -13 28 -40 43 -41 4 0 7 5 7 10 0 6 -7 10 -15 10 -7 0
-19 8 -24 18 -7 12 -10 13 -11 3z"/>
<path d="M0 357 c0 -23 4 -36 10 -32 13 8 13 35 0 55 -7 11 -10 5 -10 -23z"/>
<path d="M46 358 c-8 -32 -7 -40 3 -34 11 7 21 56 11 56 -4 0 -10 -10 -14 -22z"/>
<path d="M1311 350 c-7 -4 -11 -18 -9 -31 5 -35 42 -33 46 2 3 28 -16 43 -37
29z"/>
<path d="M3013 292 c-30 -5 -45 -26 -55 -80 -18 -93 -21 -103 -32 -99 -6 2
-13 12 -15 23 -2 10 -10 28 -18 39 -14 19 -15 18 -7 -10 4 -16 9 -48 10 -70
l1 -40 82 1 c75 1 86 3 127 32 26 19 57 32 75 32 l30 0 -20 -21 c-12 -13 -33
-21 -55 -22 -20 -1 -36 -5 -36 -9 0 -4 -6 -8 -12 -8 -21 0 -35 -13 -43 -38 -7
-23 -6 -23 73 -21 53 2 78 7 76 14 -3 6 7 22 21 35 23 22 34 60 17 60 -15 0
-4 73 12 82 9 5 16 20 16 34 0 22 -3 24 -22 19 -13 -4 -33 -13 -45 -21 -20
-13 -53 -20 -107 -23 -18 -1 -18 -2 -3 -19 23 -25 21 -35 -3 -22 -16 8 -18 8
-14 -4 3 -9 -5 -21 -21 -32 -24 -16 -27 -16 -43 -1 -15 15 -14 19 6 46 22 30
30 57 13 47 -5 -3 -11 3 -14 14 -6 22 18 40 52 40 12 0 21 6 21 14 0 13 -21
16 -67 8z"/>
<path d="M170 203 c4 -32 5 -91 3 -131 l-3 -72 30 0 c34 0 33 -6 21 112 -9 80
-31 148 -49 148 -5 0 -5 -26 -2 -57z"/>
<path d="M5917 200 c9 -35 96 -120 123 -120 23 0 23 0 4 15 -10 8 -24 15 -30
15 -7 0 -30 25 -53 55 -23 30 -43 55 -45 55 -2 0 -2 -9 1 -20z"/>
<path d="M987 183 c-4 -3 -7 -46 -7 -95 l0 -88 345 0 345 0 0 95 0 95 -338 0
c-186 0 -342 -3 -345 -7z"/>
<path d="M4100 179 c0 -8 4 -19 9 -24 6 -6 12 -32 14 -60 l3 -50 2 55 c1 35
-4 62 -13 74 -11 15 -15 16 -15 5z"/>
<path d="M4061 139 c-2 -52 21 -139 36 -139 11 0 13 5 8 18 -4 9 -16 46 -26
82 -10 37 -18 54 -18 39z"/>
<path d="M5426 115 c4 -11 14 -41 23 -68 15 -47 33 -57 39 -21 1 11 -6 29 -17
41 -11 11 -18 24 -15 27 2 3 1 4 -3 1 -4 -3 -13 5 -21 17 -10 18 -12 18 -6 3z"/>
<path d="M2839 88 c4 -28 6 -29 9 -9 2 13 0 27 -5 32 -6 6 -7 -3 -4 -23z"/>
<path d="M2428 103 c6 -2 18 -2 25 0 6 3 1 5 -13 5 -14 0 -19 -2 -12 -5z"/>
<path d="M2478 93 c6 -2 18 -2 25 0 6 3 1 5 -13 5 -14 0 -19 -2 -12 -5z"/>
<path d="M2561 72 c57 -24 109 -54 109 -64 0 -4 37 -8 83 -7 45 0 75 3 67 5
-8 3 -40 16 -70 29 -48 20 -116 37 -210 52 -14 2 -4 -5 21 -15z"/>
<path d="M5644 48 c14 -24 31 -45 38 -47 8 -3 7 4 -3 20 -9 13 -22 34 -30 47
-8 12 -17 22 -22 22 -4 0 3 -19 17 -42z"/>
<path d="M6002 30 c-18 -29 -16 -30 35 -30 l46 0 -23 25 c-28 30 -41 31 -58 5z"/>
<path d="M6100 25 c0 -9 7 -18 15 -22 24 -9 27 1 5 20 -17 14 -20 15 -20 2z"/>
<path d="M3800 20 c0 -5 5 -10 11 -10 5 0 7 5 4 10 -3 6 -8 10 -11 10 -2 0 -4
-4 -4 -10z"/>
<path d="M4130 21 c0 -6 5 -13 10 -16 6 -3 10 1 10 9 0 9 -4 16 -10 16 -5 0
-10 -4 -10 -9z"/>
</g>
</svg>
